<mxfile host="app.diagrams.net" agent="Mozilla/5.0 (Windows NT 10.0; Win64; x64) AppleWebKit/537.36 (KHTML, like Gecko) Chrome/128.0.0.0 Safari/537.36 Edg/128.0.0.0" version="24.7.10">
  <diagram name="Page-1" id="NLzefTL2gSDdJx8QNI09">
    <mxGraphModel dx="1980" dy="1130" grid="1" gridSize="12" guides="1" tooltips="1" connect="1" arrows="1" fold="1" page="1" pageScale="1" pageWidth="690" pageHeight="980" math="0" shadow="0">
      <root>
        <mxCell id="0" />
        <mxCell id="1" parent="0" />
        <mxCell id="8LlulcfHmFQd0nab0qFh-1" value="" style="shape=image;verticalLabelPosition=bottom;labelBackgroundColor=default;verticalAlign=top;aspect=fixed;imageAspect=0;image=data:image/png,iVBORw0KGgoAAAANSUhEUgAAADoAAAEsCAMAAAClnVAoAAAAAXNSR0IArs4c6QAAAARnQU1BAACxjwv8YQUAAAKmUExURQAAAJ8gn58wj58rlZ8oj58rlZ8pkp8pk58rlJ8rkp8qk58rkp8sk6Erk6ArlKAsk6ArlKArk6Ask6ArlKArk6Ark6Ark6ArlKArk6Ark6Ark58rk6AslKArk58rkqEulKIulKMwlgAAAAUDBAUEBQgGCAkGCAkHCA0JDQ0KDRcRFiAYHiQaIiQbIiccJScdJScdJigdJigeJjIlMDMmMTsqOTsrODsrOT0uOz4tO0MxQEQxQUk3Rko3R044S086TFA7TFE8TlM9UFZAUlZBU1g+VFg/VFhAVFpDV1pEV2BHXGBIXGJHXmNJX2NKX2VJYWVLYXRTb3lXdHxcd3xdd4Fce4FefIRif4Rjf4hkgolmg5NujpdtkJdtkZlyk5ptk5puk5txlZtylZxylpx0lp93maArk6EulKEvlKIwlaMylqMzlqU2mKU4maV5nqd9oKg9m6h9oah+oalDnaxIoKx8pKx8pax9pax+pax/payApa1Koa2Bpq5Moq5Ooa6Bp66Cp69QpLBVpbCDqbFTpbFXpbKFq7NcqLOFrLOGrLRfqLVdq7Veq7WCrbWDrbWErbhnrLmKsrmLsrpsrrxvsr1zsb10sb2Jtr5ztL53s76Lt76Mt793tr95tL+Lt7+OuMB8tcCOuMCPuMF9tsF+tsF/tsGKuMJ9ucJ+ucKAt8KBt8KCt8KCuMKDuMKEuMKKucKMucKQusKRusOFucOGucOHucSCu8SHusSIusSJusSKu8SLu8SMu8WFvMWMvMWNvMWOvMWPvcWQvcWRvcaRvsaSvsaTvseIvseTv8eUv8eVv8iMwMiUwMiVwMmVwcmWwcqPwcqQwcqWwsqXwsqYwsuUw8uYw8uZw8yXxMyaxM2YxM2bxc6bx86cxs+dx8+ex9CeyNCfyD85T+sAAAAidFJOUwAIEBggMDhQWGBocICHj5efp6+3v8/X3+fo7/Dw9/j+/v4CN3IJAAAACXBIWXMAABcRAAAXEQHKJvM/AAADu0lEQVR4Xu3c93cUVRTA8QcBIQGFmAUDgugbIg5KQAngWiKgIAgIKL1buBCkWBB7o4o0qdJFqdIUBKSTgKCoSLGjtP+E2Td39czsvLdv7h5PWOZ9fti97+75nsluNufkp2GuqjXzY4WgoWGsIC8HIyG3Eb6i58Yq2LGcAoCJi/acvaLhtz0rpwLUv8EtqzWCsZvwFS2HXgSoIdIYfHAel5r+mQ2FVZ0yD8aGLB0Toa7zRm+DjZdDOzMaqrNceAePocyCOuxmWIqnUL6D+qwe/IincKAxawh/XqIYAwwA55AgK9OLJCbVYlIt2ZleIDGpFpNqyc70bxKTasnO9C8Sk2oxqZbsTP8gMakWk2rJzvR3ksilv5JELv2FRJXOfMzmvOnDL+PRT5F247xFhw4lnPfChY887cNbiOvNLJG00nSK3WxBcrpvpzt5SdM+/11r2OBwaVc+ACcZWfrD/U1H4iiTaXouQBfeHycZafo074XTyQdav4SjhzSdYt85Pzndu8OdvKSpc9l7xMU+LJH86PL03BOc3+1+EXHhI9LTwaY/mvj6PzQBj36qNI1KTH8mMamW7ExPpXrfbvV56ugRufSnVO/ZrT5LHT0il55M9bbd8tPU0eN/Sa32wiBCyl1Phk41RC79niRy6QmSay59M/nHYz2PGy+RHg/0hm09InQcjxsvZdpyBY6Brq8UP6aBuPBRpvjL6YELn+z8mL4N9LpdvBzHQMr03y8ibryUKX7C1nO48VKk6Yj0GEnk0qMkJtUiTV+zrWeTU9wdfBQpL5qHkyKtCDDJ+ZOL4+Q++ynStu14P3cKncYn2UVz3cld+ajSiqG8+BNiWvE4705NVze3nlGn5QFevSvuPA7hRXPcKVWatPwpHqemX7XjPYmp8+x8NcTklzZ13i45Le+sSo+QmFRLJaaHSa6f9Ms2+K8P531x5SPSgwE29C4tLS3mDzqPI3DlI02FzpYkS6jE9IBMJ2sETgFMmnStpvtlOlnDcQqgTpUil+4jMakWke4lMamWSky/IYlcupskcukuEpNqyTT9msSkWkS6ncSkWjJNt5GYVEum6VaSyKVbSCKXbiYxqZZM0y9ITKpFpGvxEM4oYLfAkvUUThqDj/EQyjIoZLXhXTyFMgMKWHW4YxkeQ1gzDnIZy4dX8BzCZKhXhbGcBjADF9oWNgFxI46aAG+tWhfGtNvhpkTJWK1boWzaYlynteqjcQB1kncOSdw4BEa94N5PRK2szHlI3jZEqJHf2H1JQywvcUnGrgJjoTi0B57zpgAAAABJRU5ErkJggg==;" vertex="1" parent="1">
          <mxGeometry x="10" y="340" width="57.23" height="296" as="geometry" />
        </mxCell>
        <mxCell id="8LlulcfHmFQd0nab0qFh-2" value="" style="shape=image;verticalLabelPosition=bottom;labelBackgroundColor=default;verticalAlign=top;aspect=fixed;imageAspect=0;image=data:image/png,iVBORw0KGgoAAAANSUhEUgAAAEYAAAB9CAYAAAAfkxXqAAAAAXNSR0IArs4c6QAAAARnQU1BAACxjwv8YQUAAAAJcEhZcwAAFxEAABcRAcom8z8AAFlQSURBVHhe3b1leF3JlTYqWRYzMzMzwxEzMzMz2LJsy5IZJDO0mWXottt2uzmdZGaCneRLJpx0kp5MYJJJMqGeJJPB976rzpHs7szcO3/u/XH1POupfTZUrXprYVXtLb26I2dRv/oCGo5fQuO5m2i5/CJarj9Ew9WX0Lr2KgYefQJjb34GU5/4EmY+/TVsefdb2Pp/vodtX30f27/5Q+z47k+w8/s/w+Lf/QK7fvQrLP3k11j62e+w/IvfY/ev/hl7fv0H7Pvtn7D/d3/E/g/+hAOkQ//8Jxz+53/BkT/+GSt/EvoXrLJc/Zd/1ZbPE+9Z/QPpgz/jyO//jMO/+xOOsM5DvyL98g84+I8f4ADb2//T32Pfj36HvT/8Nfa8/0ssf/cfsOubP8Li197Hjv/zHrZ94RvY+qmvYPpj72L4ySfQdfsJOki9d56i59oDdJ1fQ/uZ62g/cQntxy5Ar46g1B+/iOaz19F8cQ2NZwnOsctoWTqIqUNHceraTVy9/wDXHzzCDUUv4+ZDli8/ws1Hj3Hr0RPcevwEt0m3HvO3lI9ewU2WN/j7hrrnEc8/4j2PtcRzt/nc7cevYI33ralj7fm1lx/jzss8t0E891B7fFvo4Su4/eAV3Hr4FLcevMpSSzd5fPMloac6eqLo1gMe8/6b5F3o4tp9LB4/jYHdB9G9cgbt7G/HlRfRc+MhOs/fRsepa2g/eQl69USn6cw1NBGYsl0ryGoeQFFlE+a37cDF8+dx5dIF3Lh2FWu3b+HunTXSbdwj3b+7hvv37+L+vTu4d0/3m+fvrvG+2zdw5/Y1rN26TuIxSzl3V0pF13ju2rPft6/jHq8rWtOV68drN9WzUt4THm7d5LM3Wa/QLS3dvsNyDXdu3uH1u9qSdE+OSXL9ztoabvGZq1cu4+KFc7hMmh4fQUZRMQrHt1AwrqGTktNJyWnjsV7DqStoOHkFmqF5hKfkIzQ0BiFhocjNz0f/QD/GxkYxMjKM4eEhDA0NkAYxOCglieeGhwcxPEJiOcJrcn5wqA8Dgz0YGOglSdmDQR4P8twz6ua9pOFuPtvDOnQ03KvKked/854h3jOkjkmjfRge68PI2ABpEKNjQxgbH9bSxChGJ8Ywyk6Pjo7wXvLO60M6GuX1yekJdHR1IDsrHVERIYiIjEJaTTOqD51R0tN+YY3AnLmKjK4J+IcnwdXNA95+PoiIjkJQaCicXVxgZmaGTZv0oaen939L+ptI+vok/n6OtOf4/P8TSRtC67/1njt+njZtYlvPE+v/X/C3ToZGhrBztId/cAjik9MRGhENRxdnBAaGILGkBlX7Tyhw9HLGFxASkwJXF1e4uLnD3csLFlZWGxUZGBqxIme4eHrDzdsHrt5+LH3h5sPSzw8efgFwdHPDJoNNH2Lg/2uysnWAu2+gIjchHxJ5c/Ml+QSRAuDk5gkTM/ONZzYbm8HW2RM2zh6wc3BCRHg4kirq0HiSqhQUn6ZEKYQSEhgawgdN1UNGJiYIiYtHdnUdStt6UN0zhNq+EdT2j6JuQEsNg2NoHplAcX0TzC2fgfm/oU2bDNiGOclCkSGPhbS/rWCw2Ujdp7/JEJtNrCl1/zPwmwwMkJCZg6bhafIzjcbhKTQOTZC/SdI46gfGUdc/hqquQRQ2tCKe99rYOeqeN4CThw+CI6MRFByAqNg4aAZmoJeVpUFUTDQq62sRGBKsxN7Szh7J+SWoJggNo9NoGJlB09gcmsdnSXM8nkHz6CzaJraia2YbWsiItf16Q/87ElBsXXw4Wl6wdvQkefBYRs8LNk5eMDbTAm1oZgN730QYGGiB+u/IYPNmFNQ0onvLTnTOLKB9civap+ZJW8njFrQKzwSsQQBTwE0jj/e7enmr563tHehwKpGdn4e87EwEJ6VDr6OtFfWtLaRmWFGFDI2MEKvJJSjjqOwbRQUlpbp3GJUsq1gK1fYPo66PxFGQ0WgdnUFYXILWvnyE6f+JxD5sNjRWqirSIbRZjnWkT4nS3mdASbLU2peP1LFOds6uqOke4GDNoIXUNjZLHsfQNDqBekp109A4xrbtwsT2JYwtLKJveisaeC6nqh42HFDhJV2jweTcDCory5GamgK9CiI1t7gDWbm5qhEP/wAUNHdiYNsy5vevYNuBVRw4dQ7zew9hbMdu0h689vbHcZOxTRdHo7xjgGo1TsYGlb2R0fso4/9vkZJuaxtoymtQSx5qOZCrZ8/j8+9+AbOLuzG8ZQEDW7ZjbnkffvSTn+Jf/vxn/OJXv8KFK1cxNLsNNT3DiEhIVXV5017O7ZhHVU0VRuhB9YorKzC1MI/A4CCl95EpGSho7aY4bsHM8n4sr57E3uNnsHruIrbuO0w9HcL+Y6cwv/sASnlfaUc/KrppfzhCYocSsvIJbhDs6eEcP0IOOnJ0ldLzQ+To7vWMPLwVOQm5ecGJ55zcPXnswZLPkpw8vBAUFUub0UJQaD9EmtnRnXsP4vHLDzG1YxHDc9soHdswu7QP773/d/jN736Hv/vhD3Fo5SgGqGbl7X1IKyqDqYUFAbZGL0ONielJ7N61A3qdg/0YmhiHo5MTzCwskZhbiNyGNlIrKtjpkrYuVHT2oailGyXtvTzfgfymThSSiglMSVsvzw+gjIatsneENIoaGr1mSlPL9DzaaIO0tIBWlq2zUu4g7VTUIjS3iFZSm6JdaNuyC+3rNLtI2ol2PtM2vUCiTaMNqaO9qGZ7AoioeXmn8NCPMvJcTj5LScXkvbC5C1WU5s6JWXSTOkZpZ2g7CxrZB17LLKuEjYMDjI1NUNvUgCPHjmDbti3Qm9u5gG6CY21jDQuKZVJ+EbJomLKqG5FZ3QRNbTOy61qQU9+qAMtrbEdek4DThQKCVdgqDBDA9n5KzyBKKVHlHLnynhFUULQrxVbRM1QOTpAmUUXDVzU8h+rhWRLLkS2oHtuCmrGtqBl9RtWkKl6rGpolUfcHp1DBuirYqXKCL/WXscMisTJgJR3kQ4getIgDJgMpJiGvsQN5De3Irm1hv5oVZbNPOfydV9+G9NIK2Do4EhhjlFZV4Boj8pmZKejt2rcPnf09sLK2VMAk5BYgo6JWUTp9ekpZDRLLapV/T61sQEpVI1JZeVptK9JJmXVtyKxv1xJByyJpCFo2mcshwzldfcjrGUQ+Rza/fwQFBKiAnSwamUIxDWURvV0xQ/LSiXmUUhIUjW/l+S0opDeU+/Oppnl8PpdSmUPxz27tQRY7nskBymTnMjloGVSp9Pp1akZ6nfDYjFQOcAp5TyytZgBXhZTSGmSyHxoOek5tE1KLSmiAHWDC8KSovBQvvvwSJifHobfn8CF09XdTYixhTmDi6JFSy6qQWFiO9JoG9O3ajaXLV7H35i3sv3kb+5mTHGDucfD2XRy+Q1qT8h4O372PlXv3sXrvRRy79xKOv/gAJ5lsnmKSeOaVpzjz6qs4++rrOPv6mzj3xlt44a23cf7tj+GFt98hfRwvfOwTOP8OSyEen3vrHZx9802cef0NnHmN9PRVnHnyKk4/eoqTTCxPPHzMNl7GUba1Km0LD+TnyJ37ig7fvYcVnj+ydgeHyPPBGzew++JlDNFuajigqQRJU12P5LwCWNvawcTUFIVlpXj09DHGaVr0DqweQXd/L6xpfCRIi83KJiilyG/pwN4bt9mh13Dm0UOcf/KY9AQXXnkFl9nJK6+9po7Pv/IEl3ksdPW113GNnbgm5euv48Ybb+KW0Jtv4fabb+P2W2/hFun222/jDgG5w3LtY/wt5998g/cKvYmbBE+ROuY5Pr9ON4V0126wnetPXsEVZuZXycs18nWVAF5+5VVcF36ePlXXLvOeS+TzDLP848zod9+6gzJKYGopBSAnj1GzLYExQUFpMZ68+kQLzOHjRzeAMSMwMelZiC8owfy5czhK5AfnF9DcP4jG3gE09A6iaWAYLUOjaB8ZR1P/EJoGh9E2Oo7moRG0Do+idWRM/W4fY6I2NkWXThqf1tLEDA3gDLrGJtE6OIpOlp3jU+ggtY9OKupgJC3URuqU34xF1ssO3q/uYb3yu5nUe2QVvfQyTcNjrHMILeSvlcfCX+/OJQyuHKOxnlV8N5O3/oUdSpoWr9+kqahBvCaHwNjBlMDklxQpYCYEmCMnjqFnoA82Nlb0SlYIS0ihMZzE0MoRFDVQV3OLlEtLo5dKpVFOLShGRmEJNCXlyCwuRQ6NV0FVLQYnZ5BfXomy+kZ0EbhsWvscNpxbVYe8SqF65DGgKqYBH5vfgUI+s7C8F6WNbaimwSxpakcDvUtlczsqmtpQ007jXt2A3MpaPkdaL1lfPuvLIXVQtVd+8Qsc+8Uv0cOOZpRXIbO0krxVoZJtHPza13H7l7/C1KMnKKKHyimvJk/VKKE2jBw7hvbtOxGdlvEcMIV48tpT2pgJ6K2eOoHegX7YWBMYSkxIbCLal3ejYGAAXsHh8AuLgW9WHvwrGhFUXo+AgjL4JaXBJyQKfqHRCIiIRUJ6NnbvO4CahkY0tdJzFRQhkFlrUHQCgmOTEBqTxHqTeZyMyKQs7Np/BHsPHcYjivj+g4cwPb8Nh4+fwtXrt3GNdIv26zrVOCU7H0ExiQiLT0VIPJ+PS2b+RopORDAHrOWNtzH3/t9j54//AeNf/ApCMrPhFxkL3/BYVJ08i2P/CZz/t//CgZ//gsZ7iHFPPIJZj19kHNKaWtG2bz+iU9JhaWMLY1Nj5BYVUGJe0QJz9DSBEXetAyY0LhFV09PI6uiEjZs3LJ08YB8WC6eEbLglZcMlIR0uBMPWxRt2rj6K/EOjsH1xGXWNzSiiJBWVlMGFiZmLVwBcvAOYkQfB1ScYLsxyvQMj0EGVzGS8dGT1OHbv2Yup2a2YnNmKua3bcYJR9tmzFzDIUN6HA+PqGwx3/1BmySHq2I0k9Tn7h6H55l0c/P0HWP3DHzFAu+LkF0R+vGHt4Ib04XHspSSd+rd/w/zXv4lYSrCjhy8cyY8dy+iSClTPzSEqJQ2WyviaIKdQC8yEeKWjp0+i7zlgopLTEZmVi5LxSY5ALvRNbGBs7QIze28mdI4wtHCEiZUjTIWsHWFm6wwLOxfYOLozEXSHpb2bYszSjuftXWBOsrB3hYWcc+A9BFoAs2UHPNk578BQBIRHw9HTj7+D4UdJdPMlkN6BBJ/JJe8XsmKSacX6haQeC1sXOAZFIpe5T+neA3APj4GZjYPix8zGEVZMSBPaulF5eBWB2YVs3xXmfMbMxgW+lOLcnh7EFRbSpmYqidECk09V2gDmBHoG+7TA0MZEp2UqcY0nopktbQhJ08CToulJlVon74gY+ESSouLgS3XxI/lGxpMSeC4eflEJ8Oc5f5Z+MSSqZ0BcEoJIog6BFOcg2rLA+BQEkALlOJHHCcnwj0+Cf4IQ7+M5uSb3BPAZIX8+r4h1+rJ9b6qOkLTvR7XzjZFS2o0nj7Eb5BtL/vhMUGomUmvrkVhegVC2FZORpfKtdWBeef1VTE6JjSEw3f3rwFgyV0pHfE4B7UskAhKTkdXUjJTqWgZ5lSS6NxrYxAqWFZVIZplESi6rYOBUwbISSbyeQiOYyvNpNHTpNJgZfD6jug5ZtQ06qifVIaOWQWQNqbpGUSrvTanUlqm8P42GNpXPrp9PrqxmkFmNNClZt2qfbSWVVbPkbyFeS6mU88JvBa+RL7mP55KlrcYmhFJKxH4mUpKiUjNUYCvzUALMUwGG+ZLeURrf7r4eBYyppSUiktMQn12AGKpTABF29g2kXgbByTcUzn7UedoIN4qwHW2GE/XdKyQSzmzELiQMbjz2pL3xEAqLoqRxRCPiEZSUDt+4FHjw2J2j7EbV8eIIh3IQwpi0RqVrOHLZPM6kcUwnpbGOaLgGRcA9OJoUBS9KqkigVwif5TUPlkLuVD1P3uPBgXTmfe7kzZ082nv4w5k8egTxXAB5DiDvfrRVfiEIpPGOy8xjDFOESPbX3MpKKzEFuQTmNdo7ArN66hQ6+7rVXIypuSXCKL6xWQSG9iVWk08qUL9jmTXHaQpJBUgsrkTf0l500t0mFlWik8d7GVDl0u3Gs7Hk/FKk0Hul8lpyQYVK+Lq2L0HDVCKjop4JXDtKmMcUNrbyuFVlx4O79qCRMU5BcwcTwB6VCMo9meW1yKI3bGEKIclfamEF0th+anEF66ekMkJPJlUztjnG4LKUMUsGw4q+02dROzPPfuQjgTwlUDoSOOAJ5D+eFCfnNQSGHlaAMSYwGgIjqjSlJOYMgenthqWlBdNvS+pdCivLQ3RGriqfEUEiQNFp2RTTOlz99Gdx7J1PIKKoCqOrJ3CVMUNRRx8bLUJcTjGS8ooJCgHKL0c+85mZw8fQxcw6l+F4ETPzPGa2iZWNFO121E7NY+DgUbQt7kE+E89MZuyFTEaLmaCWMOdqG5/B1O4DKGJOlFxYpigxv0QLSl4ZB6MErduXcfmr30AJs/psxiwHv/xl9J86i9DEdPKdp4CIk8GVcp3Yn/CkVB0wxtDk5SiJmZoWd332NCWGSaSVJSXGQsUbAkp0Wo623CAtWJGMWaKzi1DaN4xiut34vHIlBbkc4WRmrCUDjEjnl9X5pNxSBoS0OwSvom8MUweOopRBXDpjiM6lPTj40mNc/9wX8fBvv4nXv/0eXv/O9/Dw69/Cpc++i510xeXjsyijNG09tIJ2SlMSARGKzy1GGhPbOkk4mWRmStZcx0SSyWsM240rKEc2pS6ZfEVwIIXv5wc5Voj9iSU44dSQDYnJy8Wrb4jEEJhjzwFjQmCC6TkiU3NolLTARFGlIgUYil9CbgnSGFXmM4NN4IiJuonqRLGRKI5G99GTePM738Xi5ZuondyBpOIadkSMX4PKzOvGZjG45yBOPX0Db/zd3+Nzv/k9Pv7zX+PR936MRz/4MR6//xO8/bNf4POMS/7mdx/gwXe/j/mba+jZsUzwaYiZISfklyGHIDRRMkaPn8Envvs9bL94jYCUITw9HxGaEoRlFSGE/IeRr0gOYgQlI0KOM3IUMM8GO5eRftKHgHnKHG96ekqAERujA8aMwNDgCsqRlJgoVhJJMUwrqUbX5BwuMXP+7Fe/hvf/4Wf45g/ex72nr6Fvbh4pdO3R1N/mHbtw+uMfR/nIJJpndqFz+37kUC2SqXqJxVVoYwevfPoL+NQv/gmPCMJbpPd++Rv8AwH62W9/j5/85nf43i9+hb9mNHv/e+/jrd/8Fk8Ytc7cvo/Emhak0PvUD01iTGYPqba5XQNYYSJZP78d4VSnCEpLbAnThZYe9G1bxPKJM1g6fhID27ZDQzWMoqSFpctg59PgczB5HEJBMLO0VsZXk5+tbIwC5uiZk+gSr0TUZM1lA5j0HIQT0YLGDuzjyJwnc2uvPMVnvv4N/IwM//SffoMvfOs7+MzffhVnb95CEY1ojBjrPEoQAU1kIlo9Mo3xlVOoZmea5pdw8tOfx733foAXv/4dfPPHP8HX3/s+vvLNb+HLrPNLX/savvj1r+PL3/gmvvrt7+Dbf//3eIPgXPnuD3CTajZ49ipqxrdgeOdu5NU1I4qOIJIUTSmOoGGNIDDJtFnDBP/6/Yf4+Gc+jfd/+Uv8/IPf45Of/RxuPXiEiaXdan4mJIv3k8cI9jGYsY/Eb2Jjsp4H5tjpUwRGm12bmFowv4lHeEoWwlI1SC+vwY6DK5jcthOjc9uxhyH8rUeP8dpf/Q2e0PBeZPa9eu4CLq3dw+lrN6FhHBGWmoVoSpmAJJRJYzu4ehqrf/N5rNCePPjq1/FXX/wS7r/yBBdu3capK1dw4spVHLt0CUdJJy5fxQsE+vbLj/DOZz6DtwnSyS98Cbe+9DX0LK9QVRitUn2jBRixERz1cHYyiRI5s7QPi/sOYpqSe/2lR3jvHwWYP+Du09cxw0x7nsBsP7SKDCayIXwmjMAEMhAVb2xsYoKsPALDJHJmZhp6K6dOoru3h0mkNVEzRyATrNDkDEam6RieW0A1s90kTR6KaxqwdXE3Tl64jKtM8s4TiEMU1b7xKdQwW93BsHyG+VIMbVEEdVmkRnQ4iCLbd+o89tOLXfvcF3D7yVMsHTmCyZ2LmGeyushEbo7HS4cOYffKCnYdPIwty3swwcx3fu9+Suoa7n7+XawSpMXbLyKKxjyKNiOKoEdmCDAcBALVNz2P/tEJ5BSVor6zFztXT+HRJz+Dt979Mlau3kDbyBg0xWVo6uzG9K7dCKOUhaTkIIDASGArM3giMY9ffwUzszPQO3LyOLroriW7NiEw/kwQgxPSlGuuY64RQfftx4BMABqYnEZ93yBaaVdaxyYxMjOHPpbJWTmIZaC2sOeAihlCkrPIdJ5iOqW5B1MvPsQFus9jt9bQOTyKMnqliuY2TG7dhsXde7C8Zw8uU2rOnDuP02fOYXhqGvmMdouoMjXkYefKMZz/3Gex+MZbqJ/Zpq2fUhlKAyvHqYxrpqlC/gEhiKaXyS4uRxM95t4zL+DolRsYmd+JkqYW9kmDcE0uart6UNnex3QjUwWNHwVmbm5WB0xPl7IxIjG+BCEwNgUpeaXwZVQpiZwXE71K2pDsmjrU7T2Iuc+9izZmwBkVNaht70QMw2p3/wBkcUQkeApOyCAoOQhKy0X94l5sffNtLD94iObBYcTKRBglKpY5iwCaW1CE7FxKJDPyjMwsVNcxj0mjxEbHMQpnPUkZrLcSoytHceRL72KSnZWVwkhKZFBSFo+zUFjbjEymDAntHeQ9AaGMrjOZvowfO43lx6+icmAEUQzkIpgKZA1PIrq0Ei0MG/zYT19qiCyfKGAKcvCISeRWZt16KyeZElBirK2oSiZm8A0jMHGpBCgO5syQTa3s4eTpixxGmnGV9dj59l/jfYBG8X0ktXQhlcY2gIzYuboxLA9DGMN5ATaUdsovORsNB1Zwkp6saX4BwRRbmcfxDAhDOL3B0oGDOEe7MjUzC2sbe7RRzM++cB5H6UniU9NVux7+IWrKIq+9G6tffBfdp08z2i5VbldACYrPQB5duWt4FBJHRpmuMOz38lfzLlUzWzH2+DVKbTs8/AKZLoQiiKmHZOLRBFxA8eWx2BjxSpkCzKsCDCVm9QSz615KDFVJgPFhnhPAjjl4BGCzqTUMmcZbO7sjM78YDtGZmH3pTfwbgbn11ffgkVmK5Jx8eAaFY7OZJRuW+ZMQZtfMYlmHT3ImKmnsTn7lbxnY9cPa3g0O7n6UQi+6xhKceuECGls7cP7iZQwMjVKt9mFuyzzOnj2PvoFh5LLNeqqdjb0LvQ/tyI2b6Dr/AgoY2YYnZdIWZiteg0kmVg6wcHSDpa0T7Bxc4RISB/+CWmgOHUcQB9XG0RkWvCaL+LJ5wMndB97MuURDngfmZQIzN0Mbs3riOLpFlWh8jUzN4C0zc9HJsHPzwyYza8TRG1n5BsE/LIK5Sw/8s6pQMr6IyPI2ZFY0IZG6bmhiATMy40VQ7d19lcRllNUjuaETZUfPYM9ffxq5Le1qDdrSzhVWJEc3HwTx/qq6Rpy/dAWdBM7Z1ZODY44ZesGRqVlERMUjliNvYWkHf9q6miMr6L92HbVMLVJZf1xOGXwikzhwntA3tMBmC3uYO3lRNWxh4xuBwK5RxC4sw5HSb8JBNndwhweNtxkHx9LWET4yO0kNkYjf2MSYg5+Dl56+onXXMrXZ1dupJEZ2IHgzQ/WNSoEjxdfA1BLWzHClQQNeC6bo5TKKzW3oRlFDBw1uFmMfAmrvCt9kjdpnIjsWxCDm1bQhqqQGuXsOY/Hjn0RafSP09I1gwrpMLe2ht9kcZlTTxd178eDlx8im55M15MiEVJy5dhuJTD30N5vC2MwGRsYW8ImjaqweRRPVLJOGMyyNcUhGETzDEmBh78x7zeBaWIOQsXkYGplzAFzgFRGn5nKcPXzJpxXMnL0Q1jcFc2qDFZ+RKVA/AYaBrcQxmXTXLzKMmJxSwDDAW5cYdt6LwPhFJdNeUPesHcjsJugZmLIjZtDbZAKf4Ahk0K44uHlhExkQ0fQqqoNzkoadtoGjVwAC4tKYWqTDjAxkzu0gMJ9AdEUVgTEkwFRPdtaJEuNLo25L8V/evR/zWxfgQclcuXCdHrCL0muJTQRks6mVAtQvNRtdd+4hZ34rPGmffKgG/jGpcCefDh6UbkNTmDh7wzo4mjwZIoo53xTzq6kp5lhpmTCysIYB1d3YxgHGPJZpTj+ZWKOGiDc2ITAZudm4/4TATKr5GAIjxleAMTaHZ2CkEk9fguPoFYjNZE4YMyAIwqQ7O5NeUq7shAF/i1QZiNSY28DGyQOuARG09mnU/xwY2rgifWgKowy2Env7YeTowrqMObrmyKH9uMT4ooMxx+nTL6Cjqx8Hz1zE3SevccRmkJ1TqOrUMzChmpgiiG2OvvUWcrfOw5I2zycsFl5h8eQnGi5+YTARKSQgepuM1UCG0zOOUOVymEbYEgQjDvImI1O1Ecmatkb66R+VBC9qhHhjLTAa3Hss60oyH3NSJEYmqgQYU3gEhsM7PAGBHA3v0Dg1j2tIcPQpLUYEQCauvGiwnANCYePiTQnQ7oiypv46+4TRK0TDLSASQXEZsHEPhBPVKn/vYXRevQbPtHStBOqb0A7YoZHe4sjqCeQXlyrRbursw87lvVhi4FdWUa3ak/utvfyQu2snyshrErN4Y3MOUFCkasfNnxQYBTvaDQFSXwFJm+cWCIfINLiEJ8PJPwqmHKRNhmawoJF2p4MIjqGrjkggQDpgaGPSczJxhxH3mABzVAGjlRhDYzO405V6EZCgmDT4RybC1T8Mdi4+MLN21G4BMzJTJAZXGDe3cYSDqx9cBJSAaLgGx8MzqQCh+bUITNTAks+mzMyj/fot5NDjmDi7acER9dSTXVIcZUqkSIb2t+yvMdCe4+9NhuaIaGpC3aVzyF9YhDtVxJlS60XgXaPT4EqJEalx9ZdZOxpVhhhGpgSIqr+JkrnZ2JpE+8lzYnecvTmwVDcfSpsPBcCTgiDAiPFNzc7ErYcPMTquVIm50gYwpnD3C1WS4hUSC0+ZPqQESKNOPiHKhctWMCtKh8za29NzOXmHwNkvkioUA0c/qlFSHmZeegcLL32MbnVYrT3ZRcYi8/AKmglO5vgEjNX+N9mBKWJPQGhk9Qxow+TYQHdOAGLpX1oBzZ4lFBw4gChm6Q4B4Yiqa8OWSzeZIjxEcEYheQvTgkMJcvYNo2f0V6sVFhxMcxsnHrvC3tWXoASzL+HqXu8QAkNwPCj5xvTGMu2Qkp2Bmy+9hDGmOWr5pIu5krWNDa25Cdz8ZB43RgEjoEij9p7BsCPZegTBxi0A1m7+sHb1p6oEwJbnbTxDYOMVCmte947PwviNhxh74QZCs4pgGRAFPWM7eFc3IIThfc7CDmQw5HeOiWfn1zccGkKftkcrLdrdUuYePghvbUPSli3IYC4V09JJG+UGq9BIeOYUY/fNezj2ylsISM+HFfmx9+LAkaS08wgkn36wIRjWJBteF15tOLD2XsG0SeE0Gdo+ulEjJEyROCaFqnSdwIxPMIlcZSSpksiPAONK3Q2ld6lq6kDX0AR6hibRTeoZHEfX4Bg6+0bR3juCjgEe83oXz9e19CIsKQc2YYwtKEGbXfxQs3gALYdPw4j2ZrO1EyJoI6rOX0LS9AziB4fgzQDRxMUdm8xtaawd4CAhPdOM6LExFFDNM7fvgF92HvRpk7K7+zFx7x48mI+5RybDlXZQlnbK69vQ0TeMtu5B8jTMY/LF31J2Mh3oGhhFZz+vMw2oamxDJKNzkSwPAiOmQryx7HZIzcnCjQcERkkMVamnrxe2G8CEKKOWqClCBfOjivpmdriT1IX61i40d/Sisb0HjRz9Bh430as0yW9ea6Sb7egcYwxSSOlhrECbU7P3BPrWnsImKo2jFAoPpgV+FfXIO3kWRecuIWp4DEENjfAvr4F/ZS2COrqQxiw7n6lCOJM978R0ePoE0VZ5oXTLAkavrcE9pQB2VOGAmETUMwqurG9hoMiEk8a8lnw0EHzhsamjD01dfeqeutZuVDe1o6q+FfXkM0VTqDyoC/v7DBgNrj98oJMYNe3wDBhXWUaljSmta0UOk61yAlNS24iGzh6UMUr1CYlEBPOMOCaCfhJAccTSGJwd2L+CM+Mn0FDUgeqqNjhSlx1oiJ2T8uGUVkpb0YRIRp0W1vZMH6xhF8rRStcgemQMcWMTCKyqRzRHNLSnD66Mk+zpSk0ZTRvSk/hRgmMySuBCKfGgqjpSDRzZqWKCkFtSiUry1T0whLLqOmgKyhAQGY9I8hjFlCQiMQ31BElAaabXK69pQH1LBwFqYSoTCRd6KC0wJkjLIzAvP6BXIjDKK1GV1oFx9gxQc76RdLOufkEIiY6n+jCPWd6PgdFJGlxvZsjZSC8ohS3zjar6Jkauj3BC5mYK+xHvn4UwRs5hzGPsguIQzTQic3YHAoqqYU9JNKK7NGGAt5kGV3Zmmzm6woS5kBMDLWeCbMTczIDXN0l4wBTCyMwWZvbu8I1OR2JtK8JKquFIr+JMFy1zzYEM9xNSMjDIBLKruxcdTC28gsIQTx7jmTAmZuZgee8BzG9fxCwT2VSmML7BHFxG0uGiUvRSRswRBZj0XKoSgRkdF4khMJ30Sus2xoU3+kYnwoVu287VC3VNLUjL0Khcpqt3kN7IBXGpmUjnqMr68PZdu7GHDfuQGSs7N1jbeVBawuDHfMmcxnvbnRdx4xvfRiBV04CdNKKdMWIwZig2hQAYSo6z2QKuEfHscKSKlwwZOMo1Y0sHxh8ClB3znVicYwQtu62c4jPhIJ5Iloz9g5GZU4BEghPDiLipvQuWTm5KipMo1SJRtY1NKkkNi0lQG61lHd2Zgy6S5UwNeQaMRgeMpAQnT6Czu0vN4ClgfBiUUe9cGfq78eGa2gZk0/glJaUgneibWtsijFIUn5zB6NcD25f2II3n9RhvmLIjtkwivRNSYOXuDXN6hBjqfsbgBOwZaVo6enL03WDCzhrRjZoxeLRldG1Bj+GaKHFJMhM9Lyak7jBhomlKoM0pLZYOnmoBv3rnblTP7YQNQbGjS/YS+xMWhVgCYse6HDhQAVR1E6qrvEARQzVyYtRbXd/A32kwY5uGlFh7Ohi/ROaDFAIX32DGZM8DwzhmTCJf2pj254CRrRb2jCLtWaETQbKl23T0D6JOB6to14mS4UdGgpPYKMFzZIDkROlyYQTpwhH3IGiyBGvGUTFy8lQu0oEeyZZu3paluFFrF1+YiWTRlae29CGlfxIJXSOIqW5GdHGNmsexdA1gpiwuly6W7ldIQgNbTxpiZtDWTj40wIFwjaQHDQmHSwjbZ0LoSnKWOSVKUGBqBhzp3p3DIlmSV0VRikdn/1A4ehIYZXy1cUw6bYySmLFx6K2cOI4OAqMCPAKj9p9QFWSCyszOSVXmRglwJ3mQvJj9esSLESTJeYLkSX31iqfr5DVrT3+6XhsGelmomVpATGElO+dHgNk571A4BMXAmbmYOzsfUtuM4n2raLp5F013X0TVmfMoPLiKlAkmipnFcAhLYUAXBzufUBVHCag+8enIG5hGRFEtwfeAKfMe16g4LX8cLE8C4k1V92LpRWC8aeA9mUR68thLSt4nqmRqxefYzw8BQ4m5KcaXzkDvyPFjTOCel5ggBnaRNLK+yg6orFoXmeqr6JQZtSqF5Lxk3uuRqySatthMVcnrHsYn//HXaNyykxmtGyWHI04X60C74xybBA8aQf+qGoR1dCNuZApJTPjip+YRQUPvW1MP98wCODPkd6AHsvMOo6SEUKU8EFXZgNPf+h4aDp2gqvrD2Mxehf+S+StitKzyJaH1yFrxuV6aM6eyhx37J/101QGjvFK2Brce0V0zOtc7JHvRPgoMrb4ro0MbNx/qK3MkBleG5nbYTJJSSzSez5VGFvZqQ5EljZs1R9Y/MRPlDKxC0nNh7UyJoRpJxGxFNbJw9oYZ1cGEtsOENsXYzpvkAyOWJva0MY5yT4BSJ4lqrZUaBsGWvz2iU5DVPYSw/HIlSRLdmtq4qPY3iB1XPCmiwdfxKf0QHq0ZE4mkeARHfSiOycjOwhqBUdMOfwmMbJ1gYhYkD9HIERwLGkwzWxpDulJTKZVh1BpHcaWmHElzGlZLmQ+h2tiwE+ZOvoxWeb8jz/G3FbNdIUs3XnMNZPbrD1N21EyO1e8gmPK6HJu7yj0k3mPBeyxYWlI6rAiuJaNpI/JgSYDtxAhTmiwJnJmjAEo+yIuZPVVMeLZzJ0lJ1SGJxMmrQOKJ3GgTnwGjlZgMJpF3nryMySkCc/DoUbR3Epj1AE8BE6OiX5m/jdfko250Ch1btqOTkWf31u3ond+B3m2L6Nu+C707dqFvxxIGeDzIcpDl0MIuDDMTHt6+ROJvVS6xXOZ9Qryf1/u37STtUDRAGmQeNbSwk7So6pC6BqUuxiBSzwjbGt65hBGhHcs8t5t17tHWu20XBuZZ3xbWN7cd/bOkGRKP++jJ+rYsomVsBuEpGjqVULjQvjwPjLIxGi0wEwLMIdqYts5OtXyyDow7gyfJqCuHxtCxaw9q6b4aZS/v6CiaR0bQMjyKFgZUzYwNmnTHraR2WvMO5jhtvK9lhLnK2Ci6x5lb8Xz3OHMqPts+zPPDQ+jgcQePW4cG1P7cVtkvPDSM9iHWzyi2mSR7i5t5rYX3tQ3r9g5T/9W+4PFJtZ+4iTapaXAETcyJhBr6h1Dfx2eZGzXKeUbWLeS/ZXIajczPhvfsU6/vSCLpzhDiGTDGSNVk4K4AI6okG6A/BIxPMN1YEAoZPjdxZJr3H0LL8hI0be1IKihBIpO+hOx8xJPiZCOOxDgMsFLySpDKcDytpAIF3T2omp5Adn090otKkF5YgrT8QiakLcy52lBaVYsaHpdU1yCnpAyFlSyLK1BSVYfCihpUNDSjiOF9QUU18knxmlz1VkxyfhFSi8tRRN6KmTCm8Jl4tedFtnXkIi6/GHGsK0Y2CeUUkj/yykA0mc/kEdy6I/tQt7wDnTt2opx5lLNIDrVCVkfWgbnzeB2YE1Slrs4NG+PMgMuLUWbJ6ASKme4/+PKX8d4/f4DxK1cRnlukVimD41IQzCQsislgOKNL2RoWlpSJEFIcO3bpk3+FH37wO0wwRgphp8KS0hFK2rG8F8dPn8EiR21sepbpRDPP7cPS3oMqgu7s7UdSehYOrhxFH0d7dHJKRd6yVziE4UAoc5/AzHz0LO1FN5+LKm9gm1m8norAmBSEEJzE9m4k1DQhKj0fAbK3mIFjBAdi+Qufw3f//d+x/68/ieLZabTMzFJaQuHqHawDhl5JVOnxQy0wKo6RlMBWa2MkuIsg2inNbcjcuRN/85vf4KcAFj/2MQQSGM/QGOpmJPxSshAvOwdSNdo9cnKeIXp4aQUuf/qz+Omf/4w9jx/BJytX7ZGTqYzZbduxc2k3FhaXsI32qIDh+hLTCZnOnKO9qWloVTnMyolTmKNdKSir5L3LzIdYNwNJj7A41pePA7fvYc+1GwivaYZnRKKav3Vn0uodk4p0JpYiLRKjuEvASb4imJie/fGP8XP248Z3v4/EoX6kNzWpXaMiCOs2Jo3G9+4jnfFdOcWUgNm1Mr7GpsoLRVJk45mFhhH9obfexty7X0DBnr1wiUqAsy+jXwkCGQXLEosDk04pZYbPmV7MLSYRsR2daKBRTxkdgzsZc6a4OpCB2uZWNDFuSWKC194zgOz8EsQxEEtmShHMvCW/uAoN7Fh9Uyc6eoeYMY9Q5Vqp2v5sx49tBMOFGb0bw31XpiRuzMeEH4lgHb0YnbOUTYkygyftOdL7yDOBVKeqmzcw88V3UXf1CkJqKhFbXY0A1iPAbEgMgbn/5NEzYLr6+rQSQ2DsCUx4bgGSKOZ+KdmI5igmdPczgsxWSZsERR5B4XCT3dokj8Awpu90fXTvYuVld6VPTBJ8E1PhzczXg9fWd0w6ePjBjiQ5igM76+IdRB0nsQPiAV3YCWfZIcoOynVHAZ3kRsDdKQFuHAwPpiH+VJEAqrN3SDS8KRWePCftiFS5kx8h4VHO+1Da/BmdR1dXIWdyFJHlZQjJzUFcbS18yKPT8xJDVXpRgBFVUov6ChgGasYmKqMOpYFNbmhCRBpHMoH2gXoaSdWJpKuTzYmycC+GVl5oSC0qU6Irxi86Ta5rEMV7ZS4knHYljDZJ7ENILG0AR1hmBcOYOmjnS1hvchZiMvJoKGksGQ3HyI4nthHB84pot2Q5Npx8hMvCPJ+JSslETBqfS89RUyCxvD+G7cYwFYjPYqcpgTFU8WjeI8fCXwL7JA5DtunGUyNS6urhFZeo1sEkwFPGlwHei08eY3KCke8ziWEoTxtjS2DCJI2nV5Cl1iBmvKEswwmObFhMoyeoldd1aTCnDq2gf+celHcPILmoXDGqdigwq5XOR6SkE4B0BLMOAUaBwlwnnGDJ4n9KcSWG9h3CnrV7OPDSI4ycOIu02iYa6wyCqb03TAYmLh0RMjgEJpjSGEqg5XnhSZ0n5TS1YWz1GKZOncH4iZNq86NsoA6lVIQwP5LdqDJAgXw+PDULyUxHvGMTlJqqAE9WCTRZuC82RiRGLdGuS4wAw9Q9VFxxRZVad/GhwZM9JMEER3ZM1k7Nov/oMUxcu4apW7cwfuEieg+vooThf0x2kVrMD+T9/rQFIcIMxd6HxtcvPH6D/FmvprEDi9dv49DtNZx7+ADXX39Dve22+OAR0hrbqAJsl/cFkPzDEwhOCsI5wt5UEX/ao4BI7TUZuHIO1Pjxk2he3I06BoH1pCYadNnOmt3Ry7ri1a4GqVMmwINYV2J5Jbxi4pV6GxlrgUnJysS9lx/Sxsh2VlmJ7CcwdlqJsWFoH0xxiymrUJ5EbId3WCzCqB4FtO4S13Reu43KqzdQz4y45cmr6LpyDQ30IqlVjWoLiC/vl80BgVGJCiQP8RjimUietEOxBeVYuHId/exAc98AZlaPYvf16xiencMEQZ+8fBWxlEwvtu0bSk9EAy6v54TGxtPWBCvb4kPevENjkdncga5Dh5HZ2Yuo+ga07t2LUgZ0EYXFyGfQ2HHiNBIq6+mlaJ9oH90YuMrSbJz0j/UJMLKeJutKCpgHD+iuBRjZg/c8ME4eCKKeRjIokq3nYvg8yWAEdb+AUWnFwUOoYyzSf+cuZl97E10vvozOW3dQyJgjvb5V7VeR9W8xlvKuk7zPJIZV3Kk76xKwq2e3oox1JWRokFNehdmba1h+9Q1UtHUhnUFa+/Iy8hjBygh7Mgr3oDsOoAQGR8eqGUYPGnOPgAh4EfS2/QeQTqnQjEyiev9+7HjlMQYvXUQuI+2k6loUywtmTGlkgV8Mu3gvCS1iS8sJTILalrIOTCqBufs8MN39/RvA2Dq5M4iiraBRFU/iROMky6ECTFRlLfIX96JkYRm5W3aibM8RtJ8+j7y5LUjvHUQyAys/BlrircTj+Ei8ExpNlxigImpXulY3djIytwT+8qZIWBTKunsxfu4Sxf4cumgXgqPjEU6jGZGbrzrgRkBlcHxDKYERUfRY/urdJUkEo/JLkcdOyzxwFSV57t1P4fXf/hPOf+/bGH/yEG3Mu0JpL8uZe4XQ/sm7TDLd4E4PFlOiBUa2ragZPAEm80PAnFTA2NoTGEMC40hgMrIRWlAMJ3bOgRVJPiERbxSteR2ByZvdieS5HUhf3IOM6a0IZcxTxQQzlnGIG6VLwHRkg14B7BCZkDqkQ+IaJa5w4Kg50017hkWjdmYLeqiGRX0jaGawF5qcBne6ZRd/um8OjEw9OvN+ZVvCwlU44SgLZ25+6vXhhPoOuNJI52+Zx/1f/Rz/xSDue//5bxh/9QkD0Do4h0ainPme7NKUFVTZS+NKvqKLS+FJYCRuE4lRwCiJYeQrXmkdGBs7O/URCgWMBFwMviTmsHXyVOLmEx7NOCYaAcxZUpikVV24hvY3P4ZseiVfjph7agZjlwwV6Mlbb7J3z52d8mInZWeErC7IeQfvAAQxY7cjSN40fg3bdyKf0pbUyODv4AqiGIw5BYbAh67XiZInNkAmzdz9RAJD1UtdNi4+LBlWMGzII6D+GfloJKjbP/4OHv/ohzj57mcxdvsWShkgOkXGomDLNvjRO8qLXPISmJNfMCKKSwhMPOzJ0wYwOolRb9Eek3UleiVbWzsYEBgbRzcEyis5ecVqEsjKwY1MeCop8Ker86b9CWGME9XcjfiBCYS29iO4tRPu9BguDKjsKCm2zvKpEw/12p87JUN2TGg/f+LJ6z7QMCdKpeexcfdGOpNT2QnRdvU68sdnYOcXgKTeHsQ1tzPIC9Q+x1F28faHJzukfUvOC1byaRWvEDRzYEJyylXels5Mu+3cBeRvW0ByPUN+qmRCeyeSO3s4EAFqN5e5rSvsyFdYMdMbDoysaX/YxjzE2LgOmE5ZiSQwWolxQ0BmLvxzi2Hl5K1esZMFcpEciS4DGLh5MMAyESNG8NxpL5yZ37hHxKvX+bSvAHqobSEyQ+/q5acmumSm34pkYecOF6pbPd1pUmML7CkJqcy4M9q74BYZjfh2Zt9MMj2i4tQrhbJ5QI0yAXVnhyzYOZlwEpKJKHmDpWx6AQ70hDZUvZLeASQyB9Mzt4Uvw45iqpEXYx6ZuVMTbjbOsGN6EVZUSGCoSs8Bk6IkhsDIZPgxyZUEGDt7rcQ4uMKf0aR/ThEsCIZs/1DgsEK1B4ZeQQyiKzvnz+hSwn8J22VmTEbEUu5V97twNLwUODJKluyEpR07RLKwdWPHk1EwOUtvNotUeqPkzi7kzM7SqG+DW3SS9r1Ge9mvJxsOXeHAulwIsrzzaM5zimQ20dadcU8Xiud2IqVzCIH55YhkYJc+PIZs2j1vpjVmVk7adyVJApCdpy+dSxG8ohMU34YmppCNQ+Ku7zx4CSNjY9A7LrsdFDBaibFWwGiIdqGaJjSxtFPgmBMYUysHGFvaK9Wwc/ZmJ6lmsoBFBlXj1mzcWkon9TKpeDgH2ho5b2HjSnJTZG7twkGwgjVthxjscNqo8PIahBZVqHOGRpZqDUgGxILtmrM+qcuJqiez+2bWbE+RC4zMHGBo7kC1yUdEZRPC69sRxrAhsroeLvRqBkZWMLawU/yo+Wvyb8PBiigsoo2LU3t/JEeUlCB5HRgmv3rHJcAjMOvGV4AJkPeXGcXKYpcJRVI2E8qEsiMNaEx8EmwdnOHEEfRlPOFH9ZJRNbFw4H1OBJIlj03MCaC9i1oIk/NmVi6KTCyceL87kpjbSN36+mYk2ctnCn3SZkNLhNLIO1Etpa51kK0pPQ4uHCi1uZHnWI9IUnB4LJypZrZUOxkweZ3PnwGcnp5sKzGGDw24He2UoYmN2vIqE+IyyR9RVAxvhgZKYj4EzAMtMOolC5l2kFxJAeOMYOpmAG2MTIAbm9nCmJ3cROR9mbW2tLagpLQUx44fx/nzF3Dp0mVsmV9AGK2/sW5mXkAxNrMj46J+rEOAYkeEDE3tFZjXrt/E5MwcGmm4j6wcw9LufdjLWGTP3v3YubgLfmxLNjLK6qYxwZDdULZObmzDloBx5CklTpSucqpNcVkV8pmr5ReUoKOtEx0dXexTPypr6jDGwHOB9dU0tNDGuUDfxApWBP0ZMN4KGBMzUaUMHTCjAsxpHTA2GxLjl8JEkI2Z0cYIIEbspD5F34Wus6W1DTMzs1i7s4b5bdsUE+00nFE0ZCYWBNfMRi3EG5JkhNQWNT4vHRGxFwqPTkRXdz+GRycRw2SzgQlgS2s7jd4kRkfG0S07Hhj3bDLWqoE8b0apkc3NhrIRkr83m9rAmcCUERiZ8HImb3GJ6aipa0Ij04T65jZU1TWghxH00OgEahua1T4/WVuSzYryRq1rsKyCEBixMWYmChhx18MCjES+MlFlLcBsNlZiZ0V9Tm3poNvOhxEZMhYS20F9Fw/lzdEMj03ivR40gBRpgmlJty7GTZZYzJWho+rojsWmmNHGmNAgm1AKZSOyLGlYEXhjnjPlvebrL60rD0b1o4QY81ljOxKvm/DYRLbw0/ZIPbLZ0EyMM0ffkqNuTLWVtXAL8q+I7tyCbt5SiP0xd6Tk2tLO8PkgetWsxmYacFc1Y6mVGB0wTGiHRZXUor4OGPmymIM0xAadAkIQx8gxKCMHnsxJPOkpvCgV7pIUktyY4XowSfRi9uxB8qLL9laUoiWe8yZ4Pgz9ffisN7NgL9k+ymc8mBWLe3dn1uvOc0IevC7eyI3HbvRY7jFCKapuT6mf3s8rNpUuNlXd68F7PXiPp4682Ja4X+FJ8SX8UjK96XnE+3jqKFjmZ6pqCSjjIwLq6OFPYy9e6ZnEKK+klmhFlZgrCTAScsvuR/FGBsYWcGSc4RXBLJuhtVtwOFwoLWpBnIGbIwMuR0a3MrUppUx5SlS5QcyEZVrTmSmFCu83iHX4klg66Ui+1bBOso1EyElRKJwZwjszRHCmsZcNSY5+4XBgnQ6sy1FKtm/vE8iSKQx5EFLTrsIj21c8ypQs67KmhIiKiuTJ9KdMg27WASMB3p2XXtQCc0gW3Hp6mCsRCJEY6pwTGxCjJO5tk4kl9I3MaWOE6EEMLdSWD3W8WX6bqfVtdazWuXUk53XXtMf0PIqeu/YhMsEmHekxmdUzpJfisZaeHatr7IgiqoCU2utCwg/PfYQ2rhuZYTONr4QPtrRPkgtKEvlhYO4TGNqYgysraOvuhp29A/Q3bWZ0yGiTOmpOfRUdN6Dx05d9s3R3+qbWZEbIBnr0GOpYSkVW2lLuWS8V2ZLsoEeDqSX+FpKt8Ip096tndL/lOr2Pup/t69HLaUl3bPYcSd0fIql7ncin8K4j2XAgTsCMAabs1REbJ/mTnr6BVpU0GVh76R5tzAj09q9qgZF1JSs7B/WWSC2j0brxadSPzqB2eBJV8gHA4XHUD0+ob1g2DY2hhb9bWTYPjqCF1Cxf9JHjoRH1FSIpW+Q6Se5vFJKVQt7XsL5iODCIBt6r/T2qLZnvNA6Oq3aa2XbjCNscmYR8ErKJ/DSNzvKYJalxmOdIDYqmyN8U6vhMHfms4/MyBVvDdqtYar+sRhpif0anUTU2o14+rR6fQ3BCMuMicyRnpuP2i+vAHFtVwMgnDOSbk8WMK5qnt6CZCV0jG6kfnEDNwCiaxqbROjGDDlbYJTQxqz6tJJ9Y6ua1bilJPRNT6hNL7fJZpqFRHXBM7shgKzsun2BqJ6jyuaWe8Vn0qm/T8X7+FpJnu8anWDfrm5TPN7G+SZ6T48k59EyTpmZ1pZa6+btLiNc7Fc2ifXJGURt5bOXvZlIt+a5i/fV033VjU2jgtRqC5hsexQDPVBnftXVgDjJQUzuq6JVkfcU/PEa99h9IS59ZWI7Cyjr0cgSimXNEpWgQJxNWSRpEJcuqQRbSC8qRxvwkTlYBGS3HpucgSVOgtpYOsXOz23agh0Ak8rmO/hFUNrUjXl4k5bNpvF9TUKHqimbeJSsG4Ww7TEcyqa4m1hVpz0UkrVMmImRXpqxGJGdsHG+cW19dUJSB6PJ6dJ44j+ELVxFb1aS2wgbFJcKXTkX6bWTMAE+TqZMY2phDJ04QmM6NyFfWduQrG+IdSmqbsP/IKtbu07dzdPcdPIo9+4/g8OpJHOD5ma0LmGPHV46fwpFjx7GbkWsxA67SqnpMb9mq9v4eOLSKkooaBEfEorWjD8dOnsbFy1exbecSBhjMDVJNFpf2qc8w9XL0QuiSZVOBdnf6RylavZUmc70bxKxa3kT5S4rTEu/xCI1DytR2fOOf/4Qf/ed/of7ISbiGRMAtiF7WX7cNRLJrSsyt+/cwNEKJOXRS9uB1wo7uepOBoZr/sGO2LJt/ojgylbWNqGFkKp1s7ehFQ0un+mTSzNxW7N67j+jSFjA73jK/HSdPn0N2QRlCmKtU1Tags3uAkWkDAsiozOi1yH5bJng9A2Mo5ggmpuWghGUvVXWMKiWbmAMiEpnLyIKbrHLS/X6I5HyAOpaNB+ukPS+rkc8TrwnxumyhD6nvwMPv/gDv/PTnyJqcV/2zpeu2YdwmXkkW3ASY2wLMsALmBFoJjC2BEa8kL4haSMbMzNqCEahEtBKRypSgNSNINddC8mBskJlTiKCwGIba7vDwDmEna9TElCV/2zp5qUkgazUP46HOyQyepaNE1t6sk55P5mcc5TtYjFR5bOnkQ4/ooz2niOeeI4lm1bFubkfI0p7nFa9sQ+ZudGRBXi3pWWXeRq5ZEQi39Dx4Us2tCa65LaNk8mTGCHvTZkM1H5OclU6v9KIWmIMnjqG1i8DIEi1FSj6M4y/v8jAC9eboeYUzciTJO0xC8iqLV6j2lRbfiCT4kfwjk0lSJiKAEWdAdAr8GZ3Km3LyfqVMkPvHparXef2pKgFCcWkIiE+DH0u/uHT4xqTzejrvI8WmqbfXhA8/lr6sz1eO1bPp6lmpT3td2uKxIvIhv2kf/ciHn7yQxj6ofsibJlRHeX/AW9aZyKsv75EP/5hayeuFRvRK4q5fxLACRrc/xsbKmjmNLRILy5At382saUFGNamKVEmqkI/iNOmoUf3O4jVNdRty6tqRU9uhKJcim9fYjYIW+SjoEEq7RlAqX23tG6N3m1AutXGErpWeqIYeqpIGuaKPxHuK2vuQ09SJnAbW19CBbJYalhrWqVHnOtXXYXMaedzI6+RTU9cGTS3LGpY1rRtldi2Pq7WUxX5kSUl+Fc9yD39nklJL6pjzudO+blbTDrcFGLEx68DIlnl5w03eEQxkbhLAfEiRkgAtyUKVrDHJHnxfSkwAcxKZ+9i4l7+llGXQUFmblq8Wycae7Hx6rAIkZRcimaKcQK+UnFWovv4Ty3uiMzQss+mV5EV0eovoeLVQJ58XkFKtbDI3k/UqT6Yl8pKn/F4n4cuPEqAlOaflw5/8yGKdbBORBT9Z2ZRrqiQFiFbwvImppVZiCIySGGV8RZU6OwiMdonWg3mJD8VLrL1YfbHwvrTuAohspS/ppCQw8w6guMoqpSx/bngAHfnx+SCKuuw/CUpIQ3A8xVwYTc9CSkcXCsYnEdfQBO8EefE9XtUVxCRQSDqqllN13kVWNeVDYj4EI5eGPL+uRXVOdjT4hImHkhVJnbcKi2JJnnheAJFFvuisAhR39SGhqBxuARGqH+teTnksnjM2tVDApIgqPaCNGRmG2lHV0t6mc9ey1SxIrfzJUqbM7cryqotPCPzYuRHGPIs3b2PfPSZaq0cRQKlw5TWPgEgdRSiSxmUV0UfehCdIXlFxCK6tRfL4GMq37kT1zFYktLYgZaAPMYy05T0CX7pzGW15VjokH9zyIA/OrD8kIR1b9q3g+PV7OHPnZcwePsloNVPNP7srPrXbRDaISamsPWVTLZfv3seutTUs338RJVRdecPNhQmllMKzfGxQ3LUWGO3yidZd64CxJTAGm42VW5VX5GQTjhPdnBOzT1ko0/T1Yf/LTzB/+hKmT11US6rlDOBkaUUWxJy9ZGEsUJEAqfbFBIarKQPvinLE93Qhq60X0YU1iMgvg59IUlomYhobED84qKYbZK1agFbtsk4ndk5cr3yO+8bTt7B09AT2vnAJZz/1BRQzNbCml1ObhpTb5jM6cqA3dKOkjV+8gp2PX0XN8j4MnTqPva+9Ad/EFLUyIPcL3w6y4EZNkQ8di8TcfWkdGNqYdWA2Mbu2dfZQGacshdgxw5ZFfnmnoGr7dgytnsX0/uMYW1rB9I27qFnYqSadZDVPlj5tWQrJIpmsXspCnV9NPdK3bUOYphCJ4wuoeuUN1H/ir1D9+DESCayTXyiSe3uRxHRBVihlfkTalTplfUqmC0rlAz2Hj6L14EGMXr2OhUdvoXJhD+w52jIwtrLAR34Vz64MB5gYBlKFBs6cQx0DzOTeTqQzeJx++BiBOfl8Rvb7Ml5jG7L+JYHtBjAPXtKpkgDTQWAkwKM/l6lNWRjTfsKRJLEMY4K46lpMX7yuPmfdMLnARs8jv3dAvTqjYhyS9v8KkFE26kBwHRhuBzYxaMsrQtQAE7dPfQnzf/dTnPjRzzDznR+i9tNfQNKWBQRIqtHTC8dI+YanvEAhMRNJYhKWMZX1GDj1Amp3H0LnyQsYvPESMntG1Jy0ipEUaV9gVetQdq6MVQLRvLgHXQSzanEXKnftxvCN21Rb+ZiHdkVSsmtZopHP/a8Dc+8hgRklMCvHj6Gls12tXesbbGalzrrGJABicMcHJTWXedIKJmrTF69hiiJazgTNmojL0omWoWeMSfRsSxfoTk/jnpsPx/Ak5Nx/DUs/+Rne++Of8MG//we+/6d/xe73f4rCV9+EL1UrtqsbEa1taknEwk47vSl8yAKbDQOyXGbQI1fXMHT9Lkq37oIDJUmWbNZ51JIca0kmzL2TstF++BjGL13E5OUriCypUQGdALNxv0yt6AI8WVfakJgVFeDRK9nbaSNfGyeFuKzpyFqSdj3JkZbbhqWDehXGzsufDdvznLVa3pC5UyHVmKw1iZQRGK+sLHgk0BuVtaDo01/HW3/4I/4d/4l//Y//gPx94rcfIOeNt+FT34C4plaK+whM2SFZR5LBEB7kQ6eyMiA8CEAiCaa8Lt98kBWEdR6fJ+FJllmMTe1gzghaXu6wdvFXv03MtRPr2nvZR5mMYyr0l8BQYtokV3Kwh76+geq8ekDXgCx8WRFZmTS2CQiBHV2iHdN0u4BQ2JNRCbufNaQlWVqVeWMrL1+Yu3siuLIdRX/9Vdz+zQdqN8L638N//BU0j1+BfzVTiaQ0eFDCpH1ZWVBts16RGHkL39o7ALa0W/a+7KSnH9v2V+tIAqQaHF3b6jmSrTPtoxANuYM/+WUKY8sBFZ5FUgRUbRv2BGbzxgyeSgkEmFUCI0mkPYFRM1lq5VFbuSx4WdOY5dN41l44jZJX76P802+i8jNvofrJQ/TceQn5wxNKjWTtZ/05WRmQDpkwx3KRr6IyR8k5fQt93/0pXv75b/DVX/8eb/78V+j/yteReekKvNJz4JKaAStmvALK+lqSFY1wMhPX0gMrqLv/EhqfvoaW115H6bkLKFpYQkRemQJDpGO9bSNKkrxyXDq/CwWHD6PkzlXUvvEENY/voXTlMPK3LsIjMUvVb0JQTNlfMSEKGLrrtfv3MTisgDmqXuRycNICY2whKqP9Xq+xfMjC1w9TX/wUTnCsj3CUD5OkPEm6Seq7cUe7rGosc6nPjR7VwISSE9bYiLCSEvU1j9yL91Dz2W+g8/PfRPk7n0PyyXMIKK9CSGE5vEvLYUrvIvPMJhZ2zNus4UyXP/axj2P/n//E9oGjpNOkbT/5MYbe+jiypraqVwllHUtsigykgaE5ossrcfD97+My771Kuka6SDr2nW+i48oaPDTF2oVBtmNiafMhYG4TGJVErhxbRQdjDAcn7SdRjM1k9U8HjDzo4IKo+loULi6icNcyCnbtQuHSbpTs3Y/8xSV45pfAgEDIyqM8Jwxq15edIG+fOSckUyLSGRv5wks2K9Y1I2xwHAHMfbzSshAkW2D7B+FZVsYRlEV37TKqIW2avIyaSjdeceI0yk+/gLJTZ1FBypieQ1xbN7z5rDFHXbs6SQkgMAKofWAocudm0X7yFDqOk06fQ/M5erXFvYhgfmXCTNvQVJ4Rm2OjBMLU1BRptIm3X9Rl10cIjLxF6+Ak31vYRPSt2RAbE+NFkiUGO8YWRkqXxUPJwhrtCktj6rB/STlytmyFR24JTOw9+YzDhp2QemTF0FCWKoIZjfoxRnFyVVtD5PtQfqlp8KWk2Kdnqk8WyPq3MZ+Vl7Bkcc+RMY4DI1sHti8xkeyikqkMiZkkXpGdV7J9zMhC20lZIlZTIAHhapVDFgJtZP2INsnOl8FcYJTK3AOZW8nysVrlNLeG3qZnwNxaV6XDR49Cvs7q4CTfbxJgbNgAmaN4mtFO9G9bxKE795BWUb/hqWQHggndamBZDXZ94rN4/MvfY9vrb8EpLk27NEsmReLU0ix/G4oE2DrCOjgULukZ8C0rh0dOLuxj4mDs5qnexd5MVRRpkd0UIi1iJ9p2LmNs9RS8mSo8M5Zi+xxR0N6Ngw8foGVmC+TbVIb0kPLFj7CsPMzff4iuvcfgytTAnKAJCBZ8zsMvHMOHT2Hx0m0kZuTBQJ6hIPy3wBwSienrhuO6xPBmQV5EzZRSsffmGg3mj1E3N6/WZAyMLGhPLKFnaIHUsXFc+OkHePuP1OHvfh8+OcXq3WpxiQKMvDstQAupY+k4R9HU3QdG9i4wlHtkSUMxyOdELSilspgvuyxvf+KT+Mw3v4UwBoD6my2VmgiAevqm6F3ei5fffw9Tx0+oSFbxxmvyr0k+/Q8/x/GnH6PnjFDvRQrQBoaWavFt59O3cf7zX0NaQaVaeBOJkf/hpPVKWbhJYAaGhqB38OgKOpTEiI3RZyWyiG+rbIYhKSg5CxVDo/CMiqdaWCuJkOsGBMaOuc4U86fL3/4eihmym1PsRQ20EiML+OwwG1YkwMjz7MBmIys1wqoNGQSRLIlVxE4QGHVs7ay+BFva1M6Oe7PjAqCubSNLNclUQ48o3xSXD+qoweQ1R+Z2td1DyK1rhRHVWfpjTKmR5yTWytDN8Ui0rH1nksaXwKzHMQqYYQFmdUV9ndXekV5JZ2NE14VBxSSZllKAkC/2SKdkV4Oy6HbucJA15+wCWDIjF/WSFEFrCHUk9fCciPkmjpoBpU22lijweH7dYMs9AqaAo9y1rqNC0qZ87EtIpEnUTa7Ls2LH1lV3/bdyxcrmUFKVNGoHVHhZDwXEwEubco8CRpdd37h3T6tKB1eOKFVSwGzEMdpASeyJMCuqIR/ZCUnOUHMk5ryu1XkyIrZEOkWm1Of4+ZyJeCQeK7dNkkDNhUY8lBm1fChD5lolwt64LrbjOVo/rw0Z7FSyF0YPFJGZq3Z9ykivX5coWdahN56XY+UVCTZ5l7fyHfxD4OgfqnY6CCha3rX8m1rZqQBPgEnOyMS1O3fplSgx+47If8vpVf87UT6BJKIlSCoPoUM2Iq8ErUdOYuv9R+g/dQGRDKyMzLSSoEZaR7K/TZ0TMGX0BTSOlGxXLx4bw9ytGxg8dUa9jS/gq3BAV8fzJM8pt00AHH0C0LBzEZN3XsTM/ceo3bEM58AwZW9Ue4pPPqcjdcw65D8FutDzJbQws27tRFxVPbzjU5VEayWKAAmfFARJhZTEZGTgytodSgyB2XvoILoG+uDgoI1jlLvmgyKSYhit6Q5bj5/GxN1HWHj1HYw/fhsVe1eVG1XMrTP1XMc2iOcFsMS6BvTfuIiph2vY8vJ91O8/oD6bJLZkXdXW45B1kvZF6tJa29Fz5RpiJrcgYmQLWuhRckcmsElsFIFTqvMREmNrTimLbWhD2cw8Kghs2dxWaLr6mDdR4tSA6NqjWVgHRgK8S2trWlXavX8fujeAofGVb8XxQWlA7IKIYREDo4V3Po+Vv/8tDv7te9DsPgavlGz1cSzFDO2QlknaBfWslsRYSs4U3dyEHY9fwp633sDhj72Bij2LCEhK196ne3b9xXHts+wcz0scopmYRtz4LLLHZ1A4sw3J88vI3rYEM1dPNTDrYDxPm2gPPdNyEFPThLKpLYgfm0Df1ZtIqW+BVxKlhmokBlnspDgFAUZm8FKzNLh4+zYGRygxu3Yvq38jZO+oBWazTAxT/MVAKuTpCuMGRtF17yn2f+UHmHjlHSRNL9EVRtEoWmzct06y1UzKZ57IFoH5hag4sAczHI3eyy9As2UGbsGRuvt09+ruV59OIUhqyxoZD2aslL28H4HV9QitrEHevhVoZhewmSNuZMJ7COC6p1T7BUnyJTPb4CiEVDeioG8QxfSqdfM7kNrdA6fIGFWvCh9kMOT/UdK2GhnJBmgNLt28qZWYhcWdOq+k/dLYZhPGKeudJIkXsItOQObSfow8fguZ2/fBOSmHlYrI0tqr+xhfbJD2Odkrp7wK3bNs+YpqbMXgxSuoWlqCr4TyVDORyHVgDMmgkTnduHgS3TkDPmvO6DqubwTpBCd1YRdSR6fgFBGrpOJ5PlWbirQ86bPjNrFJiG5sQWR2HsIZYQcyhzKyc9aCIrwRGNGQdWDSs7Jx4QbtoGTXM/PzjGN64PAcMNqGtB0VjyRGzjY4Wn00yzooCobUTQm0VMDFOEFLz4OjPa8YJUDmNHLyjqNsAZP/TiG2ZzNHWzqxfu9HSYCSUra8yk4pt8RMuCdrYMG0QJ9tP8+j9pn1Yy2g4vblP/0Yc1BkX48h8zYTqqZ8oVWBL8+LdFJD1oHJys3D+evXMSS7HfpHx2hjBtS/QxRgNhEYAz4klcu3LqPjk9Ha1oWe7gE0NbehML8Y3e09iGCYLlGl3CckzBmYME7RkfrNmEXK0opqdLCOnKwClBRWoLOtF6lp2eo+aeP559ZJdnEJKPG0CQm0R+VldaisrEdLSxdi4tPYtul/+5zsAJMvf8QlpqGN3qi0tAK58i8ecwpQVlaF9o5eSqMt2+X9AiT7q4AxNkZ+STHOXb2C4Ykx6FU3NGJoahKuHu4ERo8PmKkH1oHxDw5HbkEJiorLUUC3nZmeTSar1QdE9Tab/AVjz5M8Lx/8TM3UoLqmAampGmSk52BibAal5dXqO53/EzBy3pCqJf92OT0rF1W0Fzm5xdCwk/JVIen8f/eckGxd8w0MQWV1HZqb21FX34xy+a9g+SXqG54yWBvtGsvm600wMTFFRW0tDhw/hkn5mHplTQ1mdu5AcHi4FhhDaVCA0TFH5pPTNdAQ8fz8UsVYbEKq+lamPo3v8wx9lIRB+QdU8o2rTE0OO1aIbE0+sqjzkbEJqn59MiZSuontPP+sPq8JqBl8rrKqFsUlFdBo8pBGXpzdvKBv8N9LzDrpGRgjIjoe7e29qKluQnVlIypoyNXEFKVR3acGxkz129LKGu19fRianMSW+a3Qa2hqweS2bUjLzlH/21XESj4sKnGCMC6UkJKOxpZ2tfO6hOIoZE6Xp8+cZV2VtPQR5jabwsbBBYlJaSilxLU0tKJJ/p9junz5LIbAycdujJXkbWwmlI/0qA/1yGZEM6pNMto6e1FYUo68vCKlGu6ePuzMZgW8qISoz1+2bYIwGunMzDy4ufvC1ysYifHpytg/D4z+ZkMFjIePDyYISFllJaopOXoapv8F5eUob2yClY2dukl/szEbY0d1KiW7HcVLqN2VwrShjLIwIGBo7/kQOAKqEA2veAe1qZCBnB5HS8/SFnoMw/WZSRswRDewcVSkz2BOn+UmAm5AY60lPiPPsh49C6lHiPWyDgNrxis0sPr0LtKW+oSuDpSNThMAxa/sOmUfhP9n91CdZOcn7aqBgQGSmA500NamZWbA09cPes4ubvANCEBWUTH8QyPVP+oVcPQMjPigqIq2wwKUiLuWeE6RMKQFYeOYQBhIB0wt4BqegIk9x3Hi+n0cu3YXx2/cx9GbOrrxIo7fJN3S0rHb93GcdIJ06pbQPZy6eZflXZy8fQ8n+fsEfx+/ucZ61tT5vWcvwi00CnrSUbYp3xXW8qUlrXpqjyU+27gmmiBSqq/91qeNgyMy8osQFZ8IHz/5wis9tDlR9/TyJkryBlkoAySODlFU4NAo6RsYKgnSkhyvk9H/QLzP0EhN/kjC1zY8g4U9B7F1aR9pP7YsH9DS7gPYStq25wDmSdv2HuR9BxRt3yu0f6PUnt+PbfKl6N37SIzE+XtifjucPL1UW/qG6zw+z4uhWl2V4/VS0aZnHzuVRUZ7F0+4efvDzz8ALu6eagu/noTk8pqNh5cPLEWMmeLLN3RlrWX94f8/kkw1mNLrWbDP4kjs7J3h5uHJrJ35kx09tLGaw7BV7/s4OLrAzJJpAG+WN9PkH/bL/5u3dXaDtb2sL8l7QzpycFIiKKAqciQxFrIhybGNk/zWkbMz7BS5kFw/RPYu8h7S80Q+SPYkR/5eJwfe6+DE86zHnnUqkmPWqYjt2iliO466Y/JoyxxQ/gu6kPyXYkdXN0qHn3rD1907mBG/G2M4Evso+ZO8FGbh5Ct2TfuWmJGJnfpAqKOLO8XJCwHhEUrvmnr7MbawgNnlJczt2YMt+0nMe+YP7MU8j+cP7MO2AxTzgywP8pwqSYf2YeEQ1eHwfuw4fBCLRw6QWKpjoUOKdulIe+4gdq1oSXsvnyHt4jNCi6xv15H9WFLneKyjRba1yLZ3kqcd5G37/t1Y2LdMWqKaLlJtFzG3vAPTO7dhZHYaDR2dyGL+FsAYzYnJqD0jZAkmDdS/fpQPgwXIjnR5a0yWPGUa0I4S4wB3nwAkMl6opStv6epEc2cneoeGMDw1pfz88OQEo8MJjPB4hMcjE9pSnVc0zutCY6oclXumxkkTGGUwOUYan5nB+OysogmhuRmWOpJrpDG2NzpN4v3SltQ9Isfqt6591j/EdobGRzE0NorBsRFtOT5C4jleHyA//eNj6JUPlQ6NoJtJZWltEyLiUynR7trUhCZFVkLkHUtrt0D8X53KU4+I07I7AAAAAElFTkSuQmCC;" vertex="1" parent="1">
          <mxGeometry x="125.00999999999999" y="477.91" width="79.4" height="141.79" as="geometry" />
        </mxCell>
        <mxCell id="8LlulcfHmFQd0nab0qFh-3" value="" style="shape=image;verticalLabelPosition=bottom;labelBackgroundColor=default;verticalAlign=top;aspect=fixed;imageAspect=0;image=data:image/png,iVBORw0KGgoAAAANSUhEUgAAAMIAAAB7CAYAAAAmJF+MAAAAAXNSR0IArs4c6QAAAARnQU1BAACxjwv8YQUAAAAJcEhZcwAAFxEAABcRAcom8z8AAB37SURBVHhe7V0HmJ1llY7rru7q6q672FEsu66KYAEFpZdQQxBEIS4K2BZFfVDXAoJZsFE3ASUKyCYgCYSEFFp6771MJnUyM5lMy2Qm02+be+/Z7/3nO8nJl3PLTGbm/nfme5/nfZLcueX/z3nf/5zzff+dDPPw8PDw8PDw8PDw8PDw8AgnXuc5JOnhQAuS5+DnkIMWBE/PXBx00E7S0zMXix7aSfWGf+M5KKjltjcsOmgn0RNqwQRf71lU1HIIajnPh0UD7eCzUQsSUwss+LeeRUEtd6CWa00b+TC00A5WoxsILWCgFmDw7zxDTTdfWm6ZUgeaVrIxNNAOLhvlSbsBcYPH1AINvsEzlHTzpOVUkvMvtcHUNKSx4NAOSqM8uUzidwPI1IINvtEzlNRypeUVlPmXupB60fTksmDQDkajPCFN/CAHRQsgqAX77z1DTS1nbl57aghQ05jkgEM7CJd88JoBZBA4MG7gZGD/IQPf5BkqajkCNYP01hCa1pgDBu3DNWYygTxp1wCu8N0gv9nhP3qGkpwfN3+ZTNEbQ2iak+x3aB/qMpcJpAGk8JlS9Bzctwi+1eE/eYaCnA+Zq2wGkcaQpshliHzM0O/QPlRSmkCehDSANAELn8UvA8eil8H+Z8u35eC/ePYrtZiDnB+ZM9cgmjGkIVgjmiF6YgawX6B9kKRmAj4RFr9rAA5GNuEjwJyAf7U8IQvf7jkg1GLP+XENIw0ijSFNkcsQvTFDn0P7EEnNBGwENgFO0DWBawBN+AgwB/8dlu+0fFcGvtuzX6jFGuR8cH5cs0iDsDHYFGyI/jBDn0P7EKZmAj5waYJ8DSDFz6JHsDkZ77F8r+WJCt/n2S/UYg1yLpAX1zSuQdgYuQwRSjNoHwBKE7hGyGYCNkA28Uvhs+A5Ie83PEnwA4Yf7CE/5KlSi5VGxJzJeUBepGHYHGwQaQw2BPLPhshkBjZEQc2gvTHYUxPIKsAVQBpAXvml8Fn0LHYk68OC/2b474Yf6SH/w1OlFiuNiDmI+IPIhTSTNAmbg42hGYIrBFeHTK2SZoZcRgCPC9obgn1lAq4ACAxf+Vn8rvCl4JGwj1p+zPDjhif3gJ/wzEotZi4RcxDxRx5cI7FJ2CDSFK4huGXi6qCZgY3gmiFfI4C9hvZmoDRCvibgWQAni5OWLRAbAIFi8bPwWfRS8EjWKYanWn7S8FMKP+3ZJ9RiCyLuIHKAfEgjsUnYHGwK5Fcaglsmrg5uq5RtZmDt9XtV0N4MdI3ADsUBZjIBzwNsAq4CKJlcARAoFr8UPoueBY/kfMbwNMPTLT9r+TmHZ3geF914MjneHH/kAjlBblxzII9cNZBfNgTyjvxzdeiJGVwj5GOGXkN7M9cEbARZDXDQOHjNBG4VgAG4ArABWPwIKIuexY4kIEFnGn7e8AuWZ1meLXiOZ59SxpbjjdgjDyBywiZxjYF8Iq9cJWAI5N2tDtwqaWbQ5gVphgEzgjRBJiPgYHHQqAY8E8hKwCbA1QBXBVwdUDpxxWAD4KrP4kdgpegRfCTlXMPzDM83vEDwQsuLPPuFHF+ON+KPPCAfbBY2B1cU5BH5RF5RKdgQyDvyj4shVwc2g6wM0BH0hAssm4GNwGYomBEymYBbIhw8V4NMJuAqgNKJEoorBxsAQUQwWfhS9EjIxYbDDS8xvNTwMsHLLa/w7DNyTEGOM+KO+CMPyAcbhc2BvCF/bAo2BPKMfLMZoAPZKkEnsk3iqsBmyFUVXN0yew33jVwjSBNkaol4dQg9YCYToAqghKKc4gqCwOHKgquMFD6LnkV+peEIw6sMRxpeLfjFDLzGMy9qsZPxRbxBxB45QC7YJGwO5A2mQB6RT+SVKwSqA/KO/EMH0gzQCc8MvLTqtkgDZgTtjXJVg0wtEUodBiL0gkeZgDw8DKweoAu0SdAJ9OLOC7JF0qoCtNknZtBeKJmPEdxqwC0RSh6vDB2uBDYOHkMcVg88M2CAli2SVhXYDJmMcFxm0F7EZBOwEaQJuC1yq4HbEmGVACeL3jBoh2wcPIY4rB6gC6wmuS1ST6tCQYyAg8lVDbglwklidQiDEnrE020cPIY4rB6gC+iDW6RcVUGbFQbMCJmqgTQCzwZaNcDSGZbQMBifYeMQWiRTRAdb01TXnKbWiH3Qo89h9QBdcIsEvWSrCmyEbFVB0zGYE9qLQHaYZgQcjNsWabMBXA638woRVg/OsnEIHWqb0jRhQRfd/pc43fxIjL42JkbffixG905O0LLSJKWMQcKCWDJGz5dOoWk7Z1JHotM+WlyweoAu3BYJ3YRbFfJtjzQtgzmhvQjMVg20tkiuFMlqALdjDRnLZ1hKO9fGIVSYvTFJX304Smf/IkIX/ypC194Xpa88EKURv47SOXfgsSj9enKcGkylCANaYi10yaSr6NoXR1F95wH7aHHBaAGbpqgK0IdWFXiTjdsjNkK29kjTMpgT2ovAfI2gDclYAcBKAM8Gh6uB4fk2DqHB9NVJumR0hC68K0J3T4zTopIkHWhJU1skTbtqUvTXRV103f0x+sYfYlRtqkYY0BprpREvfIlumHETHehssI8WF6wecGtGpllBtkfunAAdhsYI2doilDm4nGcDuB+7jhfaOIQCmytSdNVvosEVf8KCBHUl7Q8c7DaGqDoYDhMAMMJVL1xHo2bcXMxGgB6gC+w8QyfZ2iPojI3A7ZFrhGxmyAntRWA2I8j5QLZFckjGvgGGZLgdrse9KNiCH27jUHCg5//ls/GgHfr91Lh9tDgwSIyAHWjoAm0z2iPoBbqBfjQjuHNCQY2AasBGkPNBtrYI95xgux33pFxq41Bw7K5J0zW/j9LVv4vS9qreT8KplmZqm/4cNT18LzU9dA+1TX6Gkg319qdHI9mykhJld1C89FuU2PUj87yZ9idHI9FFNH9LksbN6qJxryVo1a4UVRxI09SVSVq7m6g9oRshVrKRmv88hhrvu5uanxhL8V2l9ifhg9UDdMFDM7dH0A8uqLzTzHOCNjAX1AhyUJbzgVwt4g00lD2UP9x7gnuHrrBxKDhmb0rS+b+M0G2Px9SWqK45TZUNadpnWqLDxL8NY4nu58RKNlHN10dS+anvob0ff7vhO6j8E++i6usupsjKxd1PAtJdxgB3Uue8N1DHS8Oo42VD82fnrGEU33IdpRNN9olEDWY+udNUqgvuitIXfh4JePk9Ufr2H2N07h1maH+eKJpso5FTrBGi3a9teeYJ2nf+KbT3oyeYY3g37f3YCbRv+GnUPmtG8POwweoBuuChmdsj6AcXVF5GzTUwu0bQzJAT7guY+RhBDsqZ5gNeLQraIsMrbRwKjumruoK26KcT9LboF8/E6OrfRukrD3bzekOsLN1g/txSY55wsIaqvzycyk95N9X/4CbqnP8adS6ZRw0//x6Vf+pEqrr88xQv2xW8V9e+sdTxqhH+3NeZq7SpBI2zqavyAYosPiEwRaxklHlWkmKmEtw1MU5nGfF/90+xYDVr7Z4k3fdigi79n6gZ6qP00LSjjXAwHaHEonlU+dkPUeXZJ1Pz42MotnUjtc2cTFWXfs6Y49Tg32GD1QN0Idsj6Ab6yWdgZiPIqjAgRsg1KMvdZJwQzwdYHcAdpbiL9Cobh4Jj1oYknXdnhH7wRCzYRHPx2xfidPPYGP3XuCO81rRSGKzXVptqMGEslZ/8Tqr/3o2Uam+zrzIX/3icDtzx/aA6NN53r3mgjaLLTqSO14YZQ4yxz+pGqnkJdS54C3XOfh1RZCkt3Ul00a8iwT4G9jUYKfNXzDHnmuOVRvjqK9+iAy01dOiH3wiqUtu0SfYVFJiy+toLqOzDb6WD9/zUPhoeWD1AF9AH2iPoBXMCllHlwMxGkAPzgBiBTaAZQQ7K0gju/gFOiJdNeT7A7bojbRwKDswFuOJjz2BP7bFOQPsTMcUiatnYlqZbx8XpknsTVLovSa0/M+L75Hup/dUX7SuOILJiEVWYK3TtN2+krrpZpiUaRpHlHzQtUKN9xhHENo8MqgLVP0SPzSHTCkXpyTm29xJYsytJw0dH6AHzcYeNMPtWqt2zkeouPZP2X/F5044todZJTwWtWfln3k9VI84K5pbolg32XcIDqwd3TmAjZBuYQ2sEuZHGd5pi8MF8gEEZy2S4Tx33rn/RxqHgwFzw0/Hdq0ZjXz5WeC5KKlN0menVb34sSY1NcWr6wX9SxWknGYEvtM84gti2zVR51seo9uvXm9ngmcAI0dWfonTy2F3g+PZvUecrxghVo+nhl4nO+kWUXlhueiQH2/al6Mp7o3T/1KONUFO6muqGmxbo4tOoyrDiMydR7U1XU+vEp6jrQJ19dfhgtIDvl0AX0Ad0wgMzrxzxwMxGkANzqIzAK0a8dCpXjNRB2fAaG4dQAKsxEPdlpv+etvJY8TGwwfajv5je3ZjmiXndk/XBX/2Y9p78Djr02IPBvyVanxsftCr1P/wupTpKKbLg9aYFejOl2jbbZ1ikohRddWowP9ChZ2jicmMEMx/cO/nYuWXmmq5guH9QtkavfYdqa3bSwVEjjCk/QPW33UjR9avNbH7E2OmEPgMVGkYL+GIPdMFGgF6gG9cI2sqRZgRpBlfTOeG+AOwrI/BGGowQDMqG19o4hAZPL0wEu8qXmkH04RkJ2lSeorZomuLGF/XNaZq3OUnf+3MsqBy3mT9xQx7QuXhu0P5UDT8tGJQZkdVLaf/Ic0zbdCK1T5scPBbbdEWwShRbfwGlO3cHj2GlKL7ztsAEkSXvMbNyNZU3EF13vzHmPRF60RgTy6hAqakGt/whRheY4zxqRph5CzV0tVHHn8y8YmaSulu/Sl126RYGaPnrE1R3y7UUXbsieCxMsHqQK0dsBLmECl0V3AjSBPjQnhiBd5TlihG+3vclG4dQAa3IF38XDa7GuL/oJjMkf9MIb9RDUbrw7gidY0xw+19iVHFAzBLpNDWN+U2wQlR55keo7ptfprpvX0+VZ388WElqGP1jSseiwVNT7VvMLHxSMAt0LnyLEeYZFFn2PuowLVHnvDdSsr7bMMDMNd23fFx0dzQw4E/+L0YjzSyDyoVl1G4jtNIlz42ga6aOogOJFqKmJqr7zvXB0m3VZZ+juu/eSLVfGxm0SRWnf4DaZr5g3z08sHrglSPoRC6hQke8hKoZATqEHjO1R66mc8J9AZjJCHChZgS5mcZ7CO7SKb7TGlojALivaMzMBN3yaIy+ZAboa4wxsGSKVSUYpbXz2Fss0IK0Pj+BakZdTvsu+KThqcGg2vzUHykdOXoeSHfsoPjWGyiy8G3BzNA5/00UXXceJRtn2WccwbLtSfq++VwcAwb6u56N0+OzE4ER7n8xTbFkB90253b67wV3UlOkex8h2XSQmh4cTftHnB0sme676NPGHDdQ59L5wc/DBqMFfPcZusAOs2sEuZcwKIyANWKcKE4YJ36djUNo0RYhKqtL0c7qFFU3pqkrj03nVGeHaXNKKb6jhFKtrfZRHeloJaVaVpjZYTv+1f2gA1NsAu6tT9FecywAdpqx3PtIjsE+ebCBYqVbKLHXtGDJDDdPhQBWD2wEuZdQVEbIdHtFJiMEewiGoTdCIdHSgf2CBN3+VDxYrmVgheuXE7tXuLDJNhhg9ZDNCNhUKwojyNsrcMByVxknxEbgzTT8KpAv2zh4KGg3I8VPxsfpzJ9F6NY/xWj6qmQgfLRGqAbfeSxGTe16FSk2WD1AF64RtN3lojaC3FUONtMMvRFyAJVg9HNxGj66+4tC4Pl3RYNbLnbsz6NPKxJYPfDuci4jQGdFYQT3PiNvhOMAbhFftStJzy7uCr4YNM/MB/ii0GCC0QJ+aRh0ka8R+H4jbwSPwQOjBdcI0MugM4J7wx1OGCf+FRsHjyEOqwc2AnQCvUA3g84I/D1lbwSPY2D1AF3gxrshYQScaHDDneH1Ng4eQxxWD9CFN4LH0IXVgzcCkE6nKZVKeQ5yIs8urB6GlBHUGaGrK2nYRV3JJKVgCM9BSc5z0vkaoNXDkJgRcGKqERJKYDwGN3DBAxlWD9DFoF41yriPAAMkQ3wzmEd24L4n3JCIr7FmAn5WcQCV3j5gEVQG0yoBRgvSCIN2HyGjERL8bRMD9I77a+qoYt9+ko97DDza2tpo+/btAUtLS6msrCwQrouaQxT8XtiS/fYBBzuq0zRpSZLGvpSgyl2vEsX22J9055vf02jBNcKg2FnO+16jROLIbcTt7R20t2IfVRsz1NTqvxTLY2Cwbds2evTRR+mRRx4J+OSTT1Kre0t5upP21TfRyP8l2ljaYURuKIBud3MV0bqyND2/wlSG+mVEh4wZBIQRoIdBd69R3nefSiOgRaraX0ulO3bT7rIK3zIVECUlJTRmzBgaP358YIJx48Yda4TkQWrePIGmP7WaqiZNoXSTc/FC/naXUPn+OD3wkmmh6ndRZ+zoXyCgGKHo7z7FgfX4+whaC4SS2XCwkeLCJB4Di/b2dtq9e3fQEuHPigr9whTbX0a7po6lzh2b7CMCJo/RlUuo49kniWoraEHtKjrQeeS3+AFYRQKsHor++wg4oJ4Y4fA31ILlUjsweRQfMP+2kclh9z+PhTEDvjZK8e7va0t0L5QcHpZzGaEovqGWrxHU7yxj+VTbZPEYvMDFTw7fRgvSCEX1nWV8sGYEHCgbIa/fYgEToEVC6ZU7kJ6Dk2iH3Iuf1UNR/BYL1ww9MUJev9eoO0hdQaA8By+RZxdWD0Xxe42O1wih/013HoWD0cKg+U13Rf27Tz0KC6OFQfO7T4v6t2F7FBZWD9BFaH8bNshmcI2AAxgU/z+CR2Fh9QBdQB8wAvQSqv8fAdSMgA9mIxT9/5jjUVhYPUAXuXaV2QjYxA2lEdzbLNgIvJegDsw2DqEBlvQGki605/Q1wwirB14xyrSHAF3xoAy9oS1Hey6NwCYYcCPwnJDpNgteOcLgg74PgxDPCaH5XzUB7GPE4okBJd+GDGCXXXtOXzPl3g8dAlg9yPkAepFLp5lWjKA/tOnQo6wGbARNzzmhvQjMZIRcS6g8MGPyR7/HcwLKX9Ae2TiEAljjloJJmH/HE/jWXCog/o7HtH/z37tfh59j06ib/PwEaJ/DlF9OwSYTPy4/F8/pfn/7evP3pBGzfG9J+TiM5n5mGL8EZbTg3loBvfCKUaZBWRrBbYsG3AjcHmkDszYn8MYalslC9T/vHzECRNdFG9auoSWLl1JN/UFqbm6hSDRG7R0ddLDxELW0tlFnJEptbe3U2NRM8Xic9u7ZQ9tKdwbPbW5pM89ppVbz82bzZ0VFFTUcaKC29s5A1CxKzQgQ7qGmRirdvoN27dxD+/ZVBybCdwRazesj0SjV1x8IPuPQoWbzZ4v5rPbgmJpbWs1ndFB5eYV5Th3tr66lPbvLAlPwZ4bUCNADb6RxWwTdFM3/vC/nBDkwZ2uP+PvL59s4hALSCNFYjJYbE2xft4bmzF9ESxctpFfnLKCXZsyg5as30Ixp02hveSVt3rCenp7wDFVW19N6Y5xFCxfTS9On0/wFC2nBvLk0Z/ZcWr50GU2aNJWmPPs0zXxlLkVi8cOi14yAzqWurpamTJpI0ydPpblz5tHM2QtoxpQXaPb8JdTY2EDTp06leYtX0OKFi+jpiVPp6fETaOqUF2n+nLk0b85rNOHpiTR77nxaaM5h65aSoIKE3AjQA7oFdA3cFmE+yGdQ1oyQyQRgTmgvAvM1gpwT5MYa7yegKqDs8erRuTYOocDRRohTmbmS1ldV0oZNW2mjEfziZato88aNtHFLKS1dsoRqamupfG85LV26nBqa2mhv2R5asXI1rV2zhtatN88zr1mxfCW99srLNG3mLNq4ZjVt3Fxirujxw1UhY0UwVWXrpg20atU62r1zJ61ev5nWm/fdum1HUGlKS7bRpq3baf26dbRsxTpatGgRrTWfuW716uCxpSvX0q6yclMRqoMKFU8caY9CagQeknm1iPcPoB9cUOV8kGlQHhAjZDIDDkTOCZnaI7ibb7c4XBVsHEIBdUYw5H4bV2ruzZPm7/iZ7N0D2ud19+e4mTARGKalrSO4ZRmP43sW/BnZZgS8PngPvKf9O88Lwfsbdh9b9/EEfw+eg+d2/wzHxO/JDKkReEiGPrK1RZkG5QExApitKuCAZFVA+ZKrR+4uM88KZ9g4hAKuEfqEVrSaIKOGmYzQnwypEXjJVKsGsi3iQVm2RQUxgmuGTO2RrApyl5lnBfSCp9s4hAK4K/LwlX2AiN/1w+AVnv5mGPcSrB602cCtBu58kMkEA24EWRVke+QOzbIq8Abbp20cPIY4rB5kS5StGuTTFvWbEUA2Az7QNUOuqsCzAt+RihJ4io2DxxCH1QMuktAHVhpzVQM2gmuCPjGChPYG+RjBrQpyBYlbJJS+wAw2Dh5DHFYP3BJBJ7yT3NNqwEbQ9Av2Cu6bsNPYDNII3B5pVcFtkY4ygyGvJGFgwuoBllax3Y57T3BHIu5Tx70o+E4r7lLEdxlw/zq+zIGv+OH7rvh1IPglUUz8UlmN13jmRS12Mr6IN4jYIwfIBfKC26mRJ9xEh7xhxxh5RD6RV+QXy+eYCZB35J9N4LZEPZkN2Ah9bgLAfSPXCK4ZcIByVmAzoCpwi5TJDBiUsIaMnUUECvckIXDYaMGuI27JQFClMRBsNgcSwERC2CyefUOOKYsdRNxZ9MgH8oJ7hpAn5At5Q/6QR+QTeUV+kWfkGzMB2iFpAtkSQTeoBmyCbNWgYEbIZoZMLZJmBvSECAZWC7C0iqsErhZsCFxBsNmCYOJeFDYGrjLSHEwkAkRSPPueHF+ON4se+UBecOVHnlj8XAGQT+QVS6TIM5sA+Uc7JE3Am2daSwR9ydmAjcAmGBAjgNIMmhEytUhyXmAzoBdEELCaxNUBAWJD4MqBlolNgS14BBYBluZgg4BIBBOJ8ew7ythyvFn0IHKC/CBPaHORN+QPeUQ+2QDIM1aHkHcMxtAB9MAmkHOB2xLlqgYDZgTQNQM7EweHA5UtkmYGVAb0gBiIcBXA1YBXlBAgNgRaJjYFriQIKK4qbA4EGwZhk7BRJGEaz97TjSeT483xd4WPfCFvaIGQR1R8NgDyLFsh6IBnAlkJpAlytUShMAKbQVYFzQxum+RWB1wdECCuEGwKBFEaA8Flc0iDuERSPI+fWmxBxN0VPYgcIVd89ec5gA3gVoGemqA31QDsNbQ3A6URemIGnhnkapKsDmwIrhBsCgSQjYGgsjlcg+RLTpinTi1mLhFzFjtf7Vn0IHLF4kcOkU9pAK4C3ApJE0An0gTQkWsCNkK+JgCPC9obgn1lBgQAgUBAEBiuECiZbAoE0DUGUxqkJ+TEeR5NLVYaEXMWuxQ8iDwhX1L8yKdrAK4CvESayQRuS8Qm6IkR+gTaG4M9NQNODobAycq5QRpCtkwgVwo2hjQHk03SE3LSPI+mFiuNLHQWO4i8sOil8EFugVwDuK0Q9OG2Q9lMkI8R+gzamzOlGaQRcpmBqwPPDtlMwZWCjcHmYIO4ZMN49i21WIOcCxY8i14KH+QWSFYA5J+rgGYCaCgUJgC0D5DUzMCGkGboiSFcU7Ax2BxsEI2cDM++pRZrkPMhBc+iZ+Hz1T+XAdxWKDQmYGgfJKmZgU+AzaBVB80QTM0YbI5M5CR49i+12EvBs+hZ+FL80gD9ZQKw36B9mKRmBjYEnxibQhpCVghmJmOwObKRE+HZP9RiDkrBM6XwXfHnY4DemgDsN2gf5lKaQRqCT8o1AxuC6VYKNgWTA8uUQfcsHDkfMlecP1f4LH5pADaBZoCemqDfoX2oxlxmAKUhpCnYGBwwJgeSKYPsGR5yftz8SeG74s/HAPmaABwwaB/uMpMZQHnSriGYrjE0usH2LCy1HIGu+MHeGCCXCQYc2kFolCegGQJ0DeFSBo8pTeIZPmo5c/PaUwOAmsYkCwbtYDTKk5EnKgMgAyPpBpCpBduz8NRypeUVlPmXupB60fTksuDQDiob5QnKEwdlUCS1AIJawD0LTzdPWk4lOf9SG0xNQxpDB+0gNbonLA0hqQUOdIPtGS66+dJyy5Q60LSSjaGFdrDZKIPgUgsa6AbZM5zUcgdquda0kQ9DD+2ge0ItWKAWWM/wUsshqOU8HxYdtJPoDbUgehYftdz2hkUP7aQ8PXNx0EE7SU/PXBxy0ILgOfjp4UALkufgp4eHh4eHh4eHh4eHh4eHRzgxbNj/A+/ksdJulw6GAAAAAElFTkSuQmCC;" vertex="1" parent="1">
          <mxGeometry x="46" y="309.5" width="194" height="123" as="geometry" />
        </mxCell>
        <mxCell id="8LlulcfHmFQd0nab0qFh-30" style="edgeStyle=orthogonalEdgeStyle;rounded=0;orthogonalLoop=1;jettySize=auto;html=1;" edge="1" parent="1" source="8LlulcfHmFQd0nab0qFh-9">
          <mxGeometry relative="1" as="geometry">
            <mxPoint x="612" y="354" as="targetPoint" />
            <Array as="points">
              <mxPoint x="564" y="469" />
              <mxPoint x="564" y="354" />
            </Array>
          </mxGeometry>
        </mxCell>
        <mxCell id="8LlulcfHmFQd0nab0qFh-31" style="edgeStyle=orthogonalEdgeStyle;rounded=0;orthogonalLoop=1;jettySize=auto;html=1;entryX=0;entryY=0.5;entryDx=0;entryDy=0;" edge="1" parent="1" source="8LlulcfHmFQd0nab0qFh-9" target="8LlulcfHmFQd0nab0qFh-22">
          <mxGeometry relative="1" as="geometry">
            <Array as="points">
              <mxPoint x="564" y="469" />
              <mxPoint x="564" y="544" />
            </Array>
          </mxGeometry>
        </mxCell>
        <mxCell id="8LlulcfHmFQd0nab0qFh-9" value="" style="shape=image;verticalLabelPosition=bottom;labelBackgroundColor=default;verticalAlign=top;aspect=fixed;imageAspect=0;image=data:image/png,iVBORw0KGgoAAAANSUhEUgAAANMAAAB2CAYAAABS1qaEAAAAAXNSR0IArs4c6QAAAARnQU1BAACxjwv8YQUAAAAJcEhZcwAAFxEAABcRAcom8z8AABLjSURBVHhe7Z17lBT1lcfnjyRrcuKMu64Gsj5wk+GsRo2iiUbERwiJggFF5aXigAqDgAwiD4EZEEZYEfGBAgnTMwbxIL6AkDjKgBgwEo3KZpkWNSqiooOCxDV7sn9Z+/vW9O2+9atb3V3V1QND3zrnc5iu++hf/fp+f/dX1QOUFXJUNCQvr0gkZ1c0ti4tb0xurki0bqtoTDqK0hkoTyS3u3XbmFzl1nFDa1VF0/ajUuVd/KO8YceQ9jdv/QcfmKIcRjSXNySriyYsdKHyROsu/qYnr/qrM+iZPc7ojXud27fud2nY/r+K0imo/ePnbs3WbP7MreOeT+/igkLnOlCR2FFT1rTriJQMCjsqmlrP4Ns3CGhkS5uz4OUvnOVmQIpyOPHAq1+6zaHHE+8yUZkmYppJShLRDndLl9jxf0jYbeVbztjn94oDUJTDkQmmY1U++nZGVI3Je1PSCHcgkJJc8tsPnCWvfeksf/3vilJyDG3ewwTVuibUvRQJ6V+bks6IDZ84vzYJFaWUmbpln9PlNzupQ23O6z7KfTyYEhISSIkVpRSp33bAOW7Fm/lt+dofNrTfI41qaRMTKkopgwZjGs1XrqAaktUp6fgPfIkFp8vWfygmUhTl7+6tD3SC71q/1dTaJSWfzOH+NoNxwNOLh1790vn1ayZQURSR855q/07Kv90zN1MVieQnME54/lMxWFGUDLNf/FzuTvTQAV/I/uq1LxVFyYPznnrP353MiWacvGlDm/Mrs8VTFCU307fsbxdTonVXu5Cath9FT/Due/kLMUhRFJluK9sflR/Z9Ma59FvgzpmPvys6K4oSTL/1H7bfOzUm56d/2+G65j2is6Iowdz6/Kd037QZ90ur8GL8pr3Oslf/R1GUEMx/6UB7Z0okd5bRX6+YvmWf6KwoSjCL//wFiemTMvoLf1DYsj8bB0VRQkG/AIttnvvDUqMwRVHCQxpSMSlKgaiYFCUmVEyKEhMqJkWJCRWTosSET0xLXvlbyXPPpt1OzdLfudQ9/oroExbKOXTaIqffTdNchtctcc/BJsXky+TGlvR4883FrzGIQsdVaqiYBFBIZWVlLudeNkz0yRcUOnJ8/RtHpHPawAaf6Su3ijmyAbHzXAPGzhL9bPg15qJLt+7OVRPnO3PX/beYS2lHxSQQl5hQgLwoiaO7nuAi2RAj5QriF9dP9MSj8CU/mzBi4qCjSvkUFZNIHGJCHC/CoM6Dcz+8sJ/H96dDx/j8gig/+jtuDO986IaSLyfbNaLbwT7u/ifdsdjC737W+c79L7Z5YhQVk0ihYsK9EMWjyFGUkh8HPlwQ+caQP+7FKL7XwJGiPyfsNeKa+PiizMvhjk9MD738t5LHLjTJJ4j5z7zlfPPIinT8yPqE6CcBX4pDx7lva5voR5zV50rXF0UOX3qN988VG+Uab39kq0dQ19UuEf1KFRWTQCFiGjJ1UTq2ssf5ok82jut+Wjo+W7Eu3Lg7Xdg0xrH3ZTrVqAWP+mI4Ua8RY6K4k079kehTqghiOlDy1CxdbxWa7CcBAVHsqAUrRZ9scDGe1Weg6AO4H0SEc+hG5Ucf657DfZgdwynkGnnnnbP2L6JPKaJiEohaaAs3vp+OA3WrXxH9snFboiUd//Vv/JPoA0469WzXB+Lh53sNHJGOxZaT2ziFiAn+FHvVxHmiTyniE9ODfzpQ8kxYwgqt3zDRR6LWiIfiUMySTy7ubvEK8o41f/H58Pf5+fAaj42P/cqaeR4bJ+o1AuSlWPv9SxkVk0DUQuNxuPeRfPLhOydWpvNMamjx2VHAZIewbDs9ys42hkLEdG3tQ5FjD2dUTAJRC40XGe53JJ984PddGIttp/uiILFwsU1bsUX0KURMPBZjlXxKEZ+YFpuTpc4trFjOMYUm+UiMYU/Tupl7GsknH+zOxG38PQaa7Ra3ETPZNvDiIWNEn6jXCKrmZh7hY9GQfEoRFZNA1EKbaroAxeGJl+STi0Vb2tI5AO6ZuB3FSzYUNcYqQd0LfyInzwHgQ3nCigkiptggsZYifjFt+7zkueWh33oLTfCRuPN3b6bjAF5LftmYuuIPnhzctqBll/tgg9vz4aa7HvHkAVGvEcCfYvuPqRN9ShEVk0AhhYbtHcWOufcJ0ScbVXMa0vG4H+G2wVPuSdvC4G7FWB5QyDVS1wMzH3tZ9ClFfGJ6wJwsdcZbhSb5BPFLs1JT7OkX9BN9soEYih9kxMNtXKg3mm6DcWaD/NHN7jJdjeeCnXKFuUYudtzbST6liopJIGqhgdlP/5dnK3br8g2inwR8Ke6b365w6s02kWwzTAcgGzoWjwsCYqQYW5hRrhHXhnEF5Sx1VEwChYgJ8O6E4sN9kOTHgQ8v1GtmPuix92GPu/MtYoiRYtCluC3sNULofHt38rm9Rb9Sxi+ml/aXPOMf5IU2VPTJBYqNckAkfa6rcerX7/T54dxFg6s93ez0C/r6/KiQ3S3bhvd89iAqe/RM552x6k/p87muEeOCz6DJCz05ALZ30rWUOiomAV5o+YKC4znueeFjt0htP4gCvoCv9MT5V4zw5AFjFj2etktCywbEQLEQNJ2Pco0A14Rr4++htOMT0/3mZKkTpdC+b8Qh5bp+znLn3yozf60iCPjAV8rR42eZ75aCfIKYazoIxUK8dD7MNaIbQkQTlz/nya14UTEJzHpqu3PJDVNCMWzGg2IuAoVIvhAHoNe5ivSXY2rTvgtNV5B8soHuRPEQF87lukbEQHAgynuWIn4x/XGfoigRUDEpSkyomBQlJnxius+cVBQlPComRYkJv5he/ExRlAiomBQlJnxiutecVBQlPComRYkJFZOixIRPTIvMSUVRwqNiUpSY8Inpnq2fKYoSARWTosSET0wLzUlFUcKjYlKUmFAxKUpM+MR0tznZEcxpfsepfmBtIOOWNYtxYUEeyon3lHxs+Ngmr3xJ9IlCoWOZ2LhZ9Ali+hOvp2Pr1uX/2dJ7Dpx0t9NnxGQXvEY+yV+CjzsM9nvkkyfsvBSLgyYmTIL07w3Y4F/26TVodKgPkoAQeK6+o2eKfjZ8bGdfOkT0CUscYwFhFhmIgOIGT18s+nCQG9f7NfYvJdnABp9c4sz387XBmKPm+W7lqW6tzN/0kSdHRyGIaV+HUP3AOnFCsnH9vBViriAuvnaCJ/7YEytFPxs+trMvHSr6hCWOsVDc/E17RF+bPiOmpOPaxST7gf7j6z3vQ/xzlxOcI//F/68oQVTZckb5fAHGXGieE39wdmrx9Y6p2BwSYrILtm7dG64dHxYmhvzwAY5b9qzHNxtUBHylzSc+29iiEsdYiJ9cXiX62uQrpl6Dqj35cc0TG1/w+Mxpfte5ceFqz+cBrpm93ONHxDWHufJQrWAx4P+IJ+Y730UnLnxiWmBOdgSjrUmSfMA8MyFn9L4i7YsPXvKzucF88BQzcNLCdBGfawpR8ufkO7Z8iWssHJyX/DlcTIOMmCSfYUYM5INxYaySH4d3WcTUmoK2feKawzB5MA7eRTHXkl+xOOTFBLjv987sKfrYkADxYXNBYvXCaymGiKsQiLjGgmunn1E0d5huIcUQucRkFx+EZfsEgYWA4iAu2x7XHIbNc+no2rR/PotVnHQKMaFoyBc3mZIPB/60+lNu3h1w72XHcOIUU5xjgTj4lizX2HKJCSs32U8w2zfbno3bVm7LGnuwxMTnNt+FNy58YrrLnOwI7EmSfIgJZv+ery+4ghXJSDO5OHen6QC0Cv+gV19fDCfM2HIR51h+ZsSB2GNOzPw3negmUhyAP/ldbcRk2/+ddbrhRtS2PRfID9ANbFtccxg2D66D/NGZJJ9i0SnExD90CEvy4WClhC8Klp+nrQk6xUyzxeE2TpxiinMsKFycG7vs2XS3Q96g+Gxims26PUCn4fZCOVhigg/5YyGTfIqFT0z/uWVfhzDq/swknWUmwLbfvPRZZ+is5e62jvxQHLafzSS2/bjomgkeG3/Py8bXe2ycXGPLl7jHwq+fC6X7Ob09MZLP1bcv9tj42CBMbouDuOYwTJ6Rd69OLzKoG8mnmBwSYsoFJua6O1eIeWxQtBSHgrHt+N6Ecto2Iq5CiHssXEz1G/ekux7AKszjQDYx8bzFKLwwny8hzTXPg0UDr21wbedfnbmXxLxOffx1X65i0ynEBFA46FRSLg7diwQVCC/wWxIviD58bIWIKe6xcDEBCJRWYvxpF1A2MeE12X7Y+wqPLQ7Cfr4gl5hyccwJle41z1j7hi9PR+AT03xzsiO4iU0SVhy85owwLbu3mZhzBlQ5R7Av4+A716zKUk7EkB+2TpLPrWx709OsZpIPHxs+YMknF8UYC+bDtiM32bHgcBv8yXaVEQ+38fHZcXHAx93VLCYYSy6w+8iWJxdYvLBATTdisvN0BIeEmHIVLMRzSq++aX9MmOSHFZZ8hpguhveQoI6BPyVhwofyRBVTMcaCgrPtgD+g+cXo2vR5+NN5W0zohGTDYsVtccDHHXUOAc8jLboACwqvDywOQQtuMfGJaZ452RHcaCaBLr6HmWzJhzPHTA51KGxp8Jrb657JfJ8ThmvNasjzgLBjsynWWCAO2w4mm+0dn5vxRig4b4uJx9xuVm+yAbzm9kIpdA6JMHlOZwsYOr3kU0w6jZgAX32oYIgB7PucMOAD4HlAoYVQrLEEiQlALOSHbRUWm2xiAsezBxhVZttn23PBt99YQLjtYIgJ10yLGDq95FNMfGK68w/7OgR7kiQfGy4mxHPb8adkCuOa+hWuPRvkj8mv/f27nlywU658x8Yp1lh+WjXFY7Pp/uPMf0p9odkKw59eXzltsc//56Myv3qDubXt2RjHtoldv3+qz87HHWUOibB54EP+iJV8ikWnEdMdLZlVB9y2+vW0reaRzI38SWf09MQFMeDWTPfAz9xWSCEUcywQB7fZTFvj/V07Li5JTJhDPqfVS5/1+QTx4wGZ3807z2ypbHshc8gJmweLF/lL4yomnUZMfBXFI1BuwypMNrsYg0DhUQw6A7cVUgjFHEsuMYHBdZnfAudIYgJcyNi2oeNIfhz+HhAjxm/7HCwxobOTv9Qxi4lPTPXmZEdwgzVJks9os1Jeb/byfNsE+psC4H7fTq3G+GBnmsnktmygc1DOCaaj0Pl8xhZEMccCMfGYIDBmiiEGGjFJvqCSdTAI6gKzIEAgth/O8Y4EsMjZfqCQOeREyQMRUcwk030ln2JwSIgpDGjdPA/ERraTzb6f23IBUVIsCojORxkbxFDsseQrJoiYRE1kExOQBIgcuC5g5wPZxhP187VzRhETaoRicl13nPjENNec7AhGhpxsfKDDTbHaeU5jj0MHme2Hbc/GVLa9QrHQ+bBjAxhfscdysSk0HpMN+xpQVJIfB2Pmq3oQ2CmMMrsGKQcRZQ6BfY08z5lGTNwWBK4jbEwcHDQxof1i4rIB8WAyZ5iVVsoB+phtBvnPatkj+mQDHYHiUdA4l8/YbFCsxR4L5sKOyQbGRLE3m3shyUcCQqE4LBDosvj50nH17nikGJsocwjsa+R5htWv8NiCwNxRDOZU8ikGPjHNeWGfoigRUDEpSkyomBQlJnxiusOcVBQlPComRYkJFZOixERaTOWJ5AH8MHnTp85sY1AUJRzf/c3OtJi244exG9qMYb+iKCFxO1Oi9R/Y5jXjRdUzH4uOiqIEM3lT+/+CUZ5o3WXE1LoUL65e/5EzyxgVRcmfm82OzhVTY3JzWUViRw1e/OSJ90RnRVGC6bt2N4mpqayiaWc3vDj24Z3OjM1ygKIoMv/x6NvtYmrYMaQMBz2EGG7um+qMg6IouZmUul9yHz407TrCFVNFIjkbJ3usfkcMUhTFT/91H7SLqTG5yhUSjm81tXaBumCofq7NqTXbPUVRgpliulLXh3d+5YqpIXl5Skrth7mBuheG0x97RwxWFCXDhU+9T1u8bSkJZQ63OzUm2+AweP1HYgJFUfY7YzfsdY5ucrd3TkVT6xkpCXmP8oZkNRzgiO3eTBOoKEoGfEl7/Io3/fdK0gEHOCJg4sbPxISKUopMe36/c8qqv7pCwhPw9BO8wMM4YB+IgG6PvOXcbFoavn9SlFLmNtORSEgVieQn+H42pZjsh/tFbiK5E4HHPPzGV9f+/mPxDRSlFEBDQWNJdaQDgfdJQUdF0/ajyhtb17hKNPR8cpdTY7Z90pspyuEIulGfp3e7DSUlpO15dyTpoC90AR5MXPDk+874DZ86083+UVEORyaZptFv7QdO19TfU3KFhMZiGkxKFtEPqJF3KfC9lW87l6zZ7YxsbhMHpCidiTHP7XX6r/vQOe2xd9I17oLnB007LkpJIb4De0XzBqvotyVsjss8MlSUQx66D5Jwm4f9mw3FOvBG+LVz/D0O96ZMGJCidBbcOnYF1FoVy3ZODz300EMPPfTQQ4/D4ygr+39QWFRlG7wokAAAAABJRU5ErkJggg==;" vertex="1" parent="1">
          <mxGeometry x="336" y="417.25" width="183.72" height="102.75" as="geometry" />
        </mxCell>
        <mxCell id="8LlulcfHmFQd0nab0qFh-17" value="" style="shape=image;verticalLabelPosition=bottom;labelBackgroundColor=default;verticalAlign=top;aspect=fixed;imageAspect=0;image=data:image/png,iVBORw0KGgoAAAANSUhEUgAAANMAAAB2CAYAAABS1qaEAAAAAXNSR0IArs4c6QAAAARnQU1BAACxjwv8YQUAAAAJcEhZcwAAFxEAABcRAcom8z8AABLjSURBVHhe7Z17lBT1lcfnjyRrcuKMu64Gsj5wk+GsRo2iiUbERwiJggFF5aXigAqDgAwiD4EZEEZYEfGBAgnTMwbxIL6AkDjKgBgwEo3KZpkWNSqiooOCxDV7sn9Z+/vW9O2+9atb3V3V1QND3zrnc5iu++hf/fp+f/dX1QOUFXJUNCQvr0gkZ1c0ti4tb0xurki0bqtoTDqK0hkoTyS3u3XbmFzl1nFDa1VF0/ajUuVd/KO8YceQ9jdv/QcfmKIcRjSXNySriyYsdKHyROsu/qYnr/qrM+iZPc7ojXud27fud2nY/r+K0imo/ePnbs3WbP7MreOeT+/igkLnOlCR2FFT1rTriJQMCjsqmlrP4Ns3CGhkS5uz4OUvnOVmQIpyOPHAq1+6zaHHE+8yUZkmYppJShLRDndLl9jxf0jYbeVbztjn94oDUJTDkQmmY1U++nZGVI3Je1PSCHcgkJJc8tsPnCWvfeksf/3vilJyDG3ewwTVuibUvRQJ6V+bks6IDZ84vzYJFaWUmbpln9PlNzupQ23O6z7KfTyYEhISSIkVpRSp33bAOW7Fm/lt+dofNrTfI41qaRMTKkopgwZjGs1XrqAaktUp6fgPfIkFp8vWfygmUhTl7+6tD3SC71q/1dTaJSWfzOH+NoNxwNOLh1790vn1ayZQURSR855q/07Kv90zN1MVieQnME54/lMxWFGUDLNf/FzuTvTQAV/I/uq1LxVFyYPznnrP353MiWacvGlDm/Mrs8VTFCU307fsbxdTonVXu5Cath9FT/Due/kLMUhRFJluK9sflR/Z9Ma59FvgzpmPvys6K4oSTL/1H7bfOzUm56d/2+G65j2is6Iowdz6/Kd037QZ90ur8GL8pr3Oslf/R1GUEMx/6UB7Z0okd5bRX6+YvmWf6KwoSjCL//wFiemTMvoLf1DYsj8bB0VRQkG/AIttnvvDUqMwRVHCQxpSMSlKgaiYFCUmVEyKEhMqJkWJCRWTosSET0xLXvlbyXPPpt1OzdLfudQ9/oroExbKOXTaIqffTdNchtctcc/BJsXky+TGlvR4883FrzGIQsdVaqiYBFBIZWVlLudeNkz0yRcUOnJ8/RtHpHPawAaf6Su3ijmyAbHzXAPGzhL9bPg15qJLt+7OVRPnO3PX/beYS2lHxSQQl5hQgLwoiaO7nuAi2RAj5QriF9dP9MSj8CU/mzBi4qCjSvkUFZNIHGJCHC/CoM6Dcz+8sJ/H96dDx/j8gig/+jtuDO986IaSLyfbNaLbwT7u/ifdsdjC737W+c79L7Z5YhQVk0ihYsK9EMWjyFGUkh8HPlwQ+caQP+7FKL7XwJGiPyfsNeKa+PiizMvhjk9MD738t5LHLjTJJ4j5z7zlfPPIinT8yPqE6CcBX4pDx7lva5voR5zV50rXF0UOX3qN988VG+Uab39kq0dQ19UuEf1KFRWTQCFiGjJ1UTq2ssf5ok82jut+Wjo+W7Eu3Lg7Xdg0xrH3ZTrVqAWP+mI4Ua8RY6K4k079kehTqghiOlDy1CxdbxWa7CcBAVHsqAUrRZ9scDGe1Weg6AO4H0SEc+hG5Ucf657DfZgdwynkGnnnnbP2L6JPKaJiEohaaAs3vp+OA3WrXxH9snFboiUd//Vv/JPoA0469WzXB+Lh53sNHJGOxZaT2ziFiAn+FHvVxHmiTyniE9ODfzpQ8kxYwgqt3zDRR6LWiIfiUMySTy7ubvEK8o41f/H58Pf5+fAaj42P/cqaeR4bJ+o1AuSlWPv9SxkVk0DUQuNxuPeRfPLhOydWpvNMamjx2VHAZIewbDs9ys42hkLEdG3tQ5FjD2dUTAJRC40XGe53JJ984PddGIttp/uiILFwsU1bsUX0KURMPBZjlXxKEZ+YFpuTpc4trFjOMYUm+UiMYU/Tupl7GsknH+zOxG38PQaa7Ra3ETPZNvDiIWNEn6jXCKrmZh7hY9GQfEoRFZNA1EKbaroAxeGJl+STi0Vb2tI5AO6ZuB3FSzYUNcYqQd0LfyInzwHgQ3nCigkiptggsZYifjFt+7zkueWh33oLTfCRuPN3b6bjAF5LftmYuuIPnhzctqBll/tgg9vz4aa7HvHkAVGvEcCfYvuPqRN9ShEVk0AhhYbtHcWOufcJ0ScbVXMa0vG4H+G2wVPuSdvC4G7FWB5QyDVS1wMzH3tZ9ClFfGJ6wJwsdcZbhSb5BPFLs1JT7OkX9BN9soEYih9kxMNtXKg3mm6DcWaD/NHN7jJdjeeCnXKFuUYudtzbST6liopJIGqhgdlP/5dnK3br8g2inwR8Ke6b365w6s02kWwzTAcgGzoWjwsCYqQYW5hRrhHXhnEF5Sx1VEwChYgJ8O6E4sN9kOTHgQ8v1GtmPuix92GPu/MtYoiRYtCluC3sNULofHt38rm9Rb9Sxi+ml/aXPOMf5IU2VPTJBYqNckAkfa6rcerX7/T54dxFg6s93ez0C/r6/KiQ3S3bhvd89iAqe/RM552x6k/p87muEeOCz6DJCz05ALZ30rWUOiomAV5o+YKC4znueeFjt0htP4gCvoCv9MT5V4zw5AFjFj2etktCywbEQLEQNJ2Pco0A14Rr4++htOMT0/3mZKkTpdC+b8Qh5bp+znLn3yozf60iCPjAV8rR42eZ75aCfIKYazoIxUK8dD7MNaIbQkQTlz/nya14UTEJzHpqu3PJDVNCMWzGg2IuAoVIvhAHoNe5ivSXY2rTvgtNV5B8soHuRPEQF87lukbEQHAgynuWIn4x/XGfoigRUDEpSkyomBQlJnxius+cVBQlPComRYkJv5he/ExRlAiomBQlJnxiutecVBQlPComRYkJFZOixIRPTIvMSUVRwqNiUpSY8Inpnq2fKYoSARWTosSET0wLzUlFUcKjYlKUmFAxKUpM+MR0tznZEcxpfsepfmBtIOOWNYtxYUEeyon3lHxs+Ngmr3xJ9IlCoWOZ2LhZ9Ali+hOvp2Pr1uX/2dJ7Dpx0t9NnxGQXvEY+yV+CjzsM9nvkkyfsvBSLgyYmTIL07w3Y4F/26TVodKgPkoAQeK6+o2eKfjZ8bGdfOkT0CUscYwFhFhmIgOIGT18s+nCQG9f7NfYvJdnABp9c4sz387XBmKPm+W7lqW6tzN/0kSdHRyGIaV+HUP3AOnFCsnH9vBViriAuvnaCJ/7YEytFPxs+trMvHSr6hCWOsVDc/E17RF+bPiOmpOPaxST7gf7j6z3vQ/xzlxOcI//F/68oQVTZckb5fAHGXGieE39wdmrx9Y6p2BwSYrILtm7dG64dHxYmhvzwAY5b9qzHNxtUBHylzSc+29iiEsdYiJ9cXiX62uQrpl6Dqj35cc0TG1/w+Mxpfte5ceFqz+cBrpm93ONHxDWHufJQrWAx4P+IJ+Y730UnLnxiWmBOdgSjrUmSfMA8MyFn9L4i7YsPXvKzucF88BQzcNLCdBGfawpR8ufkO7Z8iWssHJyX/DlcTIOMmCSfYUYM5INxYaySH4d3WcTUmoK2feKawzB5MA7eRTHXkl+xOOTFBLjv987sKfrYkADxYXNBYvXCaymGiKsQiLjGgmunn1E0d5huIcUQucRkFx+EZfsEgYWA4iAu2x7XHIbNc+no2rR/PotVnHQKMaFoyBc3mZIPB/60+lNu3h1w72XHcOIUU5xjgTj4lizX2HKJCSs32U8w2zfbno3bVm7LGnuwxMTnNt+FNy58YrrLnOwI7EmSfIgJZv+ery+4ghXJSDO5OHen6QC0Cv+gV19fDCfM2HIR51h+ZsSB2GNOzPw3negmUhyAP/ldbcRk2/+ddbrhRtS2PRfID9ANbFtccxg2D66D/NGZJJ9i0SnExD90CEvy4WClhC8Klp+nrQk6xUyzxeE2TpxiinMsKFycG7vs2XS3Q96g+Gxims26PUCn4fZCOVhigg/5YyGTfIqFT0z/uWVfhzDq/swknWUmwLbfvPRZZ+is5e62jvxQHLafzSS2/bjomgkeG3/Py8bXe2ycXGPLl7jHwq+fC6X7Ob09MZLP1bcv9tj42CBMbouDuOYwTJ6Rd69OLzKoG8mnmBwSYsoFJua6O1eIeWxQtBSHgrHt+N6Ecto2Iq5CiHssXEz1G/ekux7AKszjQDYx8bzFKLwwny8hzTXPg0UDr21wbedfnbmXxLxOffx1X65i0ynEBFA46FRSLg7diwQVCC/wWxIviD58bIWIKe6xcDEBCJRWYvxpF1A2MeE12X7Y+wqPLQ7Cfr4gl5hyccwJle41z1j7hi9PR+AT03xzsiO4iU0SVhy85owwLbu3mZhzBlQ5R7Av4+A716zKUk7EkB+2TpLPrWx709OsZpIPHxs+YMknF8UYC+bDtiM32bHgcBv8yXaVEQ+38fHZcXHAx93VLCYYSy6w+8iWJxdYvLBATTdisvN0BIeEmHIVLMRzSq++aX9MmOSHFZZ8hpguhveQoI6BPyVhwofyRBVTMcaCgrPtgD+g+cXo2vR5+NN5W0zohGTDYsVtccDHHXUOAc8jLboACwqvDywOQQtuMfGJaZ452RHcaCaBLr6HmWzJhzPHTA51KGxp8Jrb657JfJ8ThmvNasjzgLBjsynWWCAO2w4mm+0dn5vxRig4b4uJx9xuVm+yAbzm9kIpdA6JMHlOZwsYOr3kU0w6jZgAX32oYIgB7PucMOAD4HlAoYVQrLEEiQlALOSHbRUWm2xiAsezBxhVZttn23PBt99YQLjtYIgJ10yLGDq95FNMfGK68w/7OgR7kiQfGy4mxHPb8adkCuOa+hWuPRvkj8mv/f27nlywU658x8Yp1lh+WjXFY7Pp/uPMf0p9odkKw59eXzltsc//56Myv3qDubXt2RjHtoldv3+qz87HHWUOibB54EP+iJV8ikWnEdMdLZlVB9y2+vW0reaRzI38SWf09MQFMeDWTPfAz9xWSCEUcywQB7fZTFvj/V07Li5JTJhDPqfVS5/1+QTx4wGZ3807z2ypbHshc8gJmweLF/lL4yomnUZMfBXFI1BuwypMNrsYg0DhUQw6A7cVUgjFHEsuMYHBdZnfAudIYgJcyNi2oeNIfhz+HhAjxm/7HCwxobOTv9Qxi4lPTPXmZEdwgzVJks9os1Jeb/byfNsE+psC4H7fTq3G+GBnmsnktmygc1DOCaaj0Pl8xhZEMccCMfGYIDBmiiEGGjFJvqCSdTAI6gKzIEAgth/O8Y4EsMjZfqCQOeREyQMRUcwk030ln2JwSIgpDGjdPA/ERraTzb6f23IBUVIsCojORxkbxFDsseQrJoiYRE1kExOQBIgcuC5g5wPZxhP187VzRhETaoRicl13nPjENNec7AhGhpxsfKDDTbHaeU5jj0MHme2Hbc/GVLa9QrHQ+bBjAxhfscdysSk0HpMN+xpQVJIfB2Pmq3oQ2CmMMrsGKQcRZQ6BfY08z5lGTNwWBK4jbEwcHDQxof1i4rIB8WAyZ5iVVsoB+phtBvnPatkj+mQDHYHiUdA4l8/YbFCsxR4L5sKOyQbGRLE3m3shyUcCQqE4LBDosvj50nH17nikGJsocwjsa+R5htWv8NiCwNxRDOZU8ikGPjHNeWGfoigRUDEpSkyomBQlJnxiusOcVBQlPComRYkJFZOixERaTOWJ5AH8MHnTp85sY1AUJRzf/c3OtJi244exG9qMYb+iKCFxO1Oi9R/Y5jXjRdUzH4uOiqIEM3lT+/+CUZ5o3WXE1LoUL65e/5EzyxgVRcmfm82OzhVTY3JzWUViRw1e/OSJ90RnRVGC6bt2N4mpqayiaWc3vDj24Z3OjM1ygKIoMv/x6NvtYmrYMaQMBz2EGG7um+qMg6IouZmUul9yHz407TrCFVNFIjkbJ3usfkcMUhTFT/91H7SLqTG5yhUSjm81tXaBumCofq7NqTXbPUVRgpliulLXh3d+5YqpIXl5Skrth7mBuheG0x97RwxWFCXDhU+9T1u8bSkJZQ63OzUm2+AweP1HYgJFUfY7YzfsdY5ucrd3TkVT6xkpCXmP8oZkNRzgiO3eTBOoKEoGfEl7/Io3/fdK0gEHOCJg4sbPxISKUopMe36/c8qqv7pCwhPw9BO8wMM4YB+IgG6PvOXcbFoavn9SlFLmNtORSEgVieQn+H42pZjsh/tFbiK5E4HHPPzGV9f+/mPxDRSlFEBDQWNJdaQDgfdJQUdF0/ajyhtb17hKNPR8cpdTY7Z90pspyuEIulGfp3e7DSUlpO15dyTpoC90AR5MXPDk+874DZ86083+UVEORyaZptFv7QdO19TfU3KFhMZiGkxKFtEPqJF3KfC9lW87l6zZ7YxsbhMHpCidiTHP7XX6r/vQOe2xd9I17oLnB007LkpJIb4De0XzBqvotyVsjss8MlSUQx66D5Jwm4f9mw3FOvBG+LVz/D0O96ZMGJCidBbcOnYF1FoVy3ZODz300EMPPfTQQ4/D4ygr+39QWFRlG7wokAAAAABJRU5ErkJggg==;" vertex="1" parent="1">
          <mxGeometry x="324.92" y="396" width="183.72" height="102.75" as="geometry" />
        </mxCell>
        <mxCell id="8LlulcfHmFQd0nab0qFh-11" value="" style="shape=image;verticalLabelPosition=bottom;labelBackgroundColor=default;verticalAlign=top;aspect=fixed;imageAspect=0;image=data:image/png,iVBORw0KGgoAAAANSUhEUgAAAFsAAAA6CAMAAADoQNVUAAAAAXNSR0IArs4c6QAAAARnQU1BAACxjwv8YQUAAAEdUExURQAAAAAgQAAgMAAgNQgoMAYmMwUlNQUkMgQkNAQjMgMjMwMjNAUlMgUlMwUkMgQkMwQkNAQkMwQkNAMjMwUlMwUlMgQkMwQkNAQkMwQkMwQkMwQkMwUlMwQkMwQkMwQkMwQkMwUlMwYnNQgoNwoqOQ0tPA4vPhAwPxAwQBExQBM0QxQ1QxU2RRY3RRw9TB0+TCBATyFCUSVGVidIVy1OXjBRYTNUYzNUZDlbakBhcENkc0RmdkVmdUZndkprekxtfE9xgFBxgFFygld5h1d5iVh6iVp8jF1/jl5/jl+BkWKElGiKmmuNnGyOnG6Qn3SXpnqdrICjsoGksoWouIyuvpK1xZi7yp7B0Z/C0aTH16rN3K/S47XZ6bvf78Hl9Q0RzGIAAAAgdFJOUwAIEBggKDA4QEhQWGBocHiAh4+Xn6evt7/Hz9ff5+/3v+H4wgAAAAlwSFlzAAAXEQAAFxEByibzPwAAA+lJREFUWEetmGtD2kgUhsF4iQgaXEFWQU5betl2tWWhlO7W0lpa2rRVWqVWSPj/P2PfM3NCBkEFkucLmczkdTw5t0liASzbcfKOnZThctpxtuw1GUXC2i6TZncFo1xRRnsbsmAu1vOFA6Ly7hbvbStQBuVMGhMjiim9fnbSe/IoKKUy/FN13bOTqroDKk3X7TQqfJmWZ2ZjeV89b1I7Hyqu6jyqXuiR5x5idJf4UipbYHIbyYTF1nzc6XnDYb/b4qep7mux4fAbRp9Go6FXw3hVRKZi74QGLedgj8rp6HHvJdFT/BnBa9EHuVSw+I7ITMHaFdmAew/kf1b03z78LpeKnvwKPWznxveZVnuuds574JT/R6ITeXAWnmN9cXNJ1MbYVFpXshDb/HyfyNz3XfzLAlRcFj2DNO5Xf8kyjdc6lquZGPxuP54qvgyD1MI3tSD+GTx9QjxPdBRZGlxAfE80hVW427hBFoXFx90lR9SWyai0ifKiqkHWiWfb8C/4eZCBGQsmkanoIDmYb9NGppCZ6BwR2aILLCTPqsxEB/seJa2VHY6nRzITmUuiA1FO2FI9LmUuKv+EfqIyVPXVfz9kKipnSJ8HlpLmMnUUl/uBrrKB2niyFEcaCfGbRC8gzk6YIjoMC1MM+M2a95ooC22kqLhiXfA9rkCcrlBt4/KPEB9GQfkpEF0re3GAyITBUX3nKVszorWzRA25sTj+ybVaiNIGe1uInK7cWpivRMemH59L6dmG3SN6is8V2AwS+OA2aye5L3vy5rwXwcsHEDPEkawkES7BVRQysxAc6UEB8NE1BckqaNRkajFYXHe4HPVlyd+I+spPt9GYq82ZBBW4xr997vUyWjquqB+gdegPB23u8h2R5gofS9Sj13//mpXLwa4TiaiWDmBfYfaMOoxhX6Yj8VErj7VUcBNXpiPRISpkcC402UB1iKPwwN4TZ8yYqhqCsTx5ZFBNvc5X3sKBz8GYE0ETFqfDpvvl7zn6zf7YNlQwXjO2Jjw7n8rau2lRPSwqVw08O4qYcZYy6sx/b46G8y+ioFvyEO+3ni3X7E1EP3Vk/Qg/PLiZDB5gcd097V24TQ5GnbBvgTNifSBPay6OprcvaqshhVtP20ySxSttQ917RvROrk3QgVCQm2f9vOHw0spxV2eBy7NjHk7W0z5a7HzCWnf+KOSd9PUj303YwfcSZUThq0gGdFEgS7pVnY+U8TUG/MnDpun3Xgt3yka2m4eVzQLyACjmnRX9EqgWGOayzd9R9u98d7exNoqypDqywIMaQF9mzTNeNFZFXSity/14sLJBWijtxKussZmpX16mkEj8D3ZCyPYYFA6aAAAAAElFTkSuQmCC;" vertex="1" parent="1">
          <mxGeometry x="449.9" y="370" width="69.82" height="44.5" as="geometry" />
        </mxCell>
        <mxCell id="8LlulcfHmFQd0nab0qFh-20" value="" style="shape=image;verticalLabelPosition=bottom;labelBackgroundColor=default;verticalAlign=top;aspect=fixed;imageAspect=0;image=data:image/png,iVBORw0KGgoAAAANSUhEUgAAARoAAAC+CAYAAADqScD2AAAAAXNSR0IArs4c6QAAAARnQU1BAACxjwv8YQUAAAAJcEhZcwAAFxEAABcRAcom8z8AABB7SURBVHhe7d19kBTlgcfx/eNyl6TMbgpznN7FC1dJqjQXU2rlxdMyWGpOojFC7kS9wwSJFylTClHRiKhoiGvEl0RMUNjdEc4EDacIEhcVWGM4UVGpCjOuMUQENkBg9xbxrry/7Dy/fpl9ZvqZ3ZnZfmBn+XbVp9jpfp6enq5+fvM83T1N08GYWnKbP9qS23J6S1thYkt7YW6oo9DZ3FHoMn/vNn8HAPxobi/0q62F7a2j0Bq2v7b81LBN5rrHxc20MSd9gJb2LTPjD+fcAQBGgPZCt/m3tSWXPyFuviN7isKlMNck6ObyD3PS8j8EZ63cHkx+6o+hG37TF7rzpXeCts3/B8CTezYdKLa3bz69K2x/563uCdvkUUu6S9ppc3t+W0tHfuFHcq+fHDfrkTN9OJc/yvRc7jUb+P/JBusDnL5ie/Dd9X8KFrzyrnMHADj0rv11b/DVVTuCf3j4d6Wh05FfcUTut8fGzfwQTrltH4x7MPuTjRtvwuUas+GLzQcA0FhufaE/uMD0eEp7OvmF6kzErf7gTs1then2iVx1w7SRro0H0FjuM6OQSb/qCT6WK7wftvH2/HvqVKhzEUeA50m9mI7CsiRgjlv2e3owwCilc6gapSTt3QTORl1FjtPAz6TuU/hG5g1N0gXTntkdLH7tfwGMcnM29BWHU+EJY19XqLTi6Ix0IThm6RvhG7s2CMDodOeL+8MRTNyzeU/3xcXxkM0U3Wi3JbyipDe6++V3nBsCYHT72avvBqc+vq04lDKdj+/HMTG8ST2ZJGTGr3g7+Kl5o0XmDQEcvnRlqhg2bVsuiuOivim8PyYeLilkXG8I4PB0ydO7isOo+m/wC++RiU78fu6RrfRkAKRMWLUjHkIV+uv63ZSpHF7C/vjSN8JzMq43AXB4UwdE99BFPZtCd02XvsOb8UxFXcK+cUOf8w0AQH6y6UAwbuDnC8viGBliim7I26NK33l2j3PFAGCbt7E/7JiEYVPNPTbRjyOjy9iLXjUrAYAqfO3JndH5mo5CVxwn7im+8/c9Fb7++V7nygDA5e6X3hno1Qx2M1/SmznlsW3OFQHAYC7ujO6v0TOp4lgpncIb8+LnydyyoS948NV3AaAm979yILxSXbFXYxa0auHZq7Y7VwAA1bhkTdyrcZ2rSe4Avv75fc7KAFCNH78cn6vR+V77vho9rk8hoy7Pg6+YwgAwDCf+Mr6Jry0/NY4ZM2yK/vuT4Mwn3nZWAoBaXPr07iho7Bv4kt80XbVur7MSANTijhf2R+dp2gv94eM/w3tnzIyP5V4P7t90wFkJAGp13C+ih2Q1L85PiB5qZV6c8thbzsIAUI+Jq6M7hcOHmic/oDz3yR3BA68cAIBM/MczyXma/MLiieALn+pxFgaAenxv/d5o6NSRX6GfHeT0QunjKgwA9bh5Q28cNIUu3RHcqRfXPbc3eGCTKQAAGZi/sT8Kmvb8Ng2duvXitg19zsIAUC9li+4Qbgqf9Wle3PvifmdBAKhX8p/OaegU/rFw0zsAkKkkXwgaAN4QNAC8I2gAeEfQAPCOoAHgHUEDwDuCBoB3BA0A71JB87OX9wNApggaAN4RNAC8I2gAeEfQAPCOoAHgHUEDwDuCBoB3BA0A71JB89OX9gNApggaAN4RNAC8cwRNPwBkiqAB4B1BA8C7VNDc/2I/AGSKoAHgHUEDwDuCBoB3BA0A7wgaAN6lgmaBmQkAWSJoAHhH0ADwLh00G/8HADJF0ADwjqAB4F0qaO4zMwEgSwQNAO8IGgDeETQAvCNoAHiXDpoX+gAgUwQNAO8IGgDepYLmJ2YmAGSJoAHgHUEDwLt00Px3LwBkiqAB4B1B48EPVr0eXHn/ymDyrLvCf+94+g/OcoO57qHnwrr1uqvrj3Wtc/YvNqbqVfK9RWvqqlfulv96rWQb7GWNsB8wNIImIwqVT514avCBv/yroKmpKeVDR7SEy79162Jn/XIq61pPtdR4h7POcf/4+eBL51wcTLpqXsWgPOmsScXyzUeOdZaphr2ev/nEp0uWNcJ+wNAImmHSwaeD0XWQVqLyQx20h7qB2RQi0+9+NLU+zbPLqSdQXmYo6nHY4Xze9JtKljfCfsDQCJphKg+ZMUf/fTBh2nVhz0UN799uXBCcdcmM8CC1y/3dpz/r7NYn7Magdep1LTR8q3ed6lUk5RIKg/Ig0fbbn+vUiVNLlldD+8l+n/Jg0PYky0bqfsDQUkHzYzMT1fl269KSg1AB4yqXUODY5dUdd5UTHejVrrdatazzNtNAx184vVheFI7l5ewyGh7ON+FTXmYwx518ZrG+tq98eaPsBwyOoBmG4798TvHgU8/GVabcF814P6mj3oCrjBzqBpawt1dmLlpTslyv7eWXm6GFvXwwrWb4aA+b1PsrL9Mo+wGDI2iGQd9syYGn3oqrTDk1RPuA1Temq9xIaWA3m6FMUkdcYWAPMdQgy5dXonUl9RQ4Cp7yMo20H1BZOmg27EOV7KDR+QlXmXKta7aag3tW0W2r3Pu8tDHMcpapVb3r1JBosHqalyxXYMxf35Mq42Jvj648DVVmpO8HVEbQDMPxpw0MnZrHjK26gVVjpDawb85dlFp+8/LSb3tXmXIKWLtOOORylGuk/YDKCJphuODa+cUDT3QAq9G5ytZqpDSwmQ92FuuIXrvK2VffKvVObPa+GyykG20/wC0VNPeamaiOGseYo48pOQD/wgwdvnjORcF3FzzhrFMtuzGcbRqDq0yt6lmnPktSR0NFVxmxg0P74HYzRHSVS3zCCqbxky93lpFG2w9wI2iG6SbTgxnruN9C1OCO/dIZYSPUUMFVvxK7MehvNYhqVWrktTQwheiJ1h27+izX5rqcZUXvqTJJ+YtnL3CWE+2zpJyod+AqJ422H+BG0GRAB+OZU2aUjOFddICrAaq8az02uzHUSg15qHVWarT6HFpmh4Y+VzWNyz5npYB1lZGvTZ9TLKeQdpVJNOJ+QBpBkyEFiIJEjSw5OF0+MmZsePLTtY6E7wZWDYWAPs9Qw6CETpAmddVAK/Xi7B6gGrWrTKIR9wPSCBpPFDrTWpcEp0ycmjqPkxiskdmNITnnU61KPaZ6Gq1Cc6hQTOh97V6dhozlZW74+Qsl668UBolG3A9ISwXNPWYmsvcdc5C6ejqa7ypvNwYFkqtMrex1fsE02itMYyyn7dGwwb5HSL0TLXOts5zWm9TT+5Uv12cZbHm5Rt0PKEXQHGTqgicHrui8hquc7wZWzTrtYNRw71YzFHKVs6khJnVkjumx2Mvt3t2/mh6PvcylUfcDShE0h4B9FUNDDVeZkdDAfrhma9iwkjoTr5rnLFfODpNzp88pzp9h3Yui3oHWb9dzaeT9gAEETZ10sOmAFZ2HcZWppLxX42pwI6GBiYYPSR3d++IqU65SHXu+wtauU0kj7wcMSAXN3b/Zhyqce/nAJVp927nKVHLFfaXDi3mdW1NlPmk1hn++dFZqeT3qWedVD5TeEXujGQq5ytmuf7j0hK9ea77dK7j09iWpei6NvB8wgKCp0xTrUq5c3dHlLOdSTUiNlAYm9pWk86+c5yxTzj6Jqveyw1Wf+Ufrepz1yjX6fkCEoKmTGor9Da2Dt5rGo293u95nTzvHWW4kNTBtY1Kv0vaWs8NU96FoeJm81t+uOi6Nvh8QIWiGQd9qyYEnOoAH69lcNHtBybeiVCo/khqY/Tm1/a4y5eauNAdVXCepl/ytYYirjkuj7wdEUkFzl5mJ6n3hqwP3jdgHoQ7mE86cFC7X3/at7IkLTfC41il2Y6jH7OWvDbpONbDy5ZUoDO1167WrXDnXfUNjjjrGWbaS0bAfQNBkQgerK0gqUWO77K5HnetKjKQGJnaPRN/srjLlFKRJnUSt7zsa9gMImszcYoYKOmjtxx/YFEQa1//LNfODO9b1ONdhO23y5WGDqJe2Z7B1Dtabcjljyoxi3Wobpz5nUifhaviDGQ37AQSNV1c+0En3GjAIGgDepYJmvpkJAFkiaAB4R9AA8M4RNL0AkCmCBoB3BA0A71JBc6eZCQBZImgAeEfQAPCOoAHgXSpofmRmAkCWCBoA3hE0ALwjaAB4lwqaO57vBYBMETQAvCNoAHhH0ADwLhU0rWYmAGSJoAHgHUEDwDuCBoB3qaC53cwEgCwRNAC8I2gAeEfQAPAuFTQ//HUvAGSKoAHgHUEDwDuCBoB3qaCZZ2YCQJYIGgDeETQAvCNoAHiXCpofmJkAkCWCBoB3BA0A7wgaAN6lgua253oBIFMEDQDvCBoA3hE0ALxLBc2tZiYAZImgAeAdQQPAO4IGgHcEDQDvUkEzp6s3mGsWAEBWjszFQdPcnt+mP65e+ydnQQCo19iHuuOg6Sh06Y/L1uxyFgSAemiUpGxpaS/s1tBpmV5cvLrHLOwDgExcvXZvGDTN7YXN6tHcqxfnr9zhLAwA9bhsze6oR9NR6Gxqad8yUy/Oeny7szAA1EOjpLBH01HINTW3bblIL/5p+VvBLWYhAGTh62aUFPZo2gtzm1py+RP04pilbzgLA0A9Tnp0axQ0bfmpTZp0Vlgzrnhmj7MCANTixq6+4j00H87lj4qCpiO/UDPOXrHdWQkAajHlV7viYVN+YxgympoX5ydo5qcefjO42RQCgOE4eflb0Yng9vz345gxU27bB82M/Vowc+1eZ0UAqNbfLonuCD4i99tj45SJJjMzvHFv0qqdzooAUI1p8f0z+nlTHC8DU0tbYaIW6urT7C73CgBgKMf+/M3o/ExHoTWOl9JJtwqrwHlP7AhuMmEDALX499XJSeDC7pbc5o/G0VI6teS2nK5CRz/U/f7Va/c5VwQAleiCUhQ0W2bGseKemjvyK1Rw/GNvO1cEAC4TV+4s9mZ0gSmOFPeU3Cl8ZK7w/oxn9zpXCAC2G9YPXGkasjeTTMkNfDoxPGvdvmCOWREAVHJi/HOD8JEQ1U46iWO6P92q+LlHtjpXDAByxuPb455M/j2NiOIYqW5qyXWPS27i+/JjbzvfAMDhbfKT0aMgQm2FiXF81DYlV6Hk/JU7nW8E4PB02Zo94blc5UPpTw3qmJIHY2mFSi/9KhPA4e3bJmT++qHXo5DRg62ymJKTw/IVMx5zvTGAw4M6HElPxugc8lJ2LZO6RknYfP6XbwXXr3dvBIDRq3ji1wh7MlmGTDKFv4fSmWXzJp98+M1g5tp9zo0BMLqoY6EORjFkhntOZqgpvKEvfiKf/nOoCSu2B9et6wtmmw0BMPpcsKon+PjSN6KQUUej3qtLtU56NJ+enJWk29FLuoNvrOxxbiSAxvStp3aHI5ekneuxDzXfJ5PFFA2lohv7ZNx//i5MP9dGA2gM0zr3BJ9Z9vtiwIQjmGp/VuBz0lPOw7SLN0xDKo3nFDrXrN3n/DAARo4pq3cFpy7fNjBEMprbC/0mZOZ6OeFb92Q2JrznxurhJI5/ZGv44HN1xWTGs/vCH2EBOLhmrYuGRPL1lTvDDkHyH/EXmR5M+D/YVnqezEiZ9PMFhY7Z2K6SD1BG/x2Dzu+4lgHIhoJkyHYWdRBaD8k5mCym8AeaZmilLpiedROGj3UiGcBBZAJFbTBqh4W54SjEdAzi5uppamr6MwGrgnzOtljUAAAAAElFTkSuQmCC;" vertex="1" parent="1">
          <mxGeometry x="612" y="498.75" width="195.92" height="132" as="geometry" />
        </mxCell>
        <mxCell id="8LlulcfHmFQd0nab0qFh-22" value="" style="shape=image;verticalLabelPosition=bottom;labelBackgroundColor=default;verticalAlign=top;aspect=fixed;imageAspect=0;image=data:image/png,iVBORw0KGgoAAAANSUhEUgAAARoAAAC+CAYAAADqScD2AAAAAXNSR0IArs4c6QAAAARnQU1BAACxjwv8YQUAAAAJcEhZcwAAFxEAABcRAcom8z8AABB7SURBVHhe7d19kBTlgcfx/eNyl6TMbgpznN7FC1dJqjQXU2rlxdMyWGpOojFC7kS9wwSJFylTClHRiKhoiGvEl0RMUNjdEc4EDacIEhcVWGM4UVGpCjOuMUQENkBg9xbxrry/7Dy/fpl9ZvqZ3ZnZfmBn+XbVp9jpfp6enq5+fvM83T1N08GYWnKbP9qS23J6S1thYkt7YW6oo9DZ3FHoMn/vNn8HAPxobi/0q62F7a2j0Bq2v7b81LBN5rrHxc20MSd9gJb2LTPjD+fcAQBGgPZCt/m3tSWXPyFuviN7isKlMNck6ObyD3PS8j8EZ63cHkx+6o+hG37TF7rzpXeCts3/B8CTezYdKLa3bz69K2x/563uCdvkUUu6S9ppc3t+W0tHfuFHcq+fHDfrkTN9OJc/yvRc7jUb+P/JBusDnL5ie/Dd9X8KFrzyrnMHADj0rv11b/DVVTuCf3j4d6Wh05FfcUTut8fGzfwQTrltH4x7MPuTjRtvwuUas+GLzQcA0FhufaE/uMD0eEp7OvmF6kzErf7gTs1then2iVx1w7SRro0H0FjuM6OQSb/qCT6WK7wftvH2/HvqVKhzEUeA50m9mI7CsiRgjlv2e3owwCilc6gapSTt3QTORl1FjtPAz6TuU/hG5g1N0gXTntkdLH7tfwGMcnM29BWHU+EJY19XqLTi6Ix0IThm6RvhG7s2CMDodOeL+8MRTNyzeU/3xcXxkM0U3Wi3JbyipDe6++V3nBsCYHT72avvBqc+vq04lDKdj+/HMTG8ST2ZJGTGr3g7+Kl5o0XmDQEcvnRlqhg2bVsuiuOivim8PyYeLilkXG8I4PB0ydO7isOo+m/wC++RiU78fu6RrfRkAKRMWLUjHkIV+uv63ZSpHF7C/vjSN8JzMq43AXB4UwdE99BFPZtCd02XvsOb8UxFXcK+cUOf8w0AQH6y6UAwbuDnC8viGBliim7I26NK33l2j3PFAGCbt7E/7JiEYVPNPTbRjyOjy9iLXjUrAYAqfO3JndH5mo5CVxwn7im+8/c9Fb7++V7nygDA5e6X3hno1Qx2M1/SmznlsW3OFQHAYC7ujO6v0TOp4lgpncIb8+LnydyyoS948NV3AaAm979yILxSXbFXYxa0auHZq7Y7VwAA1bhkTdyrcZ2rSe4Avv75fc7KAFCNH78cn6vR+V77vho9rk8hoy7Pg6+YwgAwDCf+Mr6Jry0/NY4ZM2yK/vuT4Mwn3nZWAoBaXPr07iho7Bv4kt80XbVur7MSANTijhf2R+dp2gv94eM/w3tnzIyP5V4P7t90wFkJAGp13C+ih2Q1L85PiB5qZV6c8thbzsIAUI+Jq6M7hcOHmic/oDz3yR3BA68cAIBM/MczyXma/MLiieALn+pxFgaAenxv/d5o6NSRX6GfHeT0QunjKgwA9bh5Q28cNIUu3RHcqRfXPbc3eGCTKQAAGZi/sT8Kmvb8Ng2duvXitg19zsIAUC9li+4Qbgqf9Wle3PvifmdBAKhX8p/OaegU/rFw0zsAkKkkXwgaAN4QNAC8I2gAeEfQAPCOoAHgHUEDwDuCBoB3BA0A71JB87OX9wNApggaAN4RNAC8I2gAeEfQAPCOoAHgHUEDwDuCBoB3BA0A71JB89OX9gNApggaAN4RNAC8cwRNPwBkiqAB4B1BA8C7VNDc/2I/AGSKoAHgHUEDwDuCBoB3BA0A7wgaAN6lgmaBmQkAWSJoAHhH0ADwLh00G/8HADJF0ADwjqAB4F0qaO4zMwEgSwQNAO8IGgDeETQAvCNoAHiXDpoX+gAgUwQNAO8IGgDepYLmJ2YmAGSJoAHgHUEDwLt00Px3LwBkiqAB4B1B48EPVr0eXHn/ymDyrLvCf+94+g/OcoO57qHnwrr1uqvrj3Wtc/YvNqbqVfK9RWvqqlfulv96rWQb7GWNsB8wNIImIwqVT514avCBv/yroKmpKeVDR7SEy79162Jn/XIq61pPtdR4h7POcf/4+eBL51wcTLpqXsWgPOmsScXyzUeOdZaphr2ev/nEp0uWNcJ+wNAImmHSwaeD0XWQVqLyQx20h7qB2RQi0+9+NLU+zbPLqSdQXmYo6nHY4Xze9JtKljfCfsDQCJphKg+ZMUf/fTBh2nVhz0UN799uXBCcdcmM8CC1y/3dpz/r7NYn7Magdep1LTR8q3ed6lUk5RIKg/Ig0fbbn+vUiVNLlldD+8l+n/Jg0PYky0bqfsDQUkHzYzMT1fl269KSg1AB4yqXUODY5dUdd5UTHejVrrdatazzNtNAx184vVheFI7l5ewyGh7ON+FTXmYwx518ZrG+tq98eaPsBwyOoBmG4798TvHgU8/GVabcF814P6mj3oCrjBzqBpawt1dmLlpTslyv7eWXm6GFvXwwrWb4aA+b1PsrL9Mo+wGDI2iGQd9syYGn3oqrTDk1RPuA1Temq9xIaWA3m6FMUkdcYWAPMdQgy5dXonUl9RQ4Cp7yMo20H1BZOmg27EOV7KDR+QlXmXKta7aag3tW0W2r3Pu8tDHMcpapVb3r1JBosHqalyxXYMxf35Mq42Jvj648DVVmpO8HVEbQDMPxpw0MnZrHjK26gVVjpDawb85dlFp+8/LSb3tXmXIKWLtOOORylGuk/YDKCJphuODa+cUDT3QAq9G5ytZqpDSwmQ92FuuIXrvK2VffKvVObPa+GyykG20/wC0VNPeamaiOGseYo48pOQD/wgwdvnjORcF3FzzhrFMtuzGcbRqDq0yt6lmnPktSR0NFVxmxg0P74HYzRHSVS3zCCqbxky93lpFG2w9wI2iG6SbTgxnruN9C1OCO/dIZYSPUUMFVvxK7MehvNYhqVWrktTQwheiJ1h27+izX5rqcZUXvqTJJ+YtnL3CWE+2zpJyod+AqJ422H+BG0GRAB+OZU2aUjOFddICrAaq8az02uzHUSg15qHVWarT6HFpmh4Y+VzWNyz5npYB1lZGvTZ9TLKeQdpVJNOJ+QBpBkyEFiIJEjSw5OF0+MmZsePLTtY6E7wZWDYWAPs9Qw6CETpAmddVAK/Xi7B6gGrWrTKIR9wPSCBpPFDrTWpcEp0ycmjqPkxiskdmNITnnU61KPaZ6Gq1Cc6hQTOh97V6dhozlZW74+Qsl668UBolG3A9ISwXNPWYmsvcdc5C6ejqa7ypvNwYFkqtMrex1fsE02itMYyyn7dGwwb5HSL0TLXOts5zWm9TT+5Uv12cZbHm5Rt0PKEXQHGTqgicHrui8hquc7wZWzTrtYNRw71YzFHKVs6khJnVkjumx2Mvt3t2/mh6PvcylUfcDShE0h4B9FUNDDVeZkdDAfrhma9iwkjoTr5rnLFfODpNzp88pzp9h3Yui3oHWb9dzaeT9gAEETZ10sOmAFZ2HcZWppLxX42pwI6GBiYYPSR3d++IqU65SHXu+wtauU0kj7wcMSAXN3b/Zhyqce/nAJVp927nKVHLFfaXDi3mdW1NlPmk1hn++dFZqeT3qWedVD5TeEXujGQq5ytmuf7j0hK9ea77dK7j09iWpei6NvB8wgKCp0xTrUq5c3dHlLOdSTUiNlAYm9pWk86+c5yxTzj6Jqveyw1Wf+Ufrepz1yjX6fkCEoKmTGor9Da2Dt5rGo293u95nTzvHWW4kNTBtY1Kv0vaWs8NU96FoeJm81t+uOi6Nvh8QIWiGQd9qyYEnOoAH69lcNHtBybeiVCo/khqY/Tm1/a4y5eauNAdVXCepl/ytYYirjkuj7wdEUkFzl5mJ6n3hqwP3jdgHoQ7mE86cFC7X3/at7IkLTfC41il2Y6jH7OWvDbpONbDy5ZUoDO1167WrXDnXfUNjjjrGWbaS0bAfQNBkQgerK0gqUWO77K5HnetKjKQGJnaPRN/srjLlFKRJnUSt7zsa9gMImszcYoYKOmjtxx/YFEQa1//LNfODO9b1ONdhO23y5WGDqJe2Z7B1Dtabcjljyoxi3Wobpz5nUifhaviDGQ37AQSNV1c+0En3GjAIGgDepYJmvpkJAFkiaAB4R9AA8M4RNL0AkCmCBoB3BA0A71JBc6eZCQBZImgAeEfQAPCOoAHgXSpofmRmAkCWCBoA3hE0ALwjaAB4lwqaO57vBYBMETQAvCNoAHhH0ADwLhU0rWYmAGSJoAHgHUEDwDuCBoB3qaC53cwEgCwRNAC8I2gAeEfQAPAuFTQ//HUvAGSKoAHgHUEDwDuCBoB3qaCZZ2YCQJYIGgDeETQAvCNoAHiXCpofmJkAkCWCBoB3BA0A7wgaAN6lgua253oBIFMEDQDvCBoA3hE0ALxLBc2tZiYAZImgAeAdQQPAO4IGgHcEDQDvUkEzp6s3mGsWAEBWjszFQdPcnt+mP65e+ydnQQCo19iHuuOg6Sh06Y/L1uxyFgSAemiUpGxpaS/s1tBpmV5cvLrHLOwDgExcvXZvGDTN7YXN6tHcqxfnr9zhLAwA9bhsze6oR9NR6Gxqad8yUy/Oeny7szAA1EOjpLBH01HINTW3bblIL/5p+VvBLWYhAGTh62aUFPZo2gtzm1py+RP04pilbzgLA0A9Tnp0axQ0bfmpTZp0Vlgzrnhmj7MCANTixq6+4j00H87lj4qCpiO/UDPOXrHdWQkAajHlV7viYVN+YxgympoX5ydo5qcefjO42RQCgOE4eflb0Yng9vz345gxU27bB82M/Vowc+1eZ0UAqNbfLonuCD4i99tj45SJJjMzvHFv0qqdzooAUI1p8f0z+nlTHC8DU0tbYaIW6urT7C73CgBgKMf+/M3o/ExHoTWOl9JJtwqrwHlP7AhuMmEDALX499XJSeDC7pbc5o/G0VI6teS2nK5CRz/U/f7Va/c5VwQAleiCUhQ0W2bGseKemjvyK1Rw/GNvO1cEAC4TV+4s9mZ0gSmOFPeU3Cl8ZK7w/oxn9zpXCAC2G9YPXGkasjeTTMkNfDoxPGvdvmCOWREAVHJi/HOD8JEQ1U46iWO6P92q+LlHtjpXDAByxuPb455M/j2NiOIYqW5qyXWPS27i+/JjbzvfAMDhbfKT0aMgQm2FiXF81DYlV6Hk/JU7nW8E4PB02Zo94blc5UPpTw3qmJIHY2mFSi/9KhPA4e3bJmT++qHXo5DRg62ymJKTw/IVMx5zvTGAw4M6HElPxugc8lJ2LZO6RknYfP6XbwXXr3dvBIDRq3ji1wh7MlmGTDKFv4fSmWXzJp98+M1g5tp9zo0BMLqoY6EORjFkhntOZqgpvKEvfiKf/nOoCSu2B9et6wtmmw0BMPpcsKon+PjSN6KQUUej3qtLtU56NJ+enJWk29FLuoNvrOxxbiSAxvStp3aHI5ekneuxDzXfJ5PFFA2lohv7ZNx//i5MP9dGA2gM0zr3BJ9Z9vtiwIQjmGp/VuBz0lPOw7SLN0xDKo3nFDrXrN3n/DAARo4pq3cFpy7fNjBEMprbC/0mZOZ6OeFb92Q2JrznxurhJI5/ZGv44HN1xWTGs/vCH2EBOLhmrYuGRPL1lTvDDkHyH/EXmR5M+D/YVnqezEiZ9PMFhY7Z2K6SD1BG/x2Dzu+4lgHIhoJkyHYWdRBaD8k5mCym8AeaZmilLpiedROGj3UiGcBBZAJFbTBqh4W54SjEdAzi5uppamr6MwGrgnzOtljUAAAAAElFTkSuQmCC;" vertex="1" parent="1">
          <mxGeometry x="600" y="477.90999999999997" width="195.92" height="132" as="geometry" />
        </mxCell>
        <mxCell id="8LlulcfHmFQd0nab0qFh-23" value="" style="shape=image;verticalLabelPosition=bottom;labelBackgroundColor=default;verticalAlign=top;aspect=fixed;imageAspect=0;image=data:image/png,iVBORw0KGgoAAAANSUhEUgAAAFsAAAA6CAMAAADoQNVUAAAAAXNSR0IArs4c6QAAAARnQU1BAACxjwv8YQUAAAEdUExURQAAAAAgQAAgMAAgNQgoMAYmMwUlNQUkMgQkNAQjMgMjMwMjNAUlMgUlMwUkMgQkMwQkNAQkMwQkNAMjMwUlMwUlMgQkMwQkNAQkMwQkMwQkMwQkMwUlMwQkMwQkMwQkMwQkMwUlMwYnNQgoNwoqOQ0tPA4vPhAwPxAwQBExQBM0QxQ1QxU2RRY3RRw9TB0+TCBATyFCUSVGVidIVy1OXjBRYTNUYzNUZDlbakBhcENkc0RmdkVmdUZndkprekxtfE9xgFBxgFFygld5h1d5iVh6iVp8jF1/jl5/jl+BkWKElGiKmmuNnGyOnG6Qn3SXpnqdrICjsoGksoWouIyuvpK1xZi7yp7B0Z/C0aTH16rN3K/S47XZ6bvf78Hl9Q0RzGIAAAAgdFJOUwAIEBggKDA4QEhQWGBocHiAh4+Xn6evt7/Hz9ff5+/3v+H4wgAAAAlwSFlzAAAXEQAAFxEByibzPwAAA+lJREFUWEetmGtD2kgUhsF4iQgaXEFWQU5betl2tWWhlO7W0lpa2rRVWqVWSPj/P2PfM3NCBkEFkucLmczkdTw5t0liASzbcfKOnZThctpxtuw1GUXC2i6TZncFo1xRRnsbsmAu1vOFA6Ly7hbvbStQBuVMGhMjiim9fnbSe/IoKKUy/FN13bOTqroDKk3X7TQqfJmWZ2ZjeV89b1I7Hyqu6jyqXuiR5x5idJf4UipbYHIbyYTF1nzc6XnDYb/b4qep7mux4fAbRp9Go6FXw3hVRKZi74QGLedgj8rp6HHvJdFT/BnBa9EHuVSw+I7ITMHaFdmAew/kf1b03z78LpeKnvwKPWznxveZVnuuds574JT/R6ITeXAWnmN9cXNJ1MbYVFpXshDb/HyfyNz3XfzLAlRcFj2DNO5Xf8kyjdc6lquZGPxuP54qvgyD1MI3tSD+GTx9QjxPdBRZGlxAfE80hVW427hBFoXFx90lR9SWyai0ifKiqkHWiWfb8C/4eZCBGQsmkanoIDmYb9NGppCZ6BwR2aILLCTPqsxEB/seJa2VHY6nRzITmUuiA1FO2FI9LmUuKv+EfqIyVPXVfz9kKipnSJ8HlpLmMnUUl/uBrrKB2niyFEcaCfGbRC8gzk6YIjoMC1MM+M2a95ooC22kqLhiXfA9rkCcrlBt4/KPEB9GQfkpEF0re3GAyITBUX3nKVszorWzRA25sTj+ybVaiNIGe1uInK7cWpivRMemH59L6dmG3SN6is8V2AwS+OA2aye5L3vy5rwXwcsHEDPEkawkES7BVRQysxAc6UEB8NE1BckqaNRkajFYXHe4HPVlyd+I+spPt9GYq82ZBBW4xr997vUyWjquqB+gdegPB23u8h2R5gofS9Sj13//mpXLwa4TiaiWDmBfYfaMOoxhX6Yj8VErj7VUcBNXpiPRISpkcC402UB1iKPwwN4TZ8yYqhqCsTx5ZFBNvc5X3sKBz8GYE0ETFqfDpvvl7zn6zf7YNlQwXjO2Jjw7n8rau2lRPSwqVw08O4qYcZYy6sx/b46G8y+ioFvyEO+3ni3X7E1EP3Vk/Qg/PLiZDB5gcd097V24TQ5GnbBvgTNifSBPay6OprcvaqshhVtP20ySxSttQ917RvROrk3QgVCQm2f9vOHw0spxV2eBy7NjHk7W0z5a7HzCWnf+KOSd9PUj303YwfcSZUThq0gGdFEgS7pVnY+U8TUG/MnDpun3Xgt3yka2m4eVzQLyACjmnRX9EqgWGOayzd9R9u98d7exNoqypDqywIMaQF9mzTNeNFZFXSity/14sLJBWijtxKussZmpX16mkEj8D3ZCyPYYFA6aAAAAAElFTkSuQmCC;" vertex="1" parent="1">
          <mxGeometry x="756" y="465.75" width="69.82" height="44.5" as="geometry" />
        </mxCell>
        <mxCell id="8LlulcfHmFQd0nab0qFh-27" value="" style="shape=image;verticalLabelPosition=bottom;labelBackgroundColor=default;verticalAlign=top;aspect=fixed;imageAspect=0;image=data:image/png,iVBORw0KGgoAAAANSUhEUgAAARoAAAC+CAYAAADqScD2AAAAAXNSR0IArs4c6QAAAARnQU1BAACxjwv8YQUAAAAJcEhZcwAAFxEAABcRAcom8z8AABB7SURBVHhe7d19kBTlgcfx/eNyl6TMbgpznN7FC1dJqjQXU2rlxdMyWGpOojFC7kS9wwSJFylTClHRiKhoiGvEl0RMUNjdEc4EDacIEhcVWGM4UVGpCjOuMUQENkBg9xbxrry/7Dy/fpl9ZvqZ3ZnZfmBn+XbVp9jpfp6enq5+fvM83T1N08GYWnKbP9qS23J6S1thYkt7YW6oo9DZ3FHoMn/vNn8HAPxobi/0q62F7a2j0Bq2v7b81LBN5rrHxc20MSd9gJb2LTPjD+fcAQBGgPZCt/m3tSWXPyFuviN7isKlMNck6ObyD3PS8j8EZ63cHkx+6o+hG37TF7rzpXeCts3/B8CTezYdKLa3bz69K2x/563uCdvkUUu6S9ppc3t+W0tHfuFHcq+fHDfrkTN9OJc/yvRc7jUb+P/JBusDnL5ie/Dd9X8KFrzyrnMHADj0rv11b/DVVTuCf3j4d6Wh05FfcUTut8fGzfwQTrltH4x7MPuTjRtvwuUas+GLzQcA0FhufaE/uMD0eEp7OvmF6kzErf7gTs1then2iVx1w7SRro0H0FjuM6OQSb/qCT6WK7wftvH2/HvqVKhzEUeA50m9mI7CsiRgjlv2e3owwCilc6gapSTt3QTORl1FjtPAz6TuU/hG5g1N0gXTntkdLH7tfwGMcnM29BWHU+EJY19XqLTi6Ix0IThm6RvhG7s2CMDodOeL+8MRTNyzeU/3xcXxkM0U3Wi3JbyipDe6++V3nBsCYHT72avvBqc+vq04lDKdj+/HMTG8ST2ZJGTGr3g7+Kl5o0XmDQEcvnRlqhg2bVsuiuOivim8PyYeLilkXG8I4PB0ydO7isOo+m/wC++RiU78fu6RrfRkAKRMWLUjHkIV+uv63ZSpHF7C/vjSN8JzMq43AXB4UwdE99BFPZtCd02XvsOb8UxFXcK+cUOf8w0AQH6y6UAwbuDnC8viGBliim7I26NK33l2j3PFAGCbt7E/7JiEYVPNPTbRjyOjy9iLXjUrAYAqfO3JndH5mo5CVxwn7im+8/c9Fb7++V7nygDA5e6X3hno1Qx2M1/SmznlsW3OFQHAYC7ujO6v0TOp4lgpncIb8+LnydyyoS948NV3AaAm979yILxSXbFXYxa0auHZq7Y7VwAA1bhkTdyrcZ2rSe4Avv75fc7KAFCNH78cn6vR+V77vho9rk8hoy7Pg6+YwgAwDCf+Mr6Jry0/NY4ZM2yK/vuT4Mwn3nZWAoBaXPr07iho7Bv4kt80XbVur7MSANTijhf2R+dp2gv94eM/w3tnzIyP5V4P7t90wFkJAGp13C+ih2Q1L85PiB5qZV6c8thbzsIAUI+Jq6M7hcOHmic/oDz3yR3BA68cAIBM/MczyXma/MLiieALn+pxFgaAenxv/d5o6NSRX6GfHeT0QunjKgwA9bh5Q28cNIUu3RHcqRfXPbc3eGCTKQAAGZi/sT8Kmvb8Ng2duvXitg19zsIAUC9li+4Qbgqf9Wle3PvifmdBAKhX8p/OaegU/rFw0zsAkKkkXwgaAN4QNAC8I2gAeEfQAPCOoAHgHUEDwDuCBoB3BA0A71JB87OX9wNApggaAN4RNAC8I2gAeEfQAPCOoAHgHUEDwDuCBoB3BA0A71JB89OX9gNApggaAN4RNAC8cwRNPwBkiqAB4B1BA8C7VNDc/2I/AGSKoAHgHUEDwDuCBoB3BA0A7wgaAN6lgmaBmQkAWSJoAHhH0ADwLh00G/8HADJF0ADwjqAB4F0qaO4zMwEgSwQNAO8IGgDeETQAvCNoAHiXDpoX+gAgUwQNAO8IGgDepYLmJ2YmAGSJoAHgHUEDwLt00Px3LwBkiqAB4B1B48EPVr0eXHn/ymDyrLvCf+94+g/OcoO57qHnwrr1uqvrj3Wtc/YvNqbqVfK9RWvqqlfulv96rWQb7GWNsB8wNIImIwqVT514avCBv/yroKmpKeVDR7SEy79162Jn/XIq61pPtdR4h7POcf/4+eBL51wcTLpqXsWgPOmsScXyzUeOdZaphr2ev/nEp0uWNcJ+wNAImmHSwaeD0XWQVqLyQx20h7qB2RQi0+9+NLU+zbPLqSdQXmYo6nHY4Xze9JtKljfCfsDQCJphKg+ZMUf/fTBh2nVhz0UN799uXBCcdcmM8CC1y/3dpz/r7NYn7Magdep1LTR8q3ed6lUk5RIKg/Ig0fbbn+vUiVNLlldD+8l+n/Jg0PYky0bqfsDQUkHzYzMT1fl269KSg1AB4yqXUODY5dUdd5UTHejVrrdatazzNtNAx184vVheFI7l5ewyGh7ON+FTXmYwx518ZrG+tq98eaPsBwyOoBmG4798TvHgU8/GVabcF814P6mj3oCrjBzqBpawt1dmLlpTslyv7eWXm6GFvXwwrWb4aA+b1PsrL9Mo+wGDI2iGQd9syYGn3oqrTDk1RPuA1Temq9xIaWA3m6FMUkdcYWAPMdQgy5dXonUl9RQ4Cp7yMo20H1BZOmg27EOV7KDR+QlXmXKta7aag3tW0W2r3Pu8tDHMcpapVb3r1JBosHqalyxXYMxf35Mq42Jvj648DVVmpO8HVEbQDMPxpw0MnZrHjK26gVVjpDawb85dlFp+8/LSb3tXmXIKWLtOOORylGuk/YDKCJphuODa+cUDT3QAq9G5ytZqpDSwmQ92FuuIXrvK2VffKvVObPa+GyykG20/wC0VNPeamaiOGseYo48pOQD/wgwdvnjORcF3FzzhrFMtuzGcbRqDq0yt6lmnPktSR0NFVxmxg0P74HYzRHSVS3zCCqbxky93lpFG2w9wI2iG6SbTgxnruN9C1OCO/dIZYSPUUMFVvxK7MehvNYhqVWrktTQwheiJ1h27+izX5rqcZUXvqTJJ+YtnL3CWE+2zpJyod+AqJ422H+BG0GRAB+OZU2aUjOFddICrAaq8az02uzHUSg15qHVWarT6HFpmh4Y+VzWNyz5npYB1lZGvTZ9TLKeQdpVJNOJ+QBpBkyEFiIJEjSw5OF0+MmZsePLTtY6E7wZWDYWAPs9Qw6CETpAmddVAK/Xi7B6gGrWrTKIR9wPSCBpPFDrTWpcEp0ycmjqPkxiskdmNITnnU61KPaZ6Gq1Cc6hQTOh97V6dhozlZW74+Qsl668UBolG3A9ISwXNPWYmsvcdc5C6ejqa7ypvNwYFkqtMrex1fsE02itMYyyn7dGwwb5HSL0TLXOts5zWm9TT+5Uv12cZbHm5Rt0PKEXQHGTqgicHrui8hquc7wZWzTrtYNRw71YzFHKVs6khJnVkjumx2Mvt3t2/mh6PvcylUfcDShE0h4B9FUNDDVeZkdDAfrhma9iwkjoTr5rnLFfODpNzp88pzp9h3Yui3oHWb9dzaeT9gAEETZ10sOmAFZ2HcZWppLxX42pwI6GBiYYPSR3d++IqU65SHXu+wtauU0kj7wcMSAXN3b/Zhyqce/nAJVp927nKVHLFfaXDi3mdW1NlPmk1hn++dFZqeT3qWedVD5TeEXujGQq5ytmuf7j0hK9ea77dK7j09iWpei6NvB8wgKCp0xTrUq5c3dHlLOdSTUiNlAYm9pWk86+c5yxTzj6Jqveyw1Wf+Ufrepz1yjX6fkCEoKmTGor9Da2Dt5rGo293u95nTzvHWW4kNTBtY1Kv0vaWs8NU96FoeJm81t+uOi6Nvh8QIWiGQd9qyYEnOoAH69lcNHtBybeiVCo/khqY/Tm1/a4y5eauNAdVXCepl/ytYYirjkuj7wdEUkFzl5mJ6n3hqwP3jdgHoQ7mE86cFC7X3/at7IkLTfC41il2Y6jH7OWvDbpONbDy5ZUoDO1167WrXDnXfUNjjjrGWbaS0bAfQNBkQgerK0gqUWO77K5HnetKjKQGJnaPRN/srjLlFKRJnUSt7zsa9gMImszcYoYKOmjtxx/YFEQa1//LNfODO9b1ONdhO23y5WGDqJe2Z7B1Dtabcjljyoxi3Wobpz5nUifhaviDGQ37AQSNV1c+0En3GjAIGgDepYJmvpkJAFkiaAB4R9AA8M4RNL0AkCmCBoB3BA0A71JBc6eZCQBZImgAeEfQAPCOoAHgXSpofmRmAkCWCBoA3hE0ALwjaAB4lwqaO57vBYBMETQAvCNoAHhH0ADwLhU0rWYmAGSJoAHgHUEDwDuCBoB3qaC53cwEgCwRNAC8I2gAeEfQAPAuFTQ//HUvAGSKoAHgHUEDwDuCBoB3qaCZZ2YCQJYIGgDeETQAvCNoAHiXCpofmJkAkCWCBoB3BA0A7wgaAN6lgua253oBIFMEDQDvCBoA3hE0ALxLBc2tZiYAZImgAeAdQQPAO4IGgHcEDQDvUkEzp6s3mGsWAEBWjszFQdPcnt+mP65e+ydnQQCo19iHuuOg6Sh06Y/L1uxyFgSAemiUpGxpaS/s1tBpmV5cvLrHLOwDgExcvXZvGDTN7YXN6tHcqxfnr9zhLAwA9bhsze6oR9NR6Gxqad8yUy/Oeny7szAA1EOjpLBH01HINTW3bblIL/5p+VvBLWYhAGTh62aUFPZo2gtzm1py+RP04pilbzgLA0A9Tnp0axQ0bfmpTZp0Vlgzrnhmj7MCANTixq6+4j00H87lj4qCpiO/UDPOXrHdWQkAajHlV7viYVN+YxgympoX5ydo5qcefjO42RQCgOE4eflb0Yng9vz345gxU27bB82M/Vowc+1eZ0UAqNbfLonuCD4i99tj45SJJjMzvHFv0qqdzooAUI1p8f0z+nlTHC8DU0tbYaIW6urT7C73CgBgKMf+/M3o/ExHoTWOl9JJtwqrwHlP7AhuMmEDALX499XJSeDC7pbc5o/G0VI6teS2nK5CRz/U/f7Va/c5VwQAleiCUhQ0W2bGseKemjvyK1Rw/GNvO1cEAC4TV+4s9mZ0gSmOFPeU3Cl8ZK7w/oxn9zpXCAC2G9YPXGkasjeTTMkNfDoxPGvdvmCOWREAVHJi/HOD8JEQ1U46iWO6P92q+LlHtjpXDAByxuPb455M/j2NiOIYqW5qyXWPS27i+/JjbzvfAMDhbfKT0aMgQm2FiXF81DYlV6Hk/JU7nW8E4PB02Zo94blc5UPpTw3qmJIHY2mFSi/9KhPA4e3bJmT++qHXo5DRg62ymJKTw/IVMx5zvTGAw4M6HElPxugc8lJ2LZO6RknYfP6XbwXXr3dvBIDRq3ji1wh7MlmGTDKFv4fSmWXzJp98+M1g5tp9zo0BMLqoY6EORjFkhntOZqgpvKEvfiKf/nOoCSu2B9et6wtmmw0BMPpcsKon+PjSN6KQUUej3qtLtU56NJ+enJWk29FLuoNvrOxxbiSAxvStp3aHI5ekneuxDzXfJ5PFFA2lohv7ZNx//i5MP9dGA2gM0zr3BJ9Z9vtiwIQjmGp/VuBz0lPOw7SLN0xDKo3nFDrXrN3n/DAARo4pq3cFpy7fNjBEMprbC/0mZOZ6OeFb92Q2JrznxurhJI5/ZGv44HN1xWTGs/vCH2EBOLhmrYuGRPL1lTvDDkHyH/EXmR5M+D/YVnqezEiZ9PMFhY7Z2K6SD1BG/x2Dzu+4lgHIhoJkyHYWdRBaD8k5mCym8AeaZmilLpiedROGj3UiGcBBZAJFbTBqh4W54SjEdAzi5uppamr6MwGrgnzOtljUAAAAAElFTkSuQmCC;" vertex="1" parent="1">
          <mxGeometry x="624" y="288" width="195.92" height="132" as="geometry" />
        </mxCell>
        <mxCell id="8LlulcfHmFQd0nab0qFh-32" value="" style="shape=image;verticalLabelPosition=bottom;labelBackgroundColor=default;verticalAlign=top;aspect=fixed;imageAspect=0;image=data:image/png,iVBORw0KGgoAAAANSUhEUgAAARoAAAC+CAYAAADqScD2AAAAAXNSR0IArs4c6QAAAARnQU1BAACxjwv8YQUAAAAJcEhZcwAAFxEAABcRAcom8z8AABB7SURBVHhe7d19kBTlgcfx/eNyl6TMbgpznN7FC1dJqjQXU2rlxdMyWGpOojFC7kS9wwSJFylTClHRiKhoiGvEl0RMUNjdEc4EDacIEhcVWGM4UVGpCjOuMUQENkBg9xbxrry/7Dy/fpl9ZvqZ3ZnZfmBn+XbVp9jpfp6enq5+fvM83T1N08GYWnKbP9qS23J6S1thYkt7YW6oo9DZ3FHoMn/vNn8HAPxobi/0q62F7a2j0Bq2v7b81LBN5rrHxc20MSd9gJb2LTPjD+fcAQBGgPZCt/m3tSWXPyFuviN7isKlMNck6ObyD3PS8j8EZ63cHkx+6o+hG37TF7rzpXeCts3/B8CTezYdKLa3bz69K2x/563uCdvkUUu6S9ppc3t+W0tHfuFHcq+fHDfrkTN9OJc/yvRc7jUb+P/JBusDnL5ie/Dd9X8KFrzyrnMHADj0rv11b/DVVTuCf3j4d6Wh05FfcUTut8fGzfwQTrltH4x7MPuTjRtvwuUas+GLzQcA0FhufaE/uMD0eEp7OvmF6kzErf7gTs1then2iVx1w7SRro0H0FjuM6OQSb/qCT6WK7wftvH2/HvqVKhzEUeA50m9mI7CsiRgjlv2e3owwCilc6gapSTt3QTORl1FjtPAz6TuU/hG5g1N0gXTntkdLH7tfwGMcnM29BWHU+EJY19XqLTi6Ix0IThm6RvhG7s2CMDodOeL+8MRTNyzeU/3xcXxkM0U3Wi3JbyipDe6++V3nBsCYHT72avvBqc+vq04lDKdj+/HMTG8ST2ZJGTGr3g7+Kl5o0XmDQEcvnRlqhg2bVsuiuOivim8PyYeLilkXG8I4PB0ydO7isOo+m/wC++RiU78fu6RrfRkAKRMWLUjHkIV+uv63ZSpHF7C/vjSN8JzMq43AXB4UwdE99BFPZtCd02XvsOb8UxFXcK+cUOf8w0AQH6y6UAwbuDnC8viGBliim7I26NK33l2j3PFAGCbt7E/7JiEYVPNPTbRjyOjy9iLXjUrAYAqfO3JndH5mo5CVxwn7im+8/c9Fb7++V7nygDA5e6X3hno1Qx2M1/SmznlsW3OFQHAYC7ujO6v0TOp4lgpncIb8+LnydyyoS948NV3AaAm979yILxSXbFXYxa0auHZq7Y7VwAA1bhkTdyrcZ2rSe4Avv75fc7KAFCNH78cn6vR+V77vho9rk8hoy7Pg6+YwgAwDCf+Mr6Jry0/NY4ZM2yK/vuT4Mwn3nZWAoBaXPr07iho7Bv4kt80XbVur7MSANTijhf2R+dp2gv94eM/w3tnzIyP5V4P7t90wFkJAGp13C+ih2Q1L85PiB5qZV6c8thbzsIAUI+Jq6M7hcOHmic/oDz3yR3BA68cAIBM/MczyXma/MLiieALn+pxFgaAenxv/d5o6NSRX6GfHeT0QunjKgwA9bh5Q28cNIUu3RHcqRfXPbc3eGCTKQAAGZi/sT8Kmvb8Ng2duvXitg19zsIAUC9li+4Qbgqf9Wle3PvifmdBAKhX8p/OaegU/rFw0zsAkKkkXwgaAN4QNAC8I2gAeEfQAPCOoAHgHUEDwDuCBoB3BA0A71JB87OX9wNApggaAN4RNAC8I2gAeEfQAPCOoAHgHUEDwDuCBoB3BA0A71JB89OX9gNApggaAN4RNAC8cwRNPwBkiqAB4B1BA8C7VNDc/2I/AGSKoAHgHUEDwDuCBoB3BA0A7wgaAN6lgmaBmQkAWSJoAHhH0ADwLh00G/8HADJF0ADwjqAB4F0qaO4zMwEgSwQNAO8IGgDeETQAvCNoAHiXDpoX+gAgUwQNAO8IGgDepYLmJ2YmAGSJoAHgHUEDwLt00Px3LwBkiqAB4B1B48EPVr0eXHn/ymDyrLvCf+94+g/OcoO57qHnwrr1uqvrj3Wtc/YvNqbqVfK9RWvqqlfulv96rWQb7GWNsB8wNIImIwqVT514avCBv/yroKmpKeVDR7SEy79162Jn/XIq61pPtdR4h7POcf/4+eBL51wcTLpqXsWgPOmsScXyzUeOdZaphr2ev/nEp0uWNcJ+wNAImmHSwaeD0XWQVqLyQx20h7qB2RQi0+9+NLU+zbPLqSdQXmYo6nHY4Xze9JtKljfCfsDQCJphKg+ZMUf/fTBh2nVhz0UN799uXBCcdcmM8CC1y/3dpz/r7NYn7Magdep1LTR8q3ed6lUk5RIKg/Ig0fbbn+vUiVNLlldD+8l+n/Jg0PYky0bqfsDQUkHzYzMT1fl269KSg1AB4yqXUODY5dUdd5UTHejVrrdatazzNtNAx184vVheFI7l5ewyGh7ON+FTXmYwx518ZrG+tq98eaPsBwyOoBmG4798TvHgU8/GVabcF814P6mj3oCrjBzqBpawt1dmLlpTslyv7eWXm6GFvXwwrWb4aA+b1PsrL9Mo+wGDI2iGQd9syYGn3oqrTDk1RPuA1Temq9xIaWA3m6FMUkdcYWAPMdQgy5dXonUl9RQ4Cp7yMo20H1BZOmg27EOV7KDR+QlXmXKta7aag3tW0W2r3Pu8tDHMcpapVb3r1JBosHqalyxXYMxf35Mq42Jvj648DVVmpO8HVEbQDMPxpw0MnZrHjK26gVVjpDawb85dlFp+8/LSb3tXmXIKWLtOOORylGuk/YDKCJphuODa+cUDT3QAq9G5ytZqpDSwmQ92FuuIXrvK2VffKvVObPa+GyykG20/wC0VNPeamaiOGseYo48pOQD/wgwdvnjORcF3FzzhrFMtuzGcbRqDq0yt6lmnPktSR0NFVxmxg0P74HYzRHSVS3zCCqbxky93lpFG2w9wI2iG6SbTgxnruN9C1OCO/dIZYSPUUMFVvxK7MehvNYhqVWrktTQwheiJ1h27+izX5rqcZUXvqTJJ+YtnL3CWE+2zpJyod+AqJ422H+BG0GRAB+OZU2aUjOFddICrAaq8az02uzHUSg15qHVWarT6HFpmh4Y+VzWNyz5npYB1lZGvTZ9TLKeQdpVJNOJ+QBpBkyEFiIJEjSw5OF0+MmZsePLTtY6E7wZWDYWAPs9Qw6CETpAmddVAK/Xi7B6gGrWrTKIR9wPSCBpPFDrTWpcEp0ycmjqPkxiskdmNITnnU61KPaZ6Gq1Cc6hQTOh97V6dhozlZW74+Qsl668UBolG3A9ISwXNPWYmsvcdc5C6ejqa7ypvNwYFkqtMrex1fsE02itMYyyn7dGwwb5HSL0TLXOts5zWm9TT+5Uv12cZbHm5Rt0PKEXQHGTqgicHrui8hquc7wZWzTrtYNRw71YzFHKVs6khJnVkjumx2Mvt3t2/mh6PvcylUfcDShE0h4B9FUNDDVeZkdDAfrhma9iwkjoTr5rnLFfODpNzp88pzp9h3Yui3oHWb9dzaeT9gAEETZ10sOmAFZ2HcZWppLxX42pwI6GBiYYPSR3d++IqU65SHXu+wtauU0kj7wcMSAXN3b/Zhyqce/nAJVp927nKVHLFfaXDi3mdW1NlPmk1hn++dFZqeT3qWedVD5TeEXujGQq5ytmuf7j0hK9ea77dK7j09iWpei6NvB8wgKCp0xTrUq5c3dHlLOdSTUiNlAYm9pWk86+c5yxTzj6Jqveyw1Wf+Ufrepz1yjX6fkCEoKmTGor9Da2Dt5rGo293u95nTzvHWW4kNTBtY1Kv0vaWs8NU96FoeJm81t+uOi6Nvh8QIWiGQd9qyYEnOoAH69lcNHtBybeiVCo/khqY/Tm1/a4y5eauNAdVXCepl/ytYYirjkuj7wdEUkFzl5mJ6n3hqwP3jdgHoQ7mE86cFC7X3/at7IkLTfC41il2Y6jH7OWvDbpONbDy5ZUoDO1167WrXDnXfUNjjjrGWbaS0bAfQNBkQgerK0gqUWO77K5HnetKjKQGJnaPRN/srjLlFKRJnUSt7zsa9gMImszcYoYKOmjtxx/YFEQa1//LNfODO9b1ONdhO23y5WGDqJe2Z7B1Dtabcjljyoxi3Wobpz5nUifhaviDGQ37AQSNV1c+0En3GjAIGgDepYJmvpkJAFkiaAB4R9AA8M4RNL0AkCmCBoB3BA0A71JBc6eZCQBZImgAeEfQAPCOoAHgXSpofmRmAkCWCBoA3hE0ALwjaAB4lwqaO57vBYBMETQAvCNoAHhH0ADwLhU0rWYmAGSJoAHgHUEDwDuCBoB3qaC53cwEgCwRNAC8I2gAeEfQAPAuFTQ//HUvAGSKoAHgHUEDwDuCBoB3qaCZZ2YCQJYIGgDeETQAvCNoAHiXCpofmJkAkCWCBoB3BA0A7wgaAN6lgua253oBIFMEDQDvCBoA3hE0ALxLBc2tZiYAZImgAeAdQQPAO4IGgHcEDQDvUkEzp6s3mGsWAEBWjszFQdPcnt+mP65e+ydnQQCo19iHuuOg6Sh06Y/L1uxyFgSAemiUpGxpaS/s1tBpmV5cvLrHLOwDgExcvXZvGDTN7YXN6tHcqxfnr9zhLAwA9bhsze6oR9NR6Gxqad8yUy/Oeny7szAA1EOjpLBH01HINTW3bblIL/5p+VvBLWYhAGTh62aUFPZo2gtzm1py+RP04pilbzgLA0A9Tnp0axQ0bfmpTZp0Vlgzrnhmj7MCANTixq6+4j00H87lj4qCpiO/UDPOXrHdWQkAajHlV7viYVN+YxgympoX5ydo5qcefjO42RQCgOE4eflb0Yng9vz345gxU27bB82M/Vowc+1eZ0UAqNbfLonuCD4i99tj45SJJjMzvHFv0qqdzooAUI1p8f0z+nlTHC8DU0tbYaIW6urT7C73CgBgKMf+/M3o/ExHoTWOl9JJtwqrwHlP7AhuMmEDALX499XJSeDC7pbc5o/G0VI6teS2nK5CRz/U/f7Va/c5VwQAleiCUhQ0W2bGseKemjvyK1Rw/GNvO1cEAC4TV+4s9mZ0gSmOFPeU3Cl8ZK7w/oxn9zpXCAC2G9YPXGkasjeTTMkNfDoxPGvdvmCOWREAVHJi/HOD8JEQ1U46iWO6P92q+LlHtjpXDAByxuPb455M/j2NiOIYqW5qyXWPS27i+/JjbzvfAMDhbfKT0aMgQm2FiXF81DYlV6Hk/JU7nW8E4PB02Zo94blc5UPpTw3qmJIHY2mFSi/9KhPA4e3bJmT++qHXo5DRg62ymJKTw/IVMx5zvTGAw4M6HElPxugc8lJ2LZO6RknYfP6XbwXXr3dvBIDRq3ji1wh7MlmGTDKFv4fSmWXzJp98+M1g5tp9zo0BMLqoY6EORjFkhntOZqgpvKEvfiKf/nOoCSu2B9et6wtmmw0BMPpcsKon+PjSN6KQUUej3qtLtU56NJ+enJWk29FLuoNvrOxxbiSAxvStp3aHI5ekneuxDzXfJ5PFFA2lohv7ZNx//i5MP9dGA2gM0zr3BJ9Z9vtiwIQjmGp/VuBz0lPOw7SLN0xDKo3nFDrXrN3n/DAARo4pq3cFpy7fNjBEMprbC/0mZOZ6OeFb92Q2JrznxurhJI5/ZGv44HN1xWTGs/vCH2EBOLhmrYuGRPL1lTvDDkHyH/EXmR5M+D/YVnqezEiZ9PMFhY7Z2K6SD1BG/x2Dzu+4lgHIhoJkyHYWdRBaD8k5mCym8AeaZmilLpiedROGj3UiGcBBZAJFbTBqh4W54SjEdAzi5uppamr6MwGrgnzOtljUAAAAAElFTkSuQmCC;" vertex="1" parent="1">
          <mxGeometry x="612" y="276" width="195.92" height="132" as="geometry" />
        </mxCell>
        <mxCell id="8LlulcfHmFQd0nab0qFh-33" value="" style="shape=image;verticalLabelPosition=bottom;labelBackgroundColor=default;verticalAlign=top;aspect=fixed;imageAspect=0;image=data:image/png,iVBORw0KGgoAAAANSUhEUgAAAFsAAAA6CAMAAADoQNVUAAAAAXNSR0IArs4c6QAAAARnQU1BAACxjwv8YQUAAAEdUExURQAAAAAgQAAgMAAgNQgoMAYmMwUlNQUkMgQkNAQjMgMjMwMjNAUlMgUlMwUkMgQkMwQkNAQkMwQkNAMjMwUlMwUlMgQkMwQkNAQkMwQkMwQkMwQkMwUlMwQkMwQkMwQkMwQkMwUlMwYnNQgoNwoqOQ0tPA4vPhAwPxAwQBExQBM0QxQ1QxU2RRY3RRw9TB0+TCBATyFCUSVGVidIVy1OXjBRYTNUYzNUZDlbakBhcENkc0RmdkVmdUZndkprekxtfE9xgFBxgFFygld5h1d5iVh6iVp8jF1/jl5/jl+BkWKElGiKmmuNnGyOnG6Qn3SXpnqdrICjsoGksoWouIyuvpK1xZi7yp7B0Z/C0aTH16rN3K/S47XZ6bvf78Hl9Q0RzGIAAAAgdFJOUwAIEBggKDA4QEhQWGBocHiAh4+Xn6evt7/Hz9ff5+/3v+H4wgAAAAlwSFlzAAAXEQAAFxEByibzPwAAA+lJREFUWEetmGtD2kgUhsF4iQgaXEFWQU5betl2tWWhlO7W0lpa2rRVWqVWSPj/P2PfM3NCBkEFkucLmczkdTw5t0liASzbcfKOnZThctpxtuw1GUXC2i6TZncFo1xRRnsbsmAu1vOFA6Ly7hbvbStQBuVMGhMjiim9fnbSe/IoKKUy/FN13bOTqroDKk3X7TQqfJmWZ2ZjeV89b1I7Hyqu6jyqXuiR5x5idJf4UipbYHIbyYTF1nzc6XnDYb/b4qep7mux4fAbRp9Go6FXw3hVRKZi74QGLedgj8rp6HHvJdFT/BnBa9EHuVSw+I7ITMHaFdmAew/kf1b03z78LpeKnvwKPWznxveZVnuuds574JT/R6ITeXAWnmN9cXNJ1MbYVFpXshDb/HyfyNz3XfzLAlRcFj2DNO5Xf8kyjdc6lquZGPxuP54qvgyD1MI3tSD+GTx9QjxPdBRZGlxAfE80hVW427hBFoXFx90lR9SWyai0ifKiqkHWiWfb8C/4eZCBGQsmkanoIDmYb9NGppCZ6BwR2aILLCTPqsxEB/seJa2VHY6nRzITmUuiA1FO2FI9LmUuKv+EfqIyVPXVfz9kKipnSJ8HlpLmMnUUl/uBrrKB2niyFEcaCfGbRC8gzk6YIjoMC1MM+M2a95ooC22kqLhiXfA9rkCcrlBt4/KPEB9GQfkpEF0re3GAyITBUX3nKVszorWzRA25sTj+ybVaiNIGe1uInK7cWpivRMemH59L6dmG3SN6is8V2AwS+OA2aye5L3vy5rwXwcsHEDPEkawkES7BVRQysxAc6UEB8NE1BckqaNRkajFYXHe4HPVlyd+I+spPt9GYq82ZBBW4xr997vUyWjquqB+gdegPB23u8h2R5gofS9Sj13//mpXLwa4TiaiWDmBfYfaMOoxhX6Yj8VErj7VUcBNXpiPRISpkcC402UB1iKPwwN4TZ8yYqhqCsTx5ZFBNvc5X3sKBz8GYE0ETFqfDpvvl7zn6zf7YNlQwXjO2Jjw7n8rau2lRPSwqVw08O4qYcZYy6sx/b46G8y+ioFvyEO+3ni3X7E1EP3Vk/Qg/PLiZDB5gcd097V24TQ5GnbBvgTNifSBPay6OprcvaqshhVtP20ySxSttQ917RvROrk3QgVCQm2f9vOHw0spxV2eBy7NjHk7W0z5a7HzCWnf+KOSd9PUj303YwfcSZUThq0gGdFEgS7pVnY+U8TUG/MnDpun3Xgt3yka2m4eVzQLyACjmnRX9EqgWGOayzd9R9u98d7exNoqypDqywIMaQF9mzTNeNFZFXSity/14sLJBWijtxKussZmpX16mkEj8D3ZCyPYYFA6aAAAAAElFTkSuQmCC;" vertex="1" parent="1">
          <mxGeometry x="756" y="252" width="69.82" height="44.5" as="geometry" />
        </mxCell>
        <mxCell id="8LlulcfHmFQd0nab0qFh-43" value="" style="shape=image;verticalLabelPosition=bottom;labelBackgroundColor=default;verticalAlign=top;aspect=fixed;imageAspect=0;image=data:image/png,iVBORw0KGgoAAAANSUhEUgAAAJ8AAAB0CAMAAACsRhCTAAAAAXNSR0IArs4c6QAAAARnQU1BAACxjwv8YQUAAABjUExURQAAAAAAAAAAAAAAAAAAAAAAAAAAAAAAAAAAAAAAAAAAAAAAAAAAAAAAAAAAAAAAAAAAAAAAAAAAAAAAAAAAAAAAAAAAAAAAAAAAAAAAAAAAAAAAAAAAAAAAAAAAAAAAAAAAAGZodN4AAAAgdFJOUwAIEBggKDA4QEhQWGBocHiAh4+Xn6evt7/Hz9ff5+/3v+H4wgAAAAlwSFlzAAAXEQAAFxEByibzPwAAAa1JREFUeF7tm8uSgjAQRXkMw0NUVAYBBfL/X2k6aaZmNQt7c626Z6F2r1KnJHUbSEIIIYQQ8i9ZlesvTNLFuXm8dNW3NtBo3c4y9l/aRGLW5XlGbUFR6eKc2xD1Jcmgy3NHbYBRbHF5a6ENNK5xfW47awOM3O8xkTvmZnjySxvKh/9cW21BkT7ckifpBVZh4w7yhatQtxZghUol18raaAVI1ovCPtMSkFoULrVWgFChmewHXWG7+gU+S60Aye+i8JJqCUhQ+KBCA/gKp6BQK0TOEv8n1OzvKUQhavYPUKEZeIUh+2+Q41MEP/sDT6ARKjST3oJCZv/34fhkhgrNxOx/ZfZ/H45PZvAVHiW4Iitk9jdDhWbwFYbsPzH7vw/HJzMfoPAJrpDZ3wwVmsFXeJDsvzD7G+D4ZAZf4YiukNnfDBWawVcYHuCdtAKE45OZD1PYAR5K+KOw3CBf+A/Zf63lrWEH+SKpZn95EvrEzA1BYQB0P4wKPSvqtbyf6rhqDcbvqZgN8uBTJneRIoO2oNj/fgLiXYamu427wll7eBTVqRsn1HNPhBBCCAEhSV7mc0ZBGaI89QAAAABJRU5ErkJggg==;rotation=-75;direction=west;" vertex="1" parent="1">
          <mxGeometry x="189.19" y="505.95" width="155.92" height="113.75" as="geometry" />
        </mxCell>
        <mxCell id="8LlulcfHmFQd0nab0qFh-44" value="" style="shape=image;verticalLabelPosition=bottom;labelBackgroundColor=default;verticalAlign=top;aspect=fixed;imageAspect=0;image=data:image/png,iVBORw0KGgoAAAANSUhEUgAAAJ8AAAB0CAMAAACsRhCTAAAAAXNSR0IArs4c6QAAAARnQU1BAACxjwv8YQUAAABjUExURQAAAAAAAAAAAAAAAAAAAAAAAAAAAAAAAAAAAAAAAAAAAAAAAAAAAAAAAAAAAAAAAAAAAAAAAAAAAAAAAAAAAAAAAAAAAAAAAAAAAAAAAAAAAAAAAAAAAAAAAAAAAAAAAAAAAGZodN4AAAAgdFJOUwAIEBggKDA4QEhQWGBocHiAh4+Xn6evt7/Hz9ff5+/3v+H4wgAAAAlwSFlzAAAXEQAAFxEByibzPwAAAa1JREFUeF7tm8uSgjAQRXkMw0NUVAYBBfL/X2k6aaZmNQt7c626Z6F2r1KnJHUbSEIIIYQQ8i9ZlesvTNLFuXm8dNW3NtBo3c4y9l/aRGLW5XlGbUFR6eKc2xD1Jcmgy3NHbYBRbHF5a6ENNK5xfW47awOM3O8xkTvmZnjySxvKh/9cW21BkT7ckifpBVZh4w7yhatQtxZghUol18raaAVI1ovCPtMSkFoULrVWgFChmewHXWG7+gU+S60Aye+i8JJqCUhQ+KBCA/gKp6BQK0TOEv8n1OzvKUQhavYPUKEZeIUh+2+Q41MEP/sDT6ARKjST3oJCZv/34fhkhgrNxOx/ZfZ/H45PZvAVHiW4Iitk9jdDhWbwFYbsPzH7vw/HJzMfoPAJrpDZ3wwVmsFXeJDsvzD7G+D4ZAZf4YiukNnfDBWawVcYHuCdtAKE45OZD1PYAR5K+KOw3CBf+A/Zf63lrWEH+SKpZn95EvrEzA1BYQB0P4wKPSvqtbyf6rhqDcbvqZgN8uBTJneRIoO2oNj/fgLiXYamu427wll7eBTVqRsn1HNPhBBCCAEhSV7mc0ZBGaI89QAAAABJRU5ErkJggg==;rotation=0;direction=west;" vertex="1" parent="1">
          <mxGeometry x="201.35" y="344.25" width="131.59" height="96" as="geometry" />
        </mxCell>
        <mxCell id="8LlulcfHmFQd0nab0qFh-8" value="" style="shape=image;verticalLabelPosition=bottom;labelBackgroundColor=default;verticalAlign=top;aspect=fixed;imageAspect=0;image=data:image/png,iVBORw0KGgoAAAANSUhEUgAAAFoAAABJCAMAAACKNMEFAAAAAXNSR0IArs4c6QAAAARnQU1BAACxjwv8YQUAAAEaUExURQAAAAAgQAAgMAAgNQgoMAYmMwUlNQQkNAQjMgMjMwMjNAUlMgUlMwUkMgQkMwQkNAQkMwQkNAMjMwUlMwQkMwQkNAQkMwQkMwQkMwQkMwUlMwQkMwQkMwQkMwQkMwUlNAUmNQUnNwUoOAYoOAYqOgYrPQcsPQctPwcuQAgzRwk0SAo3TAo4Tgo5Tgs7UQs+Vgw9UwxAWAxCWw0+VA1AWA1BWQ1EXQ5GXw5IYg9HYQ9KZA9LZw9NaRBKZRFNaRFRbhFTcBNZeBNaexRegBVgghtkhR9nhyVrijFzkTp5lkSAm0qEnk+HoVaMpVyQqF6SqYqvwJK1xaC+zKXCz67I1Mja4s3d5eHq7+Lr7+zy9fb5+vj6+/v9/f///1jK5qsAAAAedFJOUwAIEBggKDBASFBYYGhweICHj5efr7e/x8/X3+fv9/ZdDxcAAAAJcEhZcwAAFxEAABcRAcom8z8AAAHISURBVFhH7dlrNwJBGMDxSSWXXAqrC4+kKCG55laUS6wIEcr3/xqe2X3YNccLdme9cOZ/jubYnfMzpunNxuyFJxIgo3h0iEQqOE13ZDTlJ5Xni9NVOcV85GLj+Huxup8ByNROXVWvrqI1Ri6G21w+2dko4tVDmuO8XVw2uYwFkMzjD69EE5xXR4VgxkKmauQJnVsp4OsBTXBeGU8gwR/0+vYSp6vuOt5JAUQI/rohMkpYhw9pPHfSiveTiyGdPykt5t2VxkOnadrkiO0DY9D0HrgIj2+IQCtFCylaSNFCihZStJCihf6WbnUbfDh/eTh7ejPqPZtjt9HiQ+/+wpho9Xv69FLX252mfvUx4r2mrt+9PhoTrRzQWLtjLtEczXs0w0oefdu7Ma599nMa/2ldv/Zi1cZbhn1Le7fX/E9KOSGYuGphK8wULfRT2kGKFlK0kKKFFC2kaKH/QfsHI5oW84IenqHnRdLpUYLl08FZgIVC1gs6ApA92uMPDqXT0wDLBiyftj0Ql00nAeZz2DzAGt13Xi0NECCYsTDA3FalsjkHUKYJjqvhopPkYj78rEgqxV/s320EcUvkZT1a5vVFpeHaAJmMMfYOBEIHWMVjjD8AAAAASUVORK5CYII=;" vertex="1" parent="1">
          <mxGeometry x="240" y="535.48" width="61.64" height="50" as="geometry" />
        </mxCell>
        <mxCell id="8LlulcfHmFQd0nab0qFh-7" value="" style="shape=image;verticalLabelPosition=bottom;labelBackgroundColor=default;verticalAlign=top;aspect=fixed;imageAspect=0;image=data:image/png,iVBORw0KGgoAAAANSUhEUgAAAFoAAABJCAMAAACKNMEFAAAAAXNSR0IArs4c6QAAAARnQU1BAACxjwv8YQUAAAEaUExURQAAAAAgQAAgMAAgNQgoMAYmMwUlNQQkNAQjMgMjMwMjNAUlMgUlMwUkMgQkMwQkNAQkMwQkNAMjMwUlMwQkMwQkNAQkMwQkMwQkMwQkMwUlMwQkMwQkMwQkMwQkMwUlNAUmNQUnNwUoOAYoOAYqOgYrPQcsPQctPwcuQAgzRwk0SAo3TAo4Tgo5Tgs7UQs+Vgw9UwxAWAxCWw0+VA1AWA1BWQ1EXQ5GXw5IYg9HYQ9KZA9LZw9NaRBKZRFNaRFRbhFTcBNZeBNaexRegBVgghtkhR9nhyVrijFzkTp5lkSAm0qEnk+HoVaMpVyQqF6SqYqvwJK1xaC+zKXCz67I1Mja4s3d5eHq7+Lr7+zy9fb5+vj6+/v9/f///1jK5qsAAAAedFJOUwAIEBggKDBASFBYYGhweICHj5efr7e/x8/X3+fv9/ZdDxcAAAAJcEhZcwAAFxEAABcRAcom8z8AAAHISURBVFhH7dlrNwJBGMDxSSWXXAqrC4+kKCG55laUS6wIEcr3/xqe2X3YNccLdme9cOZ/jubYnfMzpunNxuyFJxIgo3h0iEQqOE13ZDTlJ5Xni9NVOcV85GLj+Huxup8ByNROXVWvrqI1Ri6G21w+2dko4tVDmuO8XVw2uYwFkMzjD69EE5xXR4VgxkKmauQJnVsp4OsBTXBeGU8gwR/0+vYSp6vuOt5JAUQI/rohMkpYhw9pPHfSiveTiyGdPykt5t2VxkOnadrkiO0DY9D0HrgIj2+IQCtFCylaSNFCihZStJCihf6WbnUbfDh/eTh7ejPqPZtjt9HiQ+/+wpho9Xv69FLX252mfvUx4r2mrt+9PhoTrRzQWLtjLtEczXs0w0oefdu7Ma599nMa/2ldv/Zi1cZbhn1Le7fX/E9KOSGYuGphK8wULfRT2kGKFlK0kKKFFC2kaKH/QfsHI5oW84IenqHnRdLpUYLl08FZgIVC1gs6ApA92uMPDqXT0wDLBiyftj0Ql00nAeZz2DzAGt13Xi0NECCYsTDA3FalsjkHUKYJjqvhopPkYj78rEgqxV/s320EcUvkZT1a5vVFpeHaAJmMMfYOBEIHWMVjjD8AAAAASUVORK5CYII=;" vertex="1" parent="1">
          <mxGeometry x="240.00000000000003" y="370" width="61.64" height="50" as="geometry" />
        </mxCell>
        <mxCell id="8LlulcfHmFQd0nab0qFh-50" value="" style="shape=image;verticalLabelPosition=bottom;labelBackgroundColor=default;verticalAlign=top;aspect=fixed;imageAspect=0;image=data:image/png,iVBORw0KGgoAAAANSUhEUgAAAFoAAABnCAMAAAC3kqVDAAAAAXNSR0IArs4c6QAAAARnQU1BAACxjwv8YQUAAAA/UExURQAAAAAgQAUlNQQjMgUkMgQkMwQkNAQkMwUlMwQkMwQkMwQkMwcsPQcvQQgzRws7UQxCWw5GXxFRbhNZeBVggqKsfkYAAAALdFJOUwAIMEhweIC/3+/31YK0yQAAAAlwSFlzAAAXEQAAFxEByibzPwAAASZJREFUaEPt19luAjEQRFFnBRIIYYb//9YEjSOGwkv1YgkpfZ/dR5baL06VNp90mzzCFjQUNDSWPk1EJxU9nYkmFX34Ijr8ozWyPRY9cI0DH1/Q64KGgoaChoKGgoaChoKGgoaChoKGgoaChh6dfn0vteXpbR657e0ppedd/sZjLF3s4+Vy7ZptoRc528dvbM7TzeZ8+NpxJS/2npL6zfu17Gmj7Gffy152Sfaxy7KHXZPtdl222i3ZZrdli92T9XZf1tqMrLM5WWOzstzmZaktkWW2TJbYUpm35TJra2TO1smMrZX7tl7u2Ra5bdvklm2V67Zdrtkectn2kUu2l3xv+8loe8q3tq+8tr3lq+0v/9kj5GwPkRd7jLzYY+SLPUr+tQVySj+0jC/zipkvDQAAAABJRU5ErkJggg==;" vertex="1" parent="1">
          <mxGeometry x="600" y="648" width="90" height="103" as="geometry" />
        </mxCell>
        <mxCell id="8LlulcfHmFQd0nab0qFh-51" value="" style="shape=image;verticalLabelPosition=bottom;labelBackgroundColor=default;verticalAlign=top;aspect=fixed;imageAspect=0;image=data:image/png,iVBORw0KGgoAAAANSUhEUgAAAFoAAABnCAMAAAC3kqVDAAAAAXNSR0IArs4c6QAAAARnQU1BAACxjwv8YQUAAAA/UExURQAAAAAgQAUlNQQjMgUkMgQkMwQkNAQkMwUlMwQkMwQkMwQkMwcsPQcvQQgzRws7UQxCWw5GXxFRbhNZeBVggqKsfkYAAAALdFJOUwAIMEhweIC/3+/31YK0yQAAAAlwSFlzAAAXEQAAFxEByibzPwAAASZJREFUaEPt19luAjEQRFFnBRIIYYb//9YEjSOGwkv1YgkpfZ/dR5baL06VNp90mzzCFjQUNDSWPk1EJxU9nYkmFX34Ijr8ozWyPRY9cI0DH1/Q64KGgoaChoKGgoaChoKGgoaChoKGgoaChh6dfn0vteXpbR657e0ppedd/sZjLF3s4+Vy7ZptoRc528dvbM7TzeZ8+NpxJS/2npL6zfu17Gmj7Gffy152Sfaxy7KHXZPtdl222i3ZZrdli92T9XZf1tqMrLM5WWOzstzmZaktkWW2TJbYUpm35TJra2TO1smMrZX7tl7u2Ra5bdvklm2V67Zdrtkectn2kUu2l3xv+8loe8q3tq+8tr3lq+0v/9kj5GwPkRd7jLzYY+SLPUr+tQVySj+0jC/zipkvDQAAAABJRU5ErkJggg==;" vertex="1" parent="1">
          <mxGeometry x="717.92" y="648" width="90" height="103" as="geometry" />
        </mxCell>
        <mxCell id="8LlulcfHmFQd0nab0qFh-52" value="" style="shape=image;verticalLabelPosition=bottom;labelBackgroundColor=default;verticalAlign=top;aspect=fixed;imageAspect=0;image=data:image/png,iVBORw0KGgoAAAANSUhEUgAAAZ4AAACyCAMAAABFu1nEAAAAAXNSR0IArs4c6QAAAARnQU1BAACxjwv8YQUAAAEjUExURQAAAAAgQAAgMAAgNQgoMAYmMwUlNQUkMgQkNAQjMgMjMwMjNAUlMgUlMwUkMgQkMwQkNAQkMwQkNAMjMwUlMwUlMgQkMwQkNAQkMwQkMwQkMwQkMwUlMwQkMwQkMwQkMwQkMwUmNgYoOgcqPAgsQAgtQwkvRgoxSgszTQw1UA03Uw45Vg87Wg88XRA+YRJAYxJBZxNDahVFbBZHcBdJcxdKdxhMehlOfRpQgBtSgxxUhx1Wih5YjR5ZkR9bkyBdlyFfmihknS9poDZupD1zp0R4qkt9rVKCsFmHs2CMt2eRum6WvXWbwHygw4OlxomqypCvzZe0z52506S+1qvD2bLI3LnN38DS4sfX5s7c6dXh7Nzm7+Pr8urw9fH1+fj6/P///7iRcO4AAAAgdFJOUwAIEBggKDA4QEhQWGBocHiAh4+Xn6evt7/Hz9ff5+/3v+H4wgAAAAlwSFlzAAAXEQAAFxEByibzPwAADWhJREFUeF7tnAlb2loQhnFt3ONKeltr3DAgaJAtLoBLbe21tWo3b2sr//9X3JmTISSAaxEmOu/ztIZzSEjmY5ZzEk6EOz2ay7BeY8Z4CLQzMkIH7aUPEW7nBdhLiTDlmnPObBcv1edNe8J10Rk9Z/rADmNgEHSFV2QnRrxGxVCwAU17Qaf8pOkCPeByJ+CyX5MN7sCC5bJq18g7D6BAOyMpOugifcgdmIXTnnTV6qYLegJA6hhRHnJrqFI6JNF4Gdeepd124X5e1hPudtVeGlFdH9W0PrrMcAGioCb/0MU0YxHMkAJ75NAyZbITJzbhvNDj1uFEl+mkm/EKlRoMg1D92pA+bhhv6MTrWLKsNbhcuOotskCo2IYTTyu1YnRB9RjGBJYWZAw+9EEAm26uSsyybDvtONt0kU+EHcfJ2Hbcsugyg4A/jWn9ZJzO0Q2F8FSzPL9sJdBNinQxT5oSOlXSWqFL9/HGmAFv6iFjtZP+AdClIduvQDaBvE7n/ezYcnIY++bJGh4wohpsU23eBQ4TrR+mLENSybPM753BcUCmend6bYyPPGZN3jugR4OBbAEK4dzzCGEPoezk7bW6Kn3W0IdanpX6hsaDoWzZgijWvoFJuIGYlwj6kjEx3CKNugf0gDIrSbsQysK402w7MOYlIyqM8aG/m5LtG5nypZlFy86JMH/Jdt6OL5FBgdmZ0YcVDb0jM7N0DFAmbhckxbSMkmMnahrNRcfuGekGJmpes7KW26HDCi2kVLBrNfjs1NAd72J0DU1Vx//z8fSzHcS0h62NVa+ymxm+fQQ7OF2tA1Y2JNG0he1MoupFxvBNA6O+qt8sJXNSNbeTwhrNs85NXzelOmS474iln9j8ZTgoZuKu/V8NN0lDw+6EwNK6aNMxihnXh2ZH6wTS3EptVSqBDrOdVHlodpiEQbqnsGlhXQpoBpTSqpaLemVcH7rOgi3FABPKGyjQmwFXnQEspRMyKcCI8jo6kApw/aDOQoHaBSZs4dMnoE8XRLYlSTrsKK3AIKgnMmqa81JLM6QE/jMRiZpmmhoEVuRhhBqZNU2ZW+MJZJ8I/NuklwIryiRPgl4LrNggecwsNQiM2MTZHSWPmaEmgQ3OAgrjymMmZUaHFeW0qwvKg89gLUqAY4SDcwb4sAjKU07Bf2YsT31Ch3HU43BWCf5DeXZ3C+qxnuWMhLjOk1MPlC5AOQB/XHl2y7bKRAspmd/pKDu2++BOCm8gwF+SZ3e3ZLuPiyynZX60Q5Sy9JBv0pUAtjx5oDdDTy7GNkShtlPMJlzrL65Xb73BC588QMG90w1VQyoveah9eM9RmYls7WdS8DIoDyShnPdM3Iotv6hqA5tpeoAKirVM4J41tNTLA5RzSVUnICvrebnL/WjgY9ZkaPSbektDYxN5kM312q/Dl1Y35PmqlrOVSdZWS4Bc0iRQQcc18gDFbMq32kIsKRq1is3smu93WEurmWtGM9B5vTxIMb/u/0HXcsIuSFH3F5Sc9Kp/0YqVVPYGe8IbbpZHsbkROKRpyc8X74/66aKX0oGlxK0/zoF33UEehbORDGgkP/69K/jD3zrTJew7WQ7eeld5FJvZ9cA3ALDidtqRu+FN2HYydqLOXPPWWubuKRx2uJc8irKTtePBr4NpLlgJcCbJS0AR3CVp+X7eq1h6QLCB3e4vD7FdgJOojmA95nHVqcxzdCdcscVuthSctWrnH2YP2PnB8hCOAydVvz4JEsP1CwtPXagtXO8odY0B/nYlGzjI38pDlJ2Cvdb0LDHw4SKHuXYub/i4qGX4UlZDAHNZbtlKNnCwFsnjsQmZad2qLyA8Yhau72ZvOKFa4a0Ip4tLWSbg7OlCGsC1HeGyaI+WAEdttTweO/gVS14vlGIZrlet4aqWrKQ9Ow5ELHdhWFxYtHlEICDVJnDl2cf5qsEHPJo8PjYxQa3dvCJnlerCu2gd286iao+11CguFuo4efeT0DGA5vEqyJJaBDX/+F8n+Kx2yOOHDAJudZ9Vij3ANB7rrmHvAO2A1I8I7gL4iPJx/LK0M3/CR7dbnjrwGwwFqW2vou2UMToO5sc4npNasLmDt7zgXDosTyMltIkb+l0nezTZUAaVOxCV/JiNq+Ec2clzM7hacRXXrnehQHsAYZrLDZ88zwqRhzUiD2tEHtaIPKwReVgj8rBG5GGNyMMakYc1Ig9rRB7WiDysEXlYI/KwRuRhjcjDGpGHNSIPa0Qe1og8rBF5WCPysEbkYY3IwxqRhzUiD2tEHtaEQ56T09N3tBlg7+jk9Pv56fEhvfZDfR8a+o4+nn5r0syScMhzWal8pE0fh1/+VIj/Pu5RI+Hr+3FEbcjhD2qtXJ3tUxtjQizPZ7Kzy6+31Kw4oVaXC0+ID1fUhFwGdmFJaOXZ+4YW/np0tP/u6CP0V/7UnGTvS7Xv8Ogz9v0kfQ5Anavzo/3d98f/QfNlncvxI7TynIF5fxzQi91jsPsf7xX6ldendPzpCnEO6rxXW7u7n6D5hLbZElZ53qMCvi8/Rq0ftH2I274+VPKD2vpZqZyrDeQrRETaZEtY5QFDX3negmC2+dfdvKhUfgfCFgSyr2oDyoXacY5hD9pkS0jlOQTTfqZtl73flco3tfUW+oJR6yPopTbgPWdqA9k/OjrinnxCKg9ml7q6+BSyj7I29F0Fze4JAW70OwTldI2QygN2/kmbVY5AMZVhoK+aherBCPjLTUPhIKTyQEMtx7vsgenVm6DvuopsD1IWCHQSjikDIKTygJGDqQeAxHKKf6syNWMfhzvA5Zdw+FA45dlvJgF5FPbdYPvjX0ofSFRf+E8ahFSeAzDvMW17wJu+wB/s8+SBNuKCWnZ3352TQlcNDsiOcMqDAawhv8CbGoJbM3mAwxMYGwEoJ2tCKk9gAEOAuT/hX+jz3OLbhQL2/04tVQ7OcHaUewYKqTwQngLuALwDa6uAB331Wnxp5ig4D+QOZPkSUnnOGoaeOKa5UkNO6PujWmr8oLgXBFq5T7qFVB4cg9IMWxUY0rgOhbOlwb498BO83fA96FcoKG1yJaTyYIIJ3q35t5p61LuDUwrHNOd2Huz4VJ2K40tY5fkIaviLg7fwll+k1wfo88eyA9BSzTHgLR7fMwvgTPUJjBthlQcTh08DVKdSvdGGd3J82r2FsHepshLOav/0JnRwAo77/bjQyHN2VAO95ADHlr9c0d5+xSK5ZuoDnFq7dPsOz/CZELrRje5z9VnNFrxHfdnfzQ6NPH6UfffdZ26uLtw5gCt/NbAHcQv5Ce4C1B5DOFWvK/+5+/B/FiS88kB08jV/q5uE/uQKoPjhU+Ff3z7n/G/9hEOek9MAnlk/nF9cXP26+P45cF/bBfv+XF5c1PXtYXvl98X3T+xdBwiHPM8WkYc1Ig9rRB7WiDysEXlYI/KwRuRhjcjDGpGHNSIPa0Qe1og8rBF5WCPysEbkYY3IwxqRhzUiD2tEHtaIPKwReVgj8rBG5GGNyMMakYc1Ig9rRB7WiDysEXlYI/KwBuWZM80ivRR4MQ/y/GOaOXopsKJomrORCdOMlalB4ETCNKcjPRDdVqlBYIQNqac/EhmDP4kStQlcWANZJiMAhDdzqUCtAgu2VkCUaBfKE9Fh00zsUI/QcYroOua0q04kMjiLL5MiEAuKa1BRm3OjJA7QPYn6mHEpsTtOYVVJEe0haVz6Z1Tr4to2vU3oAMX0kpLB0EiWGv3TqseMZSTIdYRiNu4qEG0UB+nRVQ4ChexN2kVoE1vpmGv7N5N9JEcTBqZhlIrMJzIS5tpEMbu66FrdjA5Xy7Vr6B6eIYXMpWRW4twjU8qvkduY5svRXhLhRrqGpinKoUSZLTqS0GK2sylPmrmZ4WCtdjP9Y1HaEQKdZefFjVpKsWDHF8i84DbjL8js90HTDdofWLDsnPhRC9gBZaqpBng5PnBLurkJbWzGC3TASnLDkbt3D6TsZNYsnBEg3kR17S+kqdIzqBtv6JAKa9UuiCfdg23HTlm1YAapxhgfuqGAvj+9g3r0NR3cZdmyM47kpBspOTk74eV/xayht1aZGl3a6GTQkVCllJ135IZREKdgr1tBXcBlpsa0bjLl49GlDevRf+gzPWLWul147t5Ucpy0HbfIJB6vDX2kDcIE6NP0KSMY75B5C3TKOs9qWmjbydu2ZfkKMmLWmNYHH1I1t4xebUSfNvzlXZWYlbDtDcd5orNDO46Tse1Vq8FXgDkjqo9q/WQiDvRroyBTQ8xzWbSg2gOfcpxwPxW06UCut5OW5U78N/AaZNG1jrrLbbyA1DRhGNWZu0Yg/KFYSi3uJQWcIsQtFKRJ6PJ4aUyCs7RiENNGejVwKH3GqK/1GoBrV3rZObCG43RoSAXBCijgeaAagXFKMwzD0PUxjVUIeygvNG1M1+GKXtLF3U4MbWTF0VxARhnP5UEuV6adEQhQCkgcCH3g7byCCxjX9QGt+Q2zJ0KPpkE9oRzrVs/qLHCC4CIYuLRHGkqGAbh6bQjMALUF8Ips02Zm8bMhs+swRgHaPEwJHRAPgUG0FzCJxiMe5nG0MzJNBx1WH8E2pUci/wOT//seKOG0BQAAAABJRU5ErkJggg==;" vertex="1" parent="1">
          <mxGeometry x="502.96" y="768" width="414" height="178" as="geometry" />
        </mxCell>
        <mxCell id="8LlulcfHmFQd0nab0qFh-54" value="" style="shape=image;verticalLabelPosition=bottom;labelBackgroundColor=default;verticalAlign=top;aspect=fixed;imageAspect=0;image=data:image/png,iVBORw0KGgoAAAANSUhEUgAAAIwAAABsCAMAAACPWqqOAAAAAXNSR0IArs4c6QAAAARnQU1BAACxjwv8YQUAAABjUExURQAAAAAAAAAAAAAAAAAAAAAAAAAAAAAAAAAAAAAAAAAAAAAAAAAAAAAAAAAAAAAAAAAAAAAAAAAAAAAAAAAAAAAAAAAAAAAAAAAAAAAAAAAAAAAAAAAAAAAAAAAAAAAAAAAAAGZodN4AAAAgdFJOUwAIEBggKDA4QEhQWGBocHiAh4+Xn6evt7/Hz9ff5+/3v+H4wgAAAAlwSFlzAAAXEQAAFxEByibzPwAAAZBJREFUaEPtmMuSgkAMRQFBnoqAIg+V/v+vtAOZqllMZ5bJ4p6FxXWVykWhTxRFVew/jFC5OeVLddKPc5+agzqt8wxWqsrffpol46RN8vTTGKpq8+PczVT18tOsZqoa/TRbw0md615VwkmbfKWqzpy0SR5U1YWTOheq6mGlqvNeVc5Jm/hOVV05qdNQVaOVqjKq6mWqKtdyUqf2LznuaaaqxU/zNlPVYKqqiqqaTpy0SWeqquCkTdxTVTdO6uxVzVaqOlFVn5KTOh1V1XFQp7RV1URVVZzUuVFVvZWTTEGHTjN+4KgKfuBP4AcE4AfCwA8IwA8IwA+EgR8QgB8QgB8IAz8gAD8gAD8gAD8QBn5AAH5AAH4gDPyAAPyAAPxAGPgBAfgBAfiBMPADAvADAvADYSz7AfUd/fID2aZ/9vzxA/HqFv5KEfYD9K9s4Fi+Hzrp6WlhNewHCBPGouRhTKxmf4wTBlbT8CgWVpPtd++B+mrqkd79DkzcNXnTTaRObPygiKRoh56vAQAAAPAPUfQFXKFActNp0/UAAAAASUVORK5CYII=;" vertex="1" parent="1">
          <mxGeometry x="807.92" y="609.91" width="140" height="108" as="geometry" />
        </mxCell>
        <mxCell id="8LlulcfHmFQd0nab0qFh-55" value="" style="shape=image;verticalLabelPosition=bottom;labelBackgroundColor=default;verticalAlign=top;aspect=fixed;imageAspect=0;image=data:image/png,iVBORw0KGgoAAAANSUhEUgAAANIAAABzCAYAAADt2VwJAAAAAXNSR0IArs4c6QAAAARnQU1BAACxjwv8YQUAAAAJcEhZcwAAFxEAABcRAcom8z8AAA4ZSURBVHhe7Z17cBRVFsZTtaWr1pqhdEURXKhd44oKK1lKXFDwAT4SdYWSp2BFRElAJAokEAjGkADyVHkoJJNBfAACIkTNEoQgPlhUTG0xY8RXVETCy+iyW+5f3r2ne27nTvftyTTTbSU93636FTP3nPtI+nx9zu2ZaFoyLVAZuTsQjJQEqsLPpldF6gLB8N5AVYQB0NZJD0bqtZitiqzTYrgynBMI1XeIhrb3Lb3ywAh98fDP8sYA8Ak16ZWRXM9ERdknPRhulBftvu5zNuzNw2z8W0fZjHdOalTW/xeANk/xez9o8Zpfd1yL4X6vNspioozVHAgeyE8LNZ4VlUByLRAKXy2XbCSesTua2IJ9P7EKviEA/MIzH53SkkLmxi8lQfHkwZNIVA6n17QyLnjgfzRhtxcPsom7jio3AIDfmMwzVcZLn7UIqiqyNCoLZ40Giklu2/YtW7n/FKv4+D8ApBQjaw5LYgpvcXR2EiL6fSjC7q89wlbzCQFIVQr3nGAXPd8gMlNdQucm7TFgVEQ0gWpiAFKNsr3NrMvaTxMr8/QHC/qZ6KEdTcoJAUhVKLHwBPOLJqbKSG5UNtZGH1KR0x3Vh5QTAZDq0FGHNEKfo54TCl8UlU5L076lwB3oScWKj06x1fv5QACAhb6b9c+crCUePzwFgpEjZJy865hyMABAp+TdH9RZSTxgoA9bV+0/BQBohb6bv7JmJd5RQ50P1jaxVbysAwDEp2jPSV1IwXCjLqJQfQfxpO6pfT8pBwEArHR7UX8cfm7ok2vFt7lZr1e+VDoDANRkVx/Sz0pVkXnGtxjG1BxWOgMA1Dy265g4J9XR+WgdvZm08yh77qN/AwASZN77zXpGCkYa0sSfSBTtOaF0BgCoWfbhT0JIR9LEH+uRup77kDsAABJGfJmVSjvtxbNcXQAAZwj9QEgAJAGEBIALQEgAuACEBIALQEgAuIBFSCs/+BEA4BAICQAXgJAAcAEICQAXgJAAcAGLkFbs+xEA4BAICQAXUAipGQDgEAgJABewCGn5P5sBAA6BkKIUb/iALdzxtdLWVmgPe0xVUlZIE57axHoOyGZnnxtgaWlpBunnd2QZmdexrHGFbPraPcqxrTH3jYMxc05eWa30aw239ji6eIUxlsaofOy4NnuUMVb1c8hzO8HpPto6FiEt451+ppAH3nmd/qC8uCr+OmgIW8CzgGouO4bkz42Zow8PRpWfHW7vUQ7223kAq3zsoL2LsY9wIZntpyskp/to66SUkHLmBNkZZ/7WuJh0p79xRJ4WDBQkeTwD0AWmwJQvepfLejgSE/nL42nNJXualL5mvNjjryUkypI0fyKo5mrPWIW09wdfMqWi1rjgxKD78tmSt48ofYm8pRu1Ekr49+yfrfQzU7j2bWOMHISjZy1X+st4tUdaW/jc/gAXksLHjhghrdhmsSczt59ICSFRMF7YNcO44BSgKj8z5a9/GpMdHnzyBaWfzI3D8zRfGrdgR6MR6HS3VvkLvNwjhOQ9FiE9wzv9xrCCxcbFprPHYh60Kj8V1w2+3xh7AxeJykdA8wrhZPLSi/pIEGJ8GQ968xiBl3u81xTsZns8ZCFN4kIy25OZ20+khJC6X3uzcbFzSiuVPnbIpVq3q3orfQTjeDYQvvSa+uTxd+bNtowReLlHCMl7fC8kurPLpc/M9fuUfm5AZxRa4+zfBWIyiijZ6F/ZX+D1HiEk77EK6f2TvqLw+d3GhaZgVfm4QVl1gyEGKrVk2515xcYeHqvYHmMjvN7jvTPlYC9Q+tjRJ3ukMXbSci4kkz2Zuf2E74WUt+QV40J3zuih9HGDIZPLjXXMAVeyud6wmUVGeL1HOdjp/JWR2S9h5KeCrQmJ/ElMrTFuPi97TfO0dyxCepp3+olR0oXOHDhE6eMGJABagwJVZb+UBxnZqexbtPv7GJvXe5TnTwYSkhtzU5Yzz9PegZBcoEAqzQaOyVf6DJu2yPChO7Js+zWFREInUSeKOSO5MTeVuuZ52jtWIb13wlfkLt5gXOjOGVcpfZLlhuG5xhpFL+9V+szf/qVxhurRPyvG5vUeR81cZsx/29gCpY8dfbLkM9JWiz2Zuf2E74VUsCb2IK/ySYZFdYdj7tqX9uJ3XRuEkOjfOds+Mebweo8Qkvf4XkgU6CKACbuMEQ8KEOLOXF6SmGzj5q015nbC4EfKjDm83iOE5D0WIT3FO/0GlVLiYg/lZxWVjx35q/9hjO12ZW+LXZ5bzj52CMGY5/Jyj+ZgN9vjcY0kpIe5kMz2ZOb2EykhJPliUxm2kGcAlZ8KCg4xdgA/C8m2Ul6e2QnDjsyBg435ZvDMI/q92iMBIXmPVUjvHvcdC3d9px3ixQW/JmuE0s/MjJfejym5poXqYuxUngkbvZZtdtxXstoYM3D0ZKPfqz0So4rkYJ9msceD9iHGPrzsNYs9mbn9REoIiaAAkwOOMkPpNvufl4LmvE6XxPibfUTg07zx5pIhwYh9pJ/XMcbmxR4JCMl7LEJayjv9yvjFG7QPRMWFJyhQbuUBQJli6NSF2ms6y8g+l/e5SROAPNdUHvSyXba1Ri+pvKM9yTY39ygYKQU7jVX52CELaSIXktkuz02ils+D8aBx5rnaMyklJIJKIbmEao2befmlCtABw8YbPhTgZns85PKOAtVsd2uPgl9LSE5wuo+2TsoJSZC/qkYLEro7mi9y1yt7sztyZ7HijR8rxxKUVcTdNV4QqyB/MTZeNkt2jwLKcmI9p5mA1hBjKQub7fLcTvB9RlrCOwEAzoCQAHABi5AWv3McAOAQCAkAF7AIaRHvBAA4A0ICwAUgJABcwCKkhbwTAOAMCAkAF1AI6QQAwCEQEgAuYBHSAt4JAHAGhASAC0BICTB0+tPaN65HlVRo7+fvbmI3jslnZ5/bwfg2dseuGSwrdzYr33HIGNd/+ATDbqbzZT0NXzs/mnPErJXGmlf0u1Xrv/L6LGMNwfRX9hv7oX26uTYxYcXrWv+g+wuMPtCCRUhP8k7QQvnOw6zDhV204CvjwUd910vBdwEPOFlQdn5mEvUjSBjkd09U0GeedQ6bXX1Q6xOYbW6vPY8LuTsXsmptACG1igjQgfxOTO+FsOQgIx5YrP/3u39zxpns4dW1Wp8IUsogwk+Fym/G5n8Z64j+QlPWEb4iyKlf7NPttQnz7wK0YBHS/D28jAAac+taAnTk4xVaX9lbLULqnX0vm1N7yDJOIAepyi6w8zP3y/uRfQs26AIjEU9cVasca0eiaxNiHcpo8X7uVARCioMQDZUzxdsOGv0iyAR/vLovG1O+1hJcsl/Xq66JQQhT9pODdsamlqwg+95T2FLCiT2JPjnAvVjb7vcBIKS42N2BKTMMnrIo5mxEUEbInlhq+JkFJ6MKZjPm+QgRzCL7yFmKSq7W5iROd22xlpz5gI5FSPN4J9AZv1x/UnUxF1IpF5LKp2hLhN3NRdX5z38xgnAED1SyXRcN0iv43d48Tkb4qaDy0c7/Zi4cuaybwIPb7OPm2uWSaMXPCHQgpDiohETCyVmwno1dsilGXHKQUYBTn9Nglv2EQFRBK+9rdNka47W8Hy/WhpDssQhpLu8EOtOiAUVB+gQPUup7KBrExNCZKw3fQulcQUKiPjlIhZ8KOz+7/lKpvBOZUKwp8GLtMi6ky6OlHWU/2T/VgZDiIAKWDtcz+eGa+kQwUZAJ5LOS7CuCUYUsTrtgFqKV5xTIc6sC24u1Vb8PoGMRUvnbPIUDjTm7uGj66nfgvOdqY/r//ljsuYh8et0yjE1e867h129Y/GAu2X4oxo+CWYwlpq5vKbGGz66IscmZUZ5L4MXaok+1XqoDIbXCkOij5ZtyCpT2VAK/C3sgpFbAXVhHZGcq64q2HlT6pDIWIZXxThALlT9UuuXy8k5lTwUejJaS3XkJqLKnOhBSgjz68ofscZ6RVLZUoJRnJPodqGxAIaQ5vBMA4AwICQAXsAipdDdP4wAAR0BIALgAhASAC1iE9ATvBAA4A0ICwAUgJABcwBBSejDSTC+m7TzGSrgBAJA4Fz/fYAipnl5MrG3ihpMAAAdoGSkY/plKuxp6k/Pm90pHAICaaTv1/xtFejDcyIUUfpbeDK3+jj3OjQCAxJjAqzhNSFWRurRA8EA+vfnbxq+UzgAANVmvfSOEFEoLhBq60ZuOaxrYzDr1AACAlctf+kwXUuWBEWnUxAOH+/g5aTZ3AADEZ0r0fKQ9aAg1nqUJKRCMlFBn5oYvlIMAALHctfVbXUhVkXWaiKidEwpfRMoiQ+72JlbMSzwAgJoCno06rWn4RRNSZeTuqIz0xg9MS8nQc/0XysEAAJ0Bm78WZd3eqHxampaVqiJN5DC8+jvlBACkOhNrj7LzQ1pJxwKh8NVR+cS29MpILjmQI5V4s/hAAIAOfQB7ydpPrWcjVSMHcqQBj751XDkhAKnG9F0n2RXrPtdERE+5jSd1to07UO1HA7q9cJBN4KmMPl8CIFWZyjOREFEgGDlCn71G1RK/aR/SBiMNNPCCNZ/8MvqN75ULAOB3KJFQQolmombbc5FdC4TqO6RXhbdoKuT029TI8nmpp1oMAL9BWWjQq99oiSQqovqEM5GqiQ9rCXoI0X/T12xS7TFWxGtGAPzGFJ4ssl/7lnWK/p2RJiJKKDyxRCVx+o2UKGcn4k8vfsZu2/ING1vTpNwQAO2FvO1H2V1bD7Ee678w4luDnhWEDtwQlYF7jepDvsA68S0IM11aHg0C0KYR5x4VWtIwf2PBq0YL0dfH6W8xtEOYYkMAtAe0GNbEE845vRIuLe3/Xxc0pJ1D6O4AAAAASUVORK5CYII=;" vertex="1" parent="1">
          <mxGeometry x="936" y="696" width="210" height="115" as="geometry" />
        </mxCell>
        <mxCell id="8LlulcfHmFQd0nab0qFh-57" value="" style="shape=image;verticalLabelPosition=bottom;labelBackgroundColor=default;verticalAlign=top;aspect=fixed;imageAspect=0;image=data:image/png,iVBORw0KGgoAAAANSUhEUgAAAHAAAABJCAMAAADSS1IcAAAAAXNSR0IArs4c6QAAAARnQU1BAACxjwv8YQUAAAFWUExURQAAAAAgQAAgMAAgNQgoMAYmMwUlNQQkNAQjMgMjMwMjNAUlMgUlMwUkMgQkMwQkNAQkMwQkNAMjMwUlMwQkMwQkNAQkMwQkMwQkMwQkMwUlMwQkMwQkMwQkMwQkMwUlNAUmNQUnNwUoOAYoOAYqOgYrPQcsPQctPwcuQAgzRwk0SAo3TAo4Tgo5Tgs7UQs+Vgw9UwxAWAxCWw0+VA1AWA1BWQ1EXQ5GXw5IYg9HYQ9KZA9LZw9NaRBKZRFNaRFRbhFTcBNZeBNaexRegBVgghtkhR9nhyVrijFzkTp5lj58mEN/m0SAm0qEnk+HoVCIoVaMpVyQqF6SqWeXrmqasG6csnmkt36nuoSrvYatvoqvwJW3x5u7yqXCz6rF0a7I1LLL1r7T3MLW38ja4s3d5dTi6Njk6trm697p7eHq7+Tt8ejv8+zy9fL2+Pb5+vj6+/v9/f///w0A234AAAAedFJOUwAIEBggKDBASFBYYGhweICHj5efr7e/x8/X3+fv9/ZdDxcAAAAJcEhZcwAAFxEAABcRAcom8z8AAAJ8SURBVGhD7ZnpUxMxFMBToeKBR1EXCvo4BKWiIh5YLyolC1hYkIpYqrYq9cLasv//F1+yz+muRV1qkmHG/GaaSdI3+eV6/dCwML3nBkEf6b4T5CGS/fSNPi50kUuQSFOvTgYSZEPOYns693AcYDzPNbCQu4GGM2RD8Piy87O3p7H3McWo5j4ukWyMdaMogx/BDAWoZgHHJh1jPYFLYlA4eX0Ky0cUoJos5gbpfgpv3bsqhDkdPJ0dAUiRLrql+hhspQUKMSM0kz5KNgSFmfmZKxkdjGE6OI5z/lQo7aWQzlY5mG49pGlhhf+CFSrHCpVjhcqxQuVYoXIOrdCt+YK31OycuMLFesnz1uomha9EYU648n2DhG6l4fvvlziv7oj+Bk7klxrnxeYy59sNf6+CcVHiCuUQUlhurvOCqPxFKOM+Be0QcYXlrzhXKdx+g80qNqs7nudtBppWTUajUJ5BMM8IcYVypOAMN999/OILoby3vtBEat9KwrOCG490KgxUonRru1vearBC7NpnS8t7G1IoVthOTKG8M1IYDPQnIVbkloopFj93tsJn1eZzPKa1emV1sV5Zwov6e6H7Wq4QF1rihRrGRYklpJ8ZQXO5iLe9JO7QvkIM2d0K7gqmhf+hs7Rwa2J7BOW2S3BQDqeQv1inSuFl2x4dkHhChVihcqxQOVaoHCtUzv8n7DqecpwBc8KTF+kfaUPC06QzJUxeArg8NWFOmAKYePJAPI8YEvYDXJM6U8LQM6UZ4RDA6CQyCnCTvldNfgygm3SM9QIM352buzMMkKUAxeRxgUNkQxKY8VoZEUX4fTuJm6qb1iOe4EifZqVzjEyMMfYDP9SruTGUEnoAAAAASUVORK5CYII=;" vertex="1" parent="1">
          <mxGeometry x="824.91" y="630.75" width="92.05" height="60" as="geometry" />
        </mxCell>
        <mxCell id="8LlulcfHmFQd0nab0qFh-58" value="" style="shape=image;verticalLabelPosition=bottom;labelBackgroundColor=default;verticalAlign=top;aspect=fixed;imageAspect=0;image=data:image/png,iVBORw0KGgoAAAANSUhEUgAAAFsAAAA6CAMAAADoQNVUAAAAAXNSR0IArs4c6QAAAARnQU1BAACxjwv8YQUAAAEdUExURQAAAAAgQAAgMAAgNQgoMAYmMwUlNQUkMgQkNAQjMgMjMwMjNAUlMgUlMwUkMgQkMwQkNAQkMwQkNAMjMwUlMwUlMgQkMwQkNAQkMwQkMwQkMwQkMwUlMwQkMwQkMwQkMwQkMwUlMwYnNQgoNwoqOQ0tPA4vPhAwPxAwQBExQBM0QxQ1QxU2RRY3RRw9TB0+TCBATyFCUSVGVidIVy1OXjBRYTNUYzNUZDlbakBhcENkc0RmdkVmdUZndkprekxtfE9xgFBxgFFygld5h1d5iVh6iVp8jF1/jl5/jl+BkWKElGiKmmuNnGyOnG6Qn3SXpnqdrICjsoGksoWouIyuvpK1xZi7yp7B0Z/C0aTH16rN3K/S47XZ6bvf78Hl9Q0RzGIAAAAgdFJOUwAIEBggKDA4QEhQWGBocHiAh4+Xn6evt7/Hz9ff5+/3v+H4wgAAAAlwSFlzAAAXEQAAFxEByibzPwAAA+lJREFUWEetmGtD2kgUhsF4iQgaXEFWQU5betl2tWWhlO7W0lpa2rRVWqVWSPj/P2PfM3NCBkEFkucLmczkdTw5t0liASzbcfKOnZThctpxtuw1GUXC2i6TZncFo1xRRnsbsmAu1vOFA6Ly7hbvbStQBuVMGhMjiim9fnbSe/IoKKUy/FN13bOTqroDKk3X7TQqfJmWZ2ZjeV89b1I7Hyqu6jyqXuiR5x5idJf4UipbYHIbyYTF1nzc6XnDYb/b4qep7mux4fAbRp9Go6FXw3hVRKZi74QGLedgj8rp6HHvJdFT/BnBa9EHuVSw+I7ITMHaFdmAew/kf1b03z78LpeKnvwKPWznxveZVnuuds574JT/R6ITeXAWnmN9cXNJ1MbYVFpXshDb/HyfyNz3XfzLAlRcFj2DNO5Xf8kyjdc6lquZGPxuP54qvgyD1MI3tSD+GTx9QjxPdBRZGlxAfE80hVW427hBFoXFx90lR9SWyai0ifKiqkHWiWfb8C/4eZCBGQsmkanoIDmYb9NGppCZ6BwR2aILLCTPqsxEB/seJa2VHY6nRzITmUuiA1FO2FI9LmUuKv+EfqIyVPXVfz9kKipnSJ8HlpLmMnUUl/uBrrKB2niyFEcaCfGbRC8gzk6YIjoMC1MM+M2a95ooC22kqLhiXfA9rkCcrlBt4/KPEB9GQfkpEF0re3GAyITBUX3nKVszorWzRA25sTj+ybVaiNIGe1uInK7cWpivRMemH59L6dmG3SN6is8V2AwS+OA2aye5L3vy5rwXwcsHEDPEkawkES7BVRQysxAc6UEB8NE1BckqaNRkajFYXHe4HPVlyd+I+spPt9GYq82ZBBW4xr997vUyWjquqB+gdegPB23u8h2R5gofS9Sj13//mpXLwa4TiaiWDmBfYfaMOoxhX6Yj8VErj7VUcBNXpiPRISpkcC402UB1iKPwwN4TZ8yYqhqCsTx5ZFBNvc5X3sKBz8GYE0ETFqfDpvvl7zn6zf7YNlQwXjO2Jjw7n8rau2lRPSwqVw08O4qYcZYy6sx/b46G8y+ioFvyEO+3ni3X7E1EP3Vk/Qg/PLiZDB5gcd097V24TQ5GnbBvgTNifSBPay6OprcvaqshhVtP20ySxSttQ917RvROrk3QgVCQm2f9vOHw0spxV2eBy7NjHk7W0z5a7HzCWnf+KOSd9PUj303YwfcSZUThq0gGdFEgS7pVnY+U8TUG/MnDpun3Xgt3yka2m4eVzQLyACjmnRX9EqgWGOayzd9R9u98d7exNoqypDqywIMaQF9mzTNeNFZFXSity/14sLJBWijtxKussZmpX16mkEj8D3ZCyPYYFA6aAAAAAElFTkSuQmCC;" vertex="1" parent="1">
          <mxGeometry x="1092" y="684" width="69.82" height="44.5" as="geometry" />
        </mxCell>
        <mxCell id="8LlulcfHmFQd0nab0qFh-59" value="" style="shape=image;verticalLabelPosition=bottom;labelBackgroundColor=default;verticalAlign=top;aspect=fixed;imageAspect=0;image=data:image/png,iVBORw0KGgoAAAANSUhEUgAAAXgAAADICAMAAADV/gpVAAAAAXNSR0IArs4c6QAAAARnQU1BAACxjwv8YQUAAAF0UExURQAAAAAAAAAgQAAAAAAgMAAgNQAAAAgoMAAAAAYmMwAAAAUlNQAAAAUkMgAAAAQkNAAAAAQjMgAAAAMjMwAAAAMjNAAAAAUlMgAAAAUlMwAAAAUkMgQkMwAAAAQkNAQkMwAAAAQkNAMjMwAAAAUlMwAAAAUlMgAAAAQkMwAAAAQkNAAAAAQkMwAAAAQkMwAAAAQkMwAAAAQkMwAAAAUlMwAAAAQkMwQkMwQkMwAAAAQkMwUlMwYmNAYmNQcnNQgoNwkpNwkpOAoqOAoqOQsrOg0tPBAwPxEyQBU2RRY3RRk6Shs8TBw9TCBBUCFCUSZGVSdIVyhJWS1OXjBRYDJTYjNUYzNVYzlbajxdbD5fbUBhcEZndkhqekprekxtfE1ufVFyglJ0g1d5iV1/jmGDkWKElGOFlGiKmm6Qn3SXpnqdrH+isoWouIequoyuvo6xwI6xwZK1xZS3x5i7ypm8zJ7B0aTH16rN3K/S47XZ6bvf78Hl9SU+N7sAAAA5dFJOUwAICBAQGCAgKCgwMDg4QEBISFBQWFhgYGhocHB4gICHj4+Xn5+np6+vt7e/v8fHz8/X19/f5+fv93yoB1YAAAAJcEhZcwAAFxEAABcRAcom8z8AAAXDSURBVHhe7dz9X5pVGMdxIh9Sp+aMLafBXDbNMUfORK5arblsFplZtMIym9GUmcWWE/Cf75zDhYjypNzDevF5/3RuXuPcr33v4+E695MPAAAAeBV6X9cGWunSZKxLm2idgVuxWJsG33vtNW21nou9XYMfiH34tjZb7PJtF3v7Bh+L3b2iGy10+U4hdeP2rTLvv1PftYH6/uPH0wbf+ui7SrFfqA/0YNdyXQ92LXqsa7mk//WiQvCx2J3L+kFrdL2r+8XFRf+Wjgn1po6iWq7raKzlrnb/PzCpmbRI13uF3V7gZPyGHuxarunBrkWPdS3FUuK0C/iJ7Z20O27PquaKC/1iKhvDRt/Owbd4fj+ud7J9g7/A2NvXldgtYr8Ilwa0AQAAAAAAAAAAAAAAAAAAAAAAAAAAAAAAAAAAAAAAAAAAAAAAAAAAAAAAAAAAAAAAAAAAAAAAAAAAAAAAAAAAAAAAAKDd9AwFg1OhQLdu+vyDQWN4UDfhoe4ebfh8w9OiojdM9h2hWd2U+dDRsUDTOsbCUZtqdDpoh3TfnMu4KDQyr62CaaL3Rv/EgkZqzY8OuYOQSKV2Uokl95m1tplKpTbithnt02+iGRMuVyNeSnlp8+CwIPOD3V7Z1c3DvXWzuTCk38UZ+AOhsJ075sLhsX6f383ma+m8TfVlenPZbi7vu5CdpMi9bW07++b4LHRqZ2hU34SbSIqidjpff6GZGvmfRR4Wh7uVS97/W5vqwMw349odGtM3Vci7zG8aqHr+9e/aUseGf8GuGfLjpRIIdY24X9GVrb2XNr/ssw03scjxAd6QR/ZbkRHtFfWM27ySx+YVM5p//Fw2td24X+9/ZLuaYdQ3JGSyWslodkeym1ltncXu+qLpjbqyEVftcM9pcM3LPTXRRxnzdflNCflYQ/OGrSvD2juqGjXzjHfj3Xlh/oaGtXtUYwr2o+WnV56ITGj3qKJbZNGtTr20LzKr/aOKgEhC4/LOgfl51f5RxbApaTQu75jgF7R/VNIzOmXWrN9oXN55RllTS+cNU30Y97ye4/OPRIK6E5zSVzgd+ekXv3hcTR7+ZLqd0r3gpB6be2LbnRbzVC7pDuio7gfl/BGR+KkTNF7YMal/KzLv1z2hzIip38982rcxSdnKLzPkqwiLPNWgvJbfOzzcpq6pYk7E++m9JGsqeeaaSswUf+rSnZfMXMNtNpWYqeaZZvRKxAm+MrN4WvZs4ZRdO3mCM7coontCmU5Txq97lfwTkdXy0jQtMqN7QjlTT8rKX54sWvPuVrO0bjmrnDSoqnDj7/ep3UzTAz/7xF7iTumW8ZSbymqwdxc457md4IQDM8RLV7LMRMOAr87dTmNpXE3JPRaJ65+OGe8SoYqvpsfEs5NNp7a8uQKVM5W7u4l1b83m3qF7wSlBjy/6bYusHebTK/ZvaIbcqzM/rmWFSLNyIvdc6iJjugtUYtau3p4WflhIfWGCG/hqmvL6/OSXNvZIkDKyjqulMsQTWRM7T102oGPeLPQ9KOGLTBHJWYKG2NuE43saW9MOlkQC2jNqcw+CLG9lMpk/Uxua33nlzNJ1lkVTgwZLD5w90AAblUyVneLJxE0506/doq7u0NHD2f9ohI05EPmsFPyuXazKVe0UDRm6GQ7PmNi+q/A7W73o+cN8YzWVyWQPMrtbbtm0wAR/DkGT3NKpdezLlWNnesvY2zfKLNh3SuDsbPKyWh79/gP55Lm2T9gQiR570UE0xKrpvIbcC1CWktvFGedFev1jka8q3oqwZf5pwB8IhsPRufB0cIhTYk3wh4olznIikXC/ltbijoZdkn1sPudRG+90jJS/j0YkYo9FsvxUWi5lr7BOU7J7qmdkqvjOpdmpsW5fd8Q246niXZb5tHuAWELk/gr4B41iW99as2imn0Tx9UARVkot0H+jtLx1IjzC2iqBm5q5SHiMqxwt1Wmnn8EzlY0+378SrbolmnZ9VwAAAABJRU5ErkJggg==;" vertex="1" parent="1">
          <mxGeometry x="795.92" y="535.48" width="376" height="200" as="geometry" />
        </mxCell>
        <mxCell id="8LlulcfHmFQd0nab0qFh-60" value="" style="shape=image;verticalLabelPosition=bottom;labelBackgroundColor=default;verticalAlign=top;aspect=fixed;imageAspect=0;image=data:image/png,iVBORw0KGgoAAAANSUhEUgAAAVMAAAD8CAYAAADKdkf7AAAAAXNSR0IArs4c6QAAAARnQU1BAACxjwv8YQUAAAAJcEhZcwAAFxEAABcRAcom8z8AABkJSURBVHhe7d17mBxVncbxeZ5dXfXRGR51EVdcsyoqCgiuIsIKKCgYvABK5CJ3lAirhOuGQCSAkCDEKy6apGcgqAEEA0TJRUi4SXC5xDXdBBQJSEgCyZiI7oN/WXve6jo1p6tP93R1Tk9f5lvP83nIVJ06dbqGeudXl+7u66Tp1UO/fVf/3OLBA4XSjIHB0oL+wdKKVKG0ysyLAIwf/YXi2oocGCwuVD70z1t95GuGHtsriY5xPg2tfUUcnIOlmQOF4srsTgSAhhRKawYGi9coYF81VNwhSZgenxSg5gXHf108O2XnBb+P9vnZ2mjSHc9FU1Zsis6/bzh1yQNbonmr/g/AOHL5g1srcuCcezbH+bD/wmei3W54sipDRGex/fNKk3syWAeG1kwwJfqQeZFb3BetnXHYL9bFO+iaR//q3ZkAUM/0X/0pOnrJ+uiDNz8VvX7oscpgVeE2tHr/JIq6d9JfBhOi33Jf3E4//l103NL10TcfetG7YwCgWSrKTr3z+ThY3dwxFg8MFXdPoqmLJnM6n9xE2mpfzAG3PRNdZkr2ueYFA0CrzTYFmwq3N89/PA1VnSF3zen/QGH1FBOkG+zg9Rfi4ge2eF8sALTadx/+S3TEHc9Frx9KqtRC8aW42BtatV0SW5016TEFPcZgQ1TXQ6feN+x9cQAw1lSp6gzZZpSKPt0QTyKsMybdORsYLP5NA5zwoyeiM1Zs8r4YAGg3nSm711R1XyeJsvZOer7LDuqTi56N5j76VwDoeCct2+AG6oq2nfZrw/EAzEB0LUID8w0YADrV1Hs3Rztct6YcqoXSGr0LM4m4sZn0iIG9Pqo7ZRfeP+wdKAB0um88uDV+w1BcoRZKWwfmlQ5Noq61kzY0UFgdXx/VADQQ3wABoFt896EX43dfxhVqHKrFqUnktWZSRWqDdL+FT0fff+Qv0RwzEADoBXqEKg3UVt3pj9/NlJzaK0h9AwGAbnfU4iRQ9Txq8HdN6QNKkptNen6UihRAL1PBGFenpoAM+o4p+/jTjvMfj654cKt34wDQK1Qw2k+lUiGpgjKJw+an8gP55cefLrh/2LthAOg1KhxVQCr/VFAmkdjcpI+usu9s+tIvN3o3CAC9SgWkKST/HleoprBMojHnVP7kp/gDS/TOJt+GAKDXqZCMq9NC8aWmrp/Gn/5kOtCzpL4NAMB4sXfyDGr/YGkoicgGJ1Wlg6WNWvmM5S9Ecx4xHQLAOPX1B7aMfIRfnselTPrGn46vu1m+jgFgvNHlznJ1WlyYRGX9SdcE7LucZtz/J2+nADDezP71n9PqVN+snERm7ck+U7r3LWu9HQLAeGXfHaVvQE0i0z/F7703DZW+F90/HP3wkb8AABJXP/ziyLOn9T5dyjRYoEaHLHrW2xEAjHfHLhmlOtWHPcdv7DeNZq3c6u0EAMY7tzrVd98lEToyDcwrnqCFu93w++iHD5uVAABeByVfzKcnn5IIHZnsp0KduHSDd2UAQNm0e4fL100LpQ0VH4ISn+KbBa8feiz69q//7F0ZADBiwo+SG1FDq/dPolSn+KVDNXOPm/7gXQkAUEk36pPqdEYSpSPvePrcL9Z5VwIAVPrqXS/Y66Yrkig1YVoordLM/7pnk3clAEAlXRItV6bFl8rXTcsfahJfL736oRe9KwEAqu38k/JXRMePSNl3PfFIFADkkz4ipQ+O1teZ6gfN/MHDLwIAGvQF+159PW9q/jFTP2imrzEAwO/M5eWbUMbiPn02n37QTF9jAIDfzAe2lCvTQnFt+s6n8+4hTAEgj4owHSgUV+oHzfzBQ6YBAKBhyk/pU6ISpgDQnDRM7dc5X7mSMAWAvEbCNPmHrxEAoL6qML3moT8DAHIiTAEgAMIUAAIgTAEgAMIUAAIgTAEgAMIUAAIgTAEgAMIUAAIgTAEgAMIUAAIgTAEggKow/e//2QoAyIkwBYAACFMACIAwBYAACFMACIAwBYAACFMACIAwBYAACFMACIAwBYAACFMACKAqTL//660AgJwIUwAIgDAFgAAIUwAIwBOmWwAAORGmABAAYQoAARCmABBAVZhe/eAWAEBOhCkABECYAkAAhCkABECYAkAAhCkABECYAkAAhCkABFAVpt8zMwEA+RCmABAAYQoAARCmABBAdZiu/BMAICfCFAACIEwBIADCFAACqArT75qZAIB8CFMACIAwBYAACFMACIAwBYAACFMACIAwBYAACFMACKA6TB8YBgDkRJgCQACEaRvNuGVV9KkvT48+cfJ5VY654OroK1ffHp01d6l33WZMOveqtP8TLpnrbSPapjuWZmhbvr6tRsdSS719d8qs6+N9d8Wyp7zr5rWtY7U0nsPPuCzuZ+e9Doh2et8+0W77ToznXbDgQe86Vr3X66O2s+9e7+0LrUGYtpEOpr6+voaorQLW108jFALZPmsdwHnGVY8CwNd/nrHU0ugYX/vGfx2z/VaLQk2B2f+67av6cuk11dpnzfxO9AfF1xdaoypMv2NmYmzoQPcdBPVonTNN5ejrr55dTQWU7evAY6d426pqyrZtxqWL1nj7zzOWWvLuuwnveX90lQk1X1/1hBjr/p+fXNVHLfscdqK3j2b+X1GY+vpCaxCmbeQeIIeZykX/87sONqdrHzzkqKqK5mUv/6foaFNt+fr0mWVOL7WO24eoX1/7i0x1lB2LpSCx679pp129baRW4OcdSy2j7TvN0/jcbSjUfH3VEmKs+j256yos1a9droBXGztW/b7d9a3RXq+Prx+0DmHaRu4BUu9/fh1wvuqm0QNG1/zsOgpDNyDyHnRuOLzdnHr62tQTaiyN7rtsZekG2WhCjFX7yK5TKyitU2ZdH03+5k3eZY2+XrQPYdpGeQ8QHWivfPVAuo4qpEZOXXWKa9eZtuDB+KC2P492gGdta5iGGkuj+06XGmw7yXOJJMRY3d9XM5dnLMK081WH6a82Y4xUHiC3edtkHfbVr6friH72tbMuuvnRtK3CQfMmz74xnadq66oVz1WtV8vRF3wvXffte5gw9bSpJeRY8uw7N9A0fl+brBBjnbX0D2l7Oe/au73tGtHM/ysYW4RpGzVzgOgAdq+hvmmnXbztrINPOi9t+6nJ0+N52T6Ov3hu1Xq1bEuYhhxLs2HaaP+hxupue7Q/fPUQpp2PMG2jZg8QtzpVheRrY73hLTulbVVt2fn7HHpCOl9379116tmWMA05lkb33aW3P5a2k2k/WeltlxVqrO6lAgVrs9UpYdr5CNM2avYAUSDY9aRWQJw5Z0naxp6qWtqe24dCx11eS7NhGnosje479zEv3YzytckKOVZ3f4kCNc+ZgEWYdj7CtI225QCx64mu5fnauFWU7kxnl7unrI2egjYbpqHHUm/f6Y+L9olbFap9o38wQo/V99yuLs+cMnO+t72P+3q1Tb3mWhqtvhEWYdpG2xKm2YMruzx7fc8XJAcee0a6PFuB1dJMmLZiLO7rH43GqZtBvn6yWjFW9ekGtKvRUM3zelX9+vpAaxGmbbQtYepWXbpZkl3u3nmuFXru6aw0UtE0E6atGEuecBHtL23D15erVftNFJrutViXxlevcs7zeke7jo7WqArTb5uZGBvuAfKfJkx9bWpxq6cjzKlodvn7Djys7nLLPbhVcfnauLJh6muT1YqxuPtuz4lHxX9QXDq1VtVn24hC5mQTaL7+rFbtN5f2oS9UVVFOMUHtW8d9vToT0f8vtZx77d3ePtBahGkbNRumV5rTRrueb92Z5pRWwaFl+q9+dpe7FDy2H43H18aVN0xbNZZG952WucGlwLrEVIC+tq3cbz4Kdvd1iP5I+rbb6OtF+xCmbdTsAXK+Oa2060k2HNzAU3WmvmtR9eX2pXluX1l5w7RVY8mz77S/bEhKrUqylfutFv1hzN6g8o2PMO18hGkbNXuAHHfxyMfCKSSyyxVydnleOmXO9ufKG6atGkvefeeeviu8fG1aud/qUaC6lyR0/TTbhjDtfNVhev8mjJHXvvHNIwfI9271tvFxDzydwrrLLrnd/DKTZc3QafCVy9dV9Ok6elomTD1trFaOJe++03VG217rZpe3er+N5uCTzq3oK7u82f9XMHYI0zZq5gA5eeZ16TqikHCXf3LyhekyVTjqdzTZPo+bMaeiT1eeMG3lWPLuOzessn+ApNX7bTRHnHNl2o8v7AnTzkeYtlHeA0TVk3szpf+121dVQ+5yHaDusnrcU9xdPzzR20byhGkrx5J33+38wY+m7fXv7PJW77fR7Dfp1LQfXZLILidMOx9h2kZ5DpBTZ98Yn/7Z9qJ5bptzh1ZULFf4usvrcSsjXYettW6jYdrqseTZd25/oorSXd6qseqsQRXxzCVPVqyTdf6PH6i4QZY92xDCtPNVhem3zEyMDfcAOd0cIO4y/XySOegPMgfjHs7NE/lHc+Adag44t70c8IWRd+Yo6LLL61EIqF+7vkLC1+6oTJj62kirx1Jv34kCSn9sVC3advIWcwqfbduqsaovzdMfQW1j+k8frVhX1P415gzDrr+9qZB1tpFtN9rrRfsRpm3kHiCNepc5RVVQ+PpzD8paYViP+rbr+0JHGg3TVo+lmX2ndRR+2b5aNVY3pF0ah2/8CuVav9tmXq9+V76+0BqEaRvpwPMdBD6qWFSp+voRVStue19ojEY3UNw+fJVUI2E6FmPJs+9UGarC91V8rRzr5eb0fs+JR1Ysq0X7csoPF1f1beV5vZZuqvn6QmsQpm2kg0cHeT0K0EYOcFU0OiClmepKFDY6+NWHTo992z1naEVcialNrcpnLMbSyL6TegElYzFWhasuy9j9pgpUfxz1b1WvjZy2N/p6XbWqXLQGYQoAARCmABAAYQoAAVSF6TfNTABAPoQpAARAmAJAAIQpAARAmAJAAFVhOvu+TQCAnAhTAAiAMAWAAAhTAAiAMAWAAKrC9CozExgL37h7Q/TufQ6KPy7uTe/YLZr5yz962wHdgDDtMft9/stdE07TbnokeuVrtovH+/ETz/W26WXuH5NdPjzR2wbdgzDtIfXC6cJbfhO9c8+PxMvkH1728ujfD5rkDVwd5F+cfVM0YZcPpO1Fn8F5yOTp3nUOnTIz7ferc5ZWLfeZNPU7VevYeXb+F2bMqVgnZAB1wj7x7QN0J8K0h9Q6ME///s/TkM3KBpIC5m17jHzjpo/vwLcVcaOhUOsU3/ZjZSvsUGHaKftk1l3rou3esGPcbjxW572EMO0RtcLJne8e1F+7tRh99NgpFcHhHtiy5yFHV/Sj9nbZy1/xqmjGosfTdfOGaa0q2vajik/Ls/2FCNNO2ye2HdeNuxth2iNqhZMbBqMdrO4pdq2gsgd+djt5w7RWFe0Gy4c+c3z8b3csIcK00/YJp/q9gTDtETpttQe0e53RDY56B2utai3L3Y4bRHnC1N1WNszcMD3nunvjPxBuxVcvTLXss2dfGe34zvfGy+14dB30nPn3pe06bZ+463Oq372qwvRKMxPdJ1vduMv2dSonLf+AOVWd9tNHK9rMdALGhpe73DrfqYDddnYbvu1nuX18zISHu8z2o1C63ISS/dm2uyITpnY9jb/edc3suDppn7jru68J3YUw7RH2wPUd9G4ouBQgCiy1cQ9oG2RuH1atgGk0OKSR4LdjOC2p2uy2aoWpG44HHHdmOv5TZt+UzndfVyftE3d9wrR7EaY9ol6YikLIvVli2YN3rILDDUPfdrJh6rY/ZsYcb5i6Y6rXZ3bfdMo+GW386A6eMN2MLnPF3RvTgCkfzE9424naZgPkmBlzzQH9XCYQ/H1UB8yz8fx9P39aPK8cHMuq1rNspSkfO/G8quW2H7dvu47mXbpkbSZMK8dk57kqK+HqsbV7n7i/P3d9dBfCtEfYA3e0MLXcu9QKNTc46h38bhi6wdVocIzWzhemNmy0zunX3BE8TK127RN3O4Rp9yJMe8S2hKmqMM2zfYivanQrKHc9aSQ4GgkNX5iKHe/Oe3+8Kkzr9euOebR90459Iu74fX8M0B0I0x5Rq/pS1fTW3feOjr98fjrvglv+Nz143YBxKzz55OmXpME0/dZStFfy3KdkQ6uR4HArODd0XLXC1AaO+rePPvmqQHFDz70BZdt30j6R0SprdIeqMP2GmYnu4wbV0SaofPN93Lai8HHDoxaFirueG2ZZCqeLTDjZNvZnd/1sPwqmy0wwucuOcCpHeY8JHrtsaib0snZ467vTbXbSPlE7dzz6Q+D2ge5BmPYIN0zcA3KWOQ1VGLxllz3TA1ZUmZ09//6KPqxppkrb57NfrHr4ffcDD694lvN9B01K+8gGnUvBMe3m36SVnxuCWfXC9HJTnbqn1NngseN2g09vS504+WsVfXXKPrFhatupv6+YCtbdLroHYdojFBA2aHxBFIq285HMne9sJedTq3LuBc3uE3F/b/UqdnQ+wrSHjGWFo0rtHXt+tOHgaOQUv9vl3SdS64wC3Ycw7SGdemDq9LyRU/zxiFP83kGY9ph61xzRWdxTfP7IdD/CFAACqArTK8xMAEA+hCkABECYAkAAhCkABECYAkAAVWE6697NAICcCFMACIAwBYAACFMACIAwBYAAqsJ0ppkJAMiHMAWAAAhTAAiAMAWAAAhTAAiAMAWAAKrC9HIzEwCQD2EKAAEQpgAQAGEKAAEQpgAQQFWYXnbPZgBAToQpAARAmAJAAIQpAARAmAJAAFVh+nUzEwCQD2EKAAEQpgAQAGEKAAEQpgAQQFWYXmpmAgDyIUwBIADCFAACIEwBIADCFAACqArTS+7eDADIiTAFgAAIUwAIgDAFgAAIUwAIgDAFgACqwvRiMxMAkA9hCgABEKYAEABhCgABEKYAEABhCgABVIXpDDMTAJBPGqb9hdIW/eP85S94GwIAanPCtLhW/zjrzue9DQEAtaVhOlAorSFMAaA5aZj2D5ZW6B+nLt1oFgwDABp07l2b4iDV5dI0TE9ZssHbGADgd9adLyRhWlzbNzBYvEY/HH77s97GAAA/ndErPwcKxZV9A4XVU/TD/rc87W0MAPBTERqHqSlK+/rnFg/WD++94cnoIrMQANAYFaHlynT1lL5XDRV30A//ct0ab2MAgJ+KUOWnitI+TfbB/TPvfMG7AgCg2vbXPvZ3ZaeK0nKYDhYXasYRi9Z5VwAAVDptWfnmU3wn3072JtSHfvqUdyUAQKVP3/bHcpgOloaSKDVhOlTcXTO5bgoAjbHXSwfmFU9IorQ82ffoH3fH+uhrpiEAwO/s5J1PA4XiS+n1UjuZBTO1cC9zqu9bGQBQNvHWZ8phOlhanEToyPTqod++SwtfN1SKpq3wdwAAGI7e/qPfla+Xzlt9ZBKhlZPeEqUGR/58nbcDABjvvpzexS9t6Rta+4okPisnpawa/dv1T1CdAoDHexb8vhymg6VvJdHpn0zarlJD3fb3dQQA49Uxv1hfvlZaKG2ouvGUnex79fWY1PnLh6PppkIFAIxcK43fi9/IZN8Rtd8tT3s7BIDx5lO3lh/SV1Va81ppdrIP8evO/ll3bvJ2DADjhc7SdbYeh+m80qFJVDY22Q+N/o+b13o7B4Dx4hMLy8+V6p5SEpGNT/FH8xWKL6mDY36+3rsBAOh1py97Pj5Lj8PUftRe3qm/UJyqDtSROrzQdAwA44W+MO/N8x8vB6n7gSbNTKaTBepIHapj3wYBoNdMXT4cvds+U6rT+0ZvOtWcTAf22VN1rA34NgwAvWTf9CtJShsGhtZMSBJx2yZ1FHdoOtYGfBsGgF7xmduSL8rTfaOh1fsnURhmUocDhdV/0wa0Id8AAKDbnbh4g+4TxV9H0j+vNDmJwLCTOtYGtKFJi9ZFF5gNA0CvOHnJxuifk+91ir++uZWTff5UdMrvGxAAdBudcduK1Fi87TecGpjsd0bJHjc+GZ1z1ybv4ACgG6Q3m2KmIh2LILWTrqH2F4pbtfEJ1z8Rnbbsee8gAaBTqRC0jz/pnlDLrpGONsWfzl8ordFAtr92TXTC4g3eAQNAp1EBuKN9IL9Q2hL8rn3eaWBo1Xb2U6Zk35ufjqb8clM0bfkwAHSc8+4ajg5e+Ex6oyl+jj7Uc6QhJjOo+Av5RFXqx372TDxo34sBgHY4/LZ10Rvtpz+VLRjT66ONTslH9y22A9WgP33bs94XBQBj5fg7NkRvsx/sbKgabfpDS8ZyKt+cKr8FVXSD6qhF670vEgBa5UtLNka73vBkGqLxOznnFU9Ioqp7Jn1BX3+huNa+EF3s1en/V5a94H3hALCtzr5zU3xG/M4fV1SiW/QpeB15St/wZAYfP5eavLff0gs9aOEz0YmLN8afYg0AzZq89Pk4QN9/01NpxsQKxZf0LaKjfvldt036uH/zAhfYD5229HmpKsUPNFXr525fR8ACqOmL5tT9yEXr47zY/cYnszeUYiZAV+h0Xk8bJfHTm1P8OFX8Hf3Fa+xzqgDQtPKZ74L480M66TGnsZ7ir0iJP5WqNEOfZh3/VfHtMADjXnwnXs+2m7zQ2a7ePJRESRunvr7/B6IGG4Ea4GLFAAAAAElFTkSuQmCC;" vertex="1" parent="1">
          <mxGeometry x="1092" y="396" width="339" height="252" as="geometry" />
        </mxCell>
        <mxCell id="8LlulcfHmFQd0nab0qFh-61" value="" style="shape=image;verticalLabelPosition=bottom;labelBackgroundColor=default;verticalAlign=top;aspect=fixed;imageAspect=0;image=data:image/png,iVBORw0KGgoAAAANSUhEUgAAAHAAAABJCAMAAADSS1IcAAAAAXNSR0IArs4c6QAAAARnQU1BAACxjwv8YQUAAAFWUExURQAAAAAgQAAgMAAgNQgoMAYmMwUlNQQkNAQjMgMjMwMjNAUlMgUlMwUkMgQkMwQkNAQkMwQkNAMjMwUlMwQkMwQkNAQkMwQkMwQkMwQkMwUlMwQkMwQkMwQkMwQkMwUlNAUmNQUnNwUoOAYoOAYqOgYrPQcsPQctPwcuQAgzRwk0SAo3TAo4Tgo5Tgs7UQs+Vgw9UwxAWAxCWw0+VA1AWA1BWQ1EXQ5GXw5IYg9HYQ9KZA9LZw9NaRBKZRFNaRFRbhFTcBNZeBNaexRegBVgghtkhR9nhyVrijFzkTp5lj58mEN/m0SAm0qEnk+HoVCIoVaMpVyQqF6SqWeXrmqasG6csnmkt36nuoSrvYatvoqvwJW3x5u7yqXCz6rF0a7I1LLL1r7T3MLW38ja4s3d5dTi6Njk6trm697p7eHq7+Tt8ejv8+zy9fL2+Pb5+vj6+/v9/f///w0A234AAAAedFJOUwAIEBggKDBASFBYYGhweICHj5efr7e/x8/X3+fv9/ZdDxcAAAAJcEhZcwAAFxEAABcRAcom8z8AAAJ8SURBVGhD7ZnpUxMxFMBToeKBR1EXCvo4BKWiIh5YLyolC1hYkIpYqrYq9cLasv//F1+yz+muRV1qkmHG/GaaSdI3+eV6/dCwML3nBkEf6b4T5CGS/fSNPi50kUuQSFOvTgYSZEPOYns693AcYDzPNbCQu4GGM2RD8Piy87O3p7H3McWo5j4ukWyMdaMogx/BDAWoZgHHJh1jPYFLYlA4eX0Ky0cUoJos5gbpfgpv3bsqhDkdPJ0dAUiRLrql+hhspQUKMSM0kz5KNgSFmfmZKxkdjGE6OI5z/lQo7aWQzlY5mG49pGlhhf+CFSrHCpVjhcqxQuVYoXIOrdCt+YK31OycuMLFesnz1uomha9EYU648n2DhG6l4fvvlziv7oj+Bk7klxrnxeYy59sNf6+CcVHiCuUQUlhurvOCqPxFKOM+Be0QcYXlrzhXKdx+g80qNqs7nudtBppWTUajUJ5BMM8IcYVypOAMN999/OILoby3vtBEat9KwrOCG490KgxUonRru1vearBC7NpnS8t7G1IoVthOTKG8M1IYDPQnIVbkloopFj93tsJn1eZzPKa1emV1sV5Zwov6e6H7Wq4QF1rihRrGRYklpJ8ZQXO5iLe9JO7QvkIM2d0K7gqmhf+hs7Rwa2J7BOW2S3BQDqeQv1inSuFl2x4dkHhChVihcqxQOVaoHCtUzv8n7DqecpwBc8KTF+kfaUPC06QzJUxeArg8NWFOmAKYePJAPI8YEvYDXJM6U8LQM6UZ4RDA6CQyCnCTvldNfgygm3SM9QIM352buzMMkKUAxeRxgUNkQxKY8VoZEUX4fTuJm6qb1iOe4EifZqVzjEyMMfYDP9SruTGUEnoAAAAASUVORK5CYII=;" vertex="1" parent="1">
          <mxGeometry x="888" y="510.25" width="112" height="73" as="geometry" />
        </mxCell>
        <mxCell id="8LlulcfHmFQd0nab0qFh-63" value="" style="shape=image;verticalLabelPosition=bottom;labelBackgroundColor=default;verticalAlign=top;aspect=fixed;imageAspect=0;image=data:image/png,iVBORw0KGgoAAAANSUhEUgAAASoAAACcCAMAAAD/ABbBAAAAAXNSR0IArs4c6QAAAARnQU1BAACxjwv8YQUAAABjUExURQAAAAAAAAAAAAAAAAAAAAAAAAAAAAAAAAAAAAAAAAAAAAAAAAAAAAAAAAAAAAAAAAAAAAAAAAAAAAAAAAAAAAAAAAAAAAAAAAAAAAAAAAAAAAAAAAAAAAAAAAAAAAAAAAAAAGZodN4AAAAgdFJOUwAIEBggKDA4QEhQWGBocHiAh4+Xn6evt7/Hz9ff5+/3v+H4wgAAAAlwSFlzAAAXEQAAFxEByibzPwAAAyVJREFUeF7t28FW6kAQhGFCEBARY0BEBDPv/5Q3melJPJ6QVK/v/y0EZtkHsEK6FgAAAAAAYNq6+m1jpxhzCYOmtEOMKW82p1ZtZxi3aWxQvKlmHWxS4WwHeOhkowrXFzvBA8W3jSqE297OMG71043pGP/eD4WdYsyundF5sXy7x2FVSzvGiCqEdftQHGJ0+Hnnf+Fjl4s92cdhNfXKXuOv5daetJ/GazescGJYgud0tXPuPpOYsT2nYQ3vNTy0/ojDujzba0xYpRR/3dlrTCjreClNhFeU7zHC34jwgmWVIvwbEX5ecYjD+qmI8IIc4RmW4IUIr9ulCP9BhBdsP+OwiPCKdbreIcIriPAOqxThv4nwgrJOEf6VCD9vWdktCyL8vD7CM6x5BRHeYR8jfEOEV+y+umGFExFesLVbFmyxCXKE53pH8ESE161ORHhZvmVBhBf0EZ5hzVsS4XXFa9o6IsIr9nFdsjkS4QV56+jJXmNCjvBc7wg2RHjdOkX4LyK8IN+yIMIL+q0jUum8kgivs+IAEV6RiwNEeAXFAQeKAw4UBxysOPBJhBfk4gARXpAjPN1fgW0dURxQWHGACK/IxQEivCBvHdH9VRDhHSgOOFhxgAivoDjgQHHAgeKAw+pIhJfl4gARXpC3juj+Cuj+OlAc8EjFASK8xIoDdH8VeeuICC8gwjtQHHCgOOBAccCB7q8DxQEHKw4Q4SVWHCDCK/LWERFeQPfXgeKAgxUHiPAKu2VBhFcQ4R0oDjhQHHCgOOBhtyzo/iro/jpQHHCw4gARXmG3LOj+Kuj+OvTFAVLpPIoDDlYcIMIr8tYREV5BccCB4oADxQEHKw7Q/VXkrSMivCBvHdH9FVAccLDiABFekbeOiPACur8OfXGAVCqgOOBgxQEivILigAPFAQe2jhysOECEV+StoyHCs3/00J/ub9mc4iPG9MWBLsLXIRzSMcYMxYGy/Tw27C1PSsWBEP/euUKcZltHnQtf7TMswrdqO8EjRfx+7/DL8oyDDar9amf5b9LwpmpDKb+UThneVK2zHWLMevsb/wUBAAAA4L+0WPwDBp56PaRIv2YAAAAASUVORK5CYII=;" vertex="1" parent="1">
          <mxGeometry x="807.92" y="288" width="298" height="156" as="geometry" />
        </mxCell>
        <mxCell id="8LlulcfHmFQd0nab0qFh-64" value="" style="shape=image;verticalLabelPosition=bottom;labelBackgroundColor=default;verticalAlign=top;aspect=fixed;imageAspect=0;image=data:image/png,iVBORw0KGgoAAAANSUhEUgAAAHAAAABJCAMAAADSS1IcAAAAAXNSR0IArs4c6QAAAARnQU1BAACxjwv8YQUAAAFWUExURQAAAAAgQAAgMAAgNQgoMAYmMwUlNQQkNAQjMgMjMwMjNAUlMgUlMwUkMgQkMwQkNAQkMwQkNAMjMwUlMwQkMwQkNAQkMwQkMwQkMwQkMwUlMwQkMwQkMwQkMwQkMwUlNAUmNQUnNwUoOAYoOAYqOgYrPQcsPQctPwcuQAgzRwk0SAo3TAo4Tgo5Tgs7UQs+Vgw9UwxAWAxCWw0+VA1AWA1BWQ1EXQ5GXw5IYg9HYQ9KZA9LZw9NaRBKZRFNaRFRbhFTcBNZeBNaexRegBVgghtkhR9nhyVrijFzkTp5lj58mEN/m0SAm0qEnk+HoVCIoVaMpVyQqF6SqWeXrmqasG6csnmkt36nuoSrvYatvoqvwJW3x5u7yqXCz6rF0a7I1LLL1r7T3MLW38ja4s3d5dTi6Njk6trm697p7eHq7+Tt8ejv8+zy9fL2+Pb5+vj6+/v9/f///w0A234AAAAedFJOUwAIEBggKDBASFBYYGhweICHj5efr7e/x8/X3+fv9/ZdDxcAAAAJcEhZcwAAFxEAABcRAcom8z8AAAJ8SURBVGhD7ZnpUxMxFMBToeKBR1EXCvo4BKWiIh5YLyolC1hYkIpYqrYq9cLasv//F1+yz+muRV1qkmHG/GaaSdI3+eV6/dCwML3nBkEf6b4T5CGS/fSNPi50kUuQSFOvTgYSZEPOYns693AcYDzPNbCQu4GGM2RD8Piy87O3p7H3McWo5j4ukWyMdaMogx/BDAWoZgHHJh1jPYFLYlA4eX0Ky0cUoJos5gbpfgpv3bsqhDkdPJ0dAUiRLrql+hhspQUKMSM0kz5KNgSFmfmZKxkdjGE6OI5z/lQo7aWQzlY5mG49pGlhhf+CFSrHCpVjhcqxQuVYoXIOrdCt+YK31OycuMLFesnz1uomha9EYU648n2DhG6l4fvvlziv7oj+Bk7klxrnxeYy59sNf6+CcVHiCuUQUlhurvOCqPxFKOM+Be0QcYXlrzhXKdx+g80qNqs7nudtBppWTUajUJ5BMM8IcYVypOAMN999/OILoby3vtBEat9KwrOCG490KgxUonRru1vearBC7NpnS8t7G1IoVthOTKG8M1IYDPQnIVbkloopFj93tsJn1eZzPKa1emV1sV5Zwov6e6H7Wq4QF1rihRrGRYklpJ8ZQXO5iLe9JO7QvkIM2d0K7gqmhf+hs7Rwa2J7BOW2S3BQDqeQv1inSuFl2x4dkHhChVihcqxQOVaoHCtUzv8n7DqecpwBc8KTF+kfaUPC06QzJUxeArg8NWFOmAKYePJAPI8YEvYDXJM6U8LQM6UZ4RDA6CQyCnCTvldNfgygm3SM9QIM352buzMMkKUAxeRxgUNkQxKY8VoZEUX4fTuJm6qb1iOe4EifZqVzjEyMMfYDP9SruTGUEnoAAAAASUVORK5CYII=;" vertex="1" parent="1">
          <mxGeometry x="888" y="323" width="112" height="73" as="geometry" />
        </mxCell>
        <mxCell id="8LlulcfHmFQd0nab0qFh-65" value="" style="shape=image;verticalLabelPosition=bottom;labelBackgroundColor=default;verticalAlign=top;aspect=fixed;imageAspect=0;image=data:image/png,iVBORw0KGgoAAAANSUhEUgAAAFsAAAA6CAMAAADoQNVUAAAAAXNSR0IArs4c6QAAAARnQU1BAACxjwv8YQUAAAEdUExURQAAAAAgQAAgMAAgNQgoMAYmMwUlNQUkMgQkNAQjMgMjMwMjNAUlMgUlMwUkMgQkMwQkNAQkMwQkNAMjMwUlMwUlMgQkMwQkNAQkMwQkMwQkMwQkMwUlMwQkMwQkMwQkMwQkMwUlMwYnNQgoNwoqOQ0tPA4vPhAwPxAwQBExQBM0QxQ1QxU2RRY3RRw9TB0+TCBATyFCUSVGVidIVy1OXjBRYTNUYzNUZDlbakBhcENkc0RmdkVmdUZndkprekxtfE9xgFBxgFFygld5h1d5iVh6iVp8jF1/jl5/jl+BkWKElGiKmmuNnGyOnG6Qn3SXpnqdrICjsoGksoWouIyuvpK1xZi7yp7B0Z/C0aTH16rN3K/S47XZ6bvf78Hl9Q0RzGIAAAAgdFJOUwAIEBggKDA4QEhQWGBocHiAh4+Xn6evt7/Hz9ff5+/3v+H4wgAAAAlwSFlzAAAXEQAAFxEByibzPwAAA+lJREFUWEetmGtD2kgUhsF4iQgaXEFWQU5betl2tWWhlO7W0lpa2rRVWqVWSPj/P2PfM3NCBkEFkucLmczkdTw5t0liASzbcfKOnZThctpxtuw1GUXC2i6TZncFo1xRRnsbsmAu1vOFA6Ly7hbvbStQBuVMGhMjiim9fnbSe/IoKKUy/FN13bOTqroDKk3X7TQqfJmWZ2ZjeV89b1I7Hyqu6jyqXuiR5x5idJf4UipbYHIbyYTF1nzc6XnDYb/b4qep7mux4fAbRp9Go6FXw3hVRKZi74QGLedgj8rp6HHvJdFT/BnBa9EHuVSw+I7ITMHaFdmAew/kf1b03z78LpeKnvwKPWznxveZVnuuds574JT/R6ITeXAWnmN9cXNJ1MbYVFpXshDb/HyfyNz3XfzLAlRcFj2DNO5Xf8kyjdc6lquZGPxuP54qvgyD1MI3tSD+GTx9QjxPdBRZGlxAfE80hVW427hBFoXFx90lR9SWyai0ifKiqkHWiWfb8C/4eZCBGQsmkanoIDmYb9NGppCZ6BwR2aILLCTPqsxEB/seJa2VHY6nRzITmUuiA1FO2FI9LmUuKv+EfqIyVPXVfz9kKipnSJ8HlpLmMnUUl/uBrrKB2niyFEcaCfGbRC8gzk6YIjoMC1MM+M2a95ooC22kqLhiXfA9rkCcrlBt4/KPEB9GQfkpEF0re3GAyITBUX3nKVszorWzRA25sTj+ybVaiNIGe1uInK7cWpivRMemH59L6dmG3SN6is8V2AwS+OA2aye5L3vy5rwXwcsHEDPEkawkES7BVRQysxAc6UEB8NE1BckqaNRkajFYXHe4HPVlyd+I+spPt9GYq82ZBBW4xr997vUyWjquqB+gdegPB23u8h2R5gofS9Sj13//mpXLwa4TiaiWDmBfYfaMOoxhX6Yj8VErj7VUcBNXpiPRISpkcC402UB1iKPwwN4TZ8yYqhqCsTx5ZFBNvc5X3sKBz8GYE0ETFqfDpvvl7zn6zf7YNlQwXjO2Jjw7n8rau2lRPSwqVw08O4qYcZYy6sx/b46G8y+ioFvyEO+3ni3X7E1EP3Vk/Qg/PLiZDB5gcd097V24TQ5GnbBvgTNifSBPay6OprcvaqshhVtP20ySxSttQ917RvROrk3QgVCQm2f9vOHw0spxV2eBy7NjHk7W0z5a7HzCWnf+KOSd9PUj303YwfcSZUThq0gGdFEgS7pVnY+U8TUG/MnDpun3Xgt3yka2m4eVzQLyACjmnRX9EqgWGOayzd9R9u98d7exNoqypDqywIMaQF9mzTNeNFZFXSity/14sLJBWijtxKussZmpX16mkEj8D3ZCyPYYFA6aAAAAAElFTkSuQmCC;" vertex="1" parent="1">
          <mxGeometry x="1308" y="379" width="136.1" height="86.75" as="geometry" />
        </mxCell>
        <mxCell id="8LlulcfHmFQd0nab0qFh-67" value="" style="shape=image;verticalLabelPosition=bottom;labelBackgroundColor=default;verticalAlign=top;aspect=fixed;imageAspect=0;image=data:image/png,iVBORw0KGgoAAAANSUhEUgAAAUcAAAB/CAYAAAB8FwAfAAAAAXNSR0IArs4c6QAAAARnQU1BAACxjwv8YQUAAAAJcEhZcwAAFxEAABcRAcom8z8AABjMSURBVHhe7Z15mBXVmcb7j4kxebTbiYlLxhgyCU7cFXEhgsEghk1BBARXNhGQVWWXRW1AFBE3MKGXCDju4oYSEMEVlwRmpFs0EYmKAwgKycw8mb9Sc97qe25/99RX91bdW7ft7vue5/k99q3zna++Ostb36lbV8pYWFhYWJIstTsOLq/aOrCiun5OeU19rWFDeXX9loqaeo8QQpqa8uq6Hb4O1dSt8nWpqn7kd2vrjkopVpGLEcSKqrrBDSev+7sWICGENCuq6zZVVG+dUDShhHOjxrvkSds9sd0b8OIX3vWv7PGmvf6VN/PNr72qLf9LCCFNzry3D/g6dNOr+3xd6rzqU+/7tR9Ikfw7MsqK2i2HpWStsFK+rK4b0lV7guMf+bM3dN1u7673/uYtMwERQkhzZcnm//GTt3Of3pEWyfLq+v1I9lISl1/xs8WUwzYrP/JPogVACCHNnakmq8RuNy2SNfW1eFSYkrvopaKmbql10uv5z71lRoEJIaSlc/36PWa73aBt/vPIONtsK4xwMMJsoX9rHBJCSGthzptfe8cs/7Ahg6yu3xIpg7RbaQjjjRv3qo4JIaSls+DtA/7jQj+DrKl/JCWBeqmoqu+TMmTGSAhp9SCDtFvs8uq6qSkpdAreYUy9qtNn9U7VESGEtDZGr9/TkD3iVZ/abW1SithY7HYar+r89o+mESGElAi/eKrhVR/8wCUliamCrLGmfjcqx7/ypdqYEEJaKws2HWj8Bru27rSUMpaV4TeINmv8zR//mxBCSo6ez3/eII7yyxn8WBsHr1272/vNH4whIYSUGLe/daBha11dv99/tQcvQFZUb/0//AZx8Tt/VRsRQkgpcPy//zm1td7auQz/lx18OOvJT1RjQggpFfqt3tmQPdbU340t9d34MOT3u1RjQggpFaa8uteK4wYjjnWr8GHs+j3eg3/4GyGElCzz39rfsK2urt9W5v/w2nyY/to+1ZgQQkoJP3PElzL2VzFQzAffM5WEEFLCHPXQNl8gy/wU0rD0vb8SQkjJYzWR4kgIIQKKIyHNnBkPv+FVPrdVrSPFo6TFcXLNy95xZ3TMynmXDvUmPrhaba8RxadLmP9cvk7scIHX89qp3uwn3lPbu/x68ETvWwcd7JUffmSsa7IkeW2Se9/c4109e4nX/sJL/fjKysrSIFYcH3nnw2rbMODz1M690n7QVwvW/Em1xbm12OMiBQzjkk9f275A7G5fAPjr0OsKb9jcGrW9hjtuiE2z04CtbQc/mk1rpaTFEQvGnXxhYFJGmRxxfFrCJqtc3Lk45riT/QxD82PBBLf2WICaTTaSvDbLmHuf8o5qc5za1gV2URcoxMNt3+f6OaotxMa1zQcpgvn0NWLGPJM+s4H5seiVz1RfEm0e4Uap2boUOmdaMiUtjnLgsfDw2RK2YHPdsbP5DCMss0BdmK/vHFqRrrPgGMRG8wWkv3wmerZ4wsiWNSEG609y+NHH+m21MUA2la8g4Aai2fa/YX4gbgva2PY4t2ZjkRk8Ptt2UfoaNxFrb7H9YLO3sEwy25gDGYsFvnLdTEHc62hNBMRxybsHSoaMgZ+1JFB/zxu7/eNSiPD37S99FLC15PIZh1y+EIe7qLBYELdrCwqNLclrG3PPk2lfAP06tLJa7dvrzJZanvu2Z98P2EjgwwoJBEaKyvSVr6ttwpiw9IV0W/jSbDTi9NWgqYvStsC/yZn+0WwRf6e+QzPscX1R56Tsi1N/2VO1lyQ55i0NimOEgZ9Usy5tByBImh1IcjJF9YU6awf6TZyv2hUaW1LXBvGG0FhfyBBnPf6uaivBOdHurvWfqvUWKTYYKzyztJ9/fc1EtU0YxRZH9IXcSuMcucQf9L5+droN+NWgUaodkLHATrbLdbNIasxbIhTHiAMvF3O2O26SkymOr5+cdGba9oQOF6g2hcaW1LVBvK2fXFlPPsi+gNAgI7WfIURamzCKLY5S5BBbLuGXQOht22z96MaC+Ws/58oekxrzlgjFMeLAn9Pr8rQtnkNpNiDJyRTHl8wIwgSg0NiSuDYsYJkpZct48gFiaH1DJHEM2Zl8NALBc9uFUUxxlNt/kG1HooH2ti0I60s3FmSLsh0eW2jtQBJj3lKhOEYceCmOzTFzRL21hRBoNoXGlsS1yS1vMbJG+QwWWZk9LscPf8s22SimOCaRQWOXYH3g8YRmo8Uis8emutm3NALi+MA7B0qGtu0aB/6qmUtUG7D49cxnZD2GT1XtQFSfUYjjCzFZW2RMmk2hsSVxbecPbMxwsbA1m0KQ43TrM++nj1+/uPELIAgRxlS2C8MVR81GI0pfndG18Vlovn0xcErmzUaz0WKZtiIzexxxx8OBdiCJMW+pUBwjDLxc0JiA81/8SLUDSU6mOL5kBoFvMzWbQmNL4tpkxhIWZ77cVN34xRlidevldh7PId16jWKK45HiVaV8+0LGB7S5GRaLnNfIHrUbRhJj3lJRxHF/yZA58A9k1E1Y+ry5m640WVj7tI1m5yJ9Htmmrf85DGzvNB8W2EQ5L+K0dtlso/oLQ7bP99rQzvroPXq2apMvnfoOSftGRpWt/oQOXQL1GpgHtk2DOOp2LugD2y6sr+Vz0B7Dp6g2uZj12LtpH2DaitcCNmGxQEi/ddC303X9Js7LaAeiXEdrJSCO97+9v2SQA5+L8sOP8EYsWKn6kcTxCW5Z9Z+qHyB9XWkmpmYzcPKijEWGNpodiOIvG0lcm1yMQ26rDtTny92v4ZWYI9K+563+KGBzY1VjZok4NBuX8UsyxVGz0YjS17Y+m00u7lz3lww/2hzNFovMHtF/6EdZX+icaclQHFMDn40zuvYNTJow4ggIRA2TW/MDpK9TzHYU2QXAhEadFAPrL9uCL3SiF3ptEEtpM3rxkxn1hQBRsH4Rp2YD5DPJSyfMU20kTSWO+d4oMC+ln7jiiPkib65unxQ6Z1oyFMfUwEvxgRjKRQQ6mi2Z5sMlyckkfeUCMefKhAqNLYlrs+0Bsl7NJh9w/VFiu/DqCWk7PDLRbCTFFEd5c8u3L9wbzkyzzXZtcsUCQbT1iEne1JIY85YKxTFk4HFHlluOqJMjyckkfblgoaIeix3bRa29S6GxJXFtR/648ZkjYtds4oLFbLfr+G+2bBziYc8PNDGRFFMc5e+2cVPWbHIh4wPaDidXLGgjhRrz3tYlMeYtlYA43mcOlgruwGs2Z/dsfD8O24+5JjvT7CxRfEYlSV+gUH9JxHPCOV3SPpDtaTZxucxkXdYnxBFxZsPagu5GlDSflnFCfL5nxFGz0ZDnCesr7FasDXYmmk0uBpvtuPUBgdNsosTSV2SP6EM7z6O0ba1QHHMMPCaJzUrAxaNnq3aWJCdT0hOzUH9JxAMRsD6QRWo2cZFxxSWX4BVTHN1XaTSbXMjHCW1Oaq/aRIllkckeZVaP2HA8iTFvqQTFcdPXJUPGwN98v2oDzr8s8xu9Ra/uUu1AVJ9RSNIXKNRfEvFcPGpW2ge4dsEK1S4qtzz9H2lfUbJGABGRMYx74DnVN0CdtfPFUbHRwHlsu7C+6jthbtoGTFn+qmoXxtwXPsy4cWOeanZRYgEYC2vnZ4/Gf9S2rZGAON5rDpYKcuCvMAOv2YA5YgGC4WYSaXYgqs8oJOkLFOoviXgWrNuR8XzrX9qerNpF5SIhtsebLbtmoyGzpI6XDFFtwFhHHDUbjSh95c6rbHFoyGtHn1YaMdPs4owbxsPadjZim/QcbElQHCMOvLTNtgiTnExJT8xC/SUVj5sxYZFrdi53mYwdbaUISJGLE1P3YVPS7b5zSIXvW7MrpjgCaYdsbfCtVaqdy6i7n8jIGtEvmh2IM2648Vtb+M+3f1sDFMeIA496awtw19fskhIQkKQvUKi/pOKBEEForC/QrmtfP6vU7AFEwy5UCBaO3bBsbbo9FnK29i5u1hYmSsUWR2ylpciBbEIH4E/aI2sME3cQd9xOOa/xiyJJIWPeEqE4Rhx4TD5kGNa+69UTVDvpE5MMGUouZjz6Tk5fSUzMuLEhOymkPQi7NoiO7E+AzzgH2kGs8F9sNV0hhSjCB7Z99licLbVFPnvE9Wg2xRZHMGDyXWlbC24EeFMCdYgBwI/7vBTC6o6TS9x5BMGW54jTtjURFMe3vioZ2rY7t3HgZ5iBV2wkWKjWHndrzUb6jIr/rCmHryjx5SJubL7gFNAehF0bmPPUFq/NiZmLPRddrzI3pVR7+ewyn/7pO75xe+9nnms/CdiMvd8RR6c+jLhjBxs3g8wFrn/UosdVf5J85lG7Cxq/BY/btrVAcYwx8FMe2pgxWW5Y9vuADRavtImCXPCSfCZ1NuLGhgVSSHsQdm0S2LjZoQQZ5dk9B/liatug7219mLDlovL5bRmCNPjWZQGbphJHgHhwM8klkhBF9FnUa84nFviWX84A9IVm21oJiOM95mCpMNssNgw4uN1MBs3GZbIRSNtm4cb/ymkThbBz5xNfLuLEdptZrIW0B3HiRn+izYBJC71uwyZ7w29f4X/WbIE9x/RH3lbro4C21k9YrLYe167VaxQ6diNNRog+kFxjxDufay0kFtuukD5uqQTF8c19hBBS8lAcCSFEgeJICCEKFEdCCFEIiONic5AQQkodiiMhhCgExfGNvYQQUvIExPFuc5AQQkodiiMhhChQHAkhRCEgjovMQUIIKXUojoQQokBxJIQQhYA43vX6XkIIKXkojoQQohAQx4XmICGElDoUR0IIUaA4EkKIQkAc7zQHCSGk1KE4ElJE5q/f6U2s2aDWkeaNIo77SMKMeXCN99PTz83KSZ16eBePrTQLaaPqIyrz13/h+7L/Yty/nd3Fm/XsB6rtZdPvU2OJy/QnNqv+48QSRpS+O//K8d4185ar7aOSRKyW4Qsf89u7/y73ET9u63XoM9ibtHKT2g5EuV6Xkfc+q/oihREQxzvMQZIsWChykeTi2BPbezeZBaT5ysXlc5YF/HW/bqZq2777oIBtPlxnFqfmP04sYcTpux+2PckbZoRJ85OLJGK95aXtvli5fjS6Dpms+og7V0CYL1IYFMcmQC4YZA/2jo+/5SSX/NNB3/Yn/TyT0Wg+wzhRZD8WiIZme5HJVG0sLmhj2yMWzcYSJuRxYgkD/m1b2XfAzcwsYWKdjSRidX2gfacBI/1xhOgd+r0j0nWIX/OR7XrDyOd6SW4ojk0AJrCd8APMVlazmWC201hEECJrC7DAogrkTLMNtO3/+ahjM3zBv9YmDCw42xa+NJtsJBVLlL7DcSk8+BtZnGarkUSsfW9cmG4DsM3X7JChYkwhllp9lOslTUNAHBeYgyRZ/lVM+P5mwms2FmRh2FZbe4DtnWbrcolYoBcYoT21yyXpz52vHK+2CcMVR80mG0nFErXvZLxgqNlea3YaScQq23Q02aJmI7nZCLJ2PM5cIcWF4tgExJ3wc02mKBcbMpmpT2xWbSVSVGEvn6Mhm9LahFGoOCYVS5y++4F4TIFHBpqNRhKxoo9sm6tN1qjZRIHi2HygODYB+Ux4ZBZye4fnWZqdBYva2mKx4xhEVj6Xg+C57cIoRByTjCVO30lbZICajUtSsUr7OMLsQnFsPgTE8fbX9pGEyZjw0+5TbTQ69h+Zbgdmv7hdtQMQA2vXzWzD7fEzxDfS+Fu2ycaIezLFUbMJI8lY4vTdD45tzByxVdZsXJKKVWafiFmziUK+c4UkD8WxCch3wk95vDGrAaOXrlHtgNzWoZ09PvTOx9LHkYlWvvxFRrswChHHJGOJ2nfjqjem7cCMZz5Q7VySitW9kcW5EUkojs2HgDjONwdJssgJ389MeM0mDLm17mOyIc1mlBFNa4NzufXym9yBs5cF6jWudcRRs9FIOpYofTfdCOHRbRtfPTq792DVziXJWBGDtAfIZHEOzT6MQuYKSRaKYxNQyISXW8XOV4xXbSAG1kYTUFl/3NldAvUa+Ypj0rHIvjuhUw+vi9kGS3DsYPG8DxnbbSbL03y5JB3rEJNtypuZBdeA/tTauMjrxdjjcxi4Vs0HSYaAOM4zB0myYCLbCQ9x1GzCwOK3bfG3W3+rEQKZsUwzGYxrIzMkLF7NxmW4I46ajUsxYpF9l4sfndjeG2u215ofl2L128SVmzJuaBJcC/pVa2eJc71g0uObVT+kcCiOTUBS4ojsxa2/cu7ydD3O49Zb5LO1nmMrVRtJPuJYjFjiigVAP0H8NH+WYvWbBePsbrMt5/YfqbYBca4XGfOsF7erfkjhUBybADnh44qjfJbWzmyj3PpTxPuQ2Xz/0mzJrR0yLM1Gko84FiOWbH2HLBFxQujgx9pF8VusfnOBbymwFpxfsy9krpBkCYjj3Ff3kYT5yWmNE/7SqfepNmHI52ln9R6cUTdz9fb0My78F59lvWTCik1pPwCfNTuLK46ajaRYscTpuwtHzMzw2/uGhapdMftN45Z1X/ix2XNaLpu1LGBbyFwhyUJxbALynfBYVLad1haL39Zh4eE82ZC+fjV4coYvl7jiWKxYpG2UvpP2R//sJNWmmP2WjWucL2y0+OT5KI7fLAFxrDQHSbLICd/XTHjNRmOYEChw42ObM+rdhRsHCJ705SLPncsWFCuWuH3XY0xl2h5CpNkUs99yAXG1vhDfHHMDlPX5zhWSPBTHJiDfCX+8+DIGWYasg1DauijZD/jRCZnP5SCA0qckjjgWMxbYWpsofXdFZeMXLWDqqg8y6ovdb7lA9ih9ZbvhURy/WQLieJs5SJLFnfCajctQIU5au67i+Vrbs7pk1GVDvmZyZu/Bqg2Q5z/MiKNmYylmLHH7TsaC57XZ6ovRb7m4XIg3xNmtz2eukOJAcWwC4k74q012Ib+IwcKcbbZf0kYu1jiL6HyxrcM5XL+WOOJYzFji9B3aI8O29sj4XJtixDpj9fbQfnT5hfiZoRYfxbH5QHFsAqJOeCyy07tn/tMFyC7GrdiUYTfCeTkZ7WR9NuS2EgyYtUy1iyqOxY4lat9BnKTwAGRp0qZYseK8EMzuYyqziiRuetIHBNe1oTg2HwLieOvGfSRh5IQ/vmMPf1FYzrx4sF9/iPLCMI5du2RNwF+Hfo0igK2hW58L+QwN8Wg2QxZniqNmA4odS7a+s5zebVCg/3DM9VWsWDGG9jhEEp8hlOhD0N8IKeytDcB1Sd+WKNfrMm75JtUXKQyKYxMgJ3xUsDAmP/2B6k8KwSUmu9BssoGFa9sjg5r+wvaATVRxLHYs+fQdRFD6sBQr1qvuyMwIc/F9s7XX+hzkc70QY80XKYyAON5iDpJk6XR5468sstHGLIzOJhOY+Ohm1Q9AJmntsUCnmUWm2WVjkhFdtLV++pnMxrVxxdGtB00RS9S+g/AhW0RMsr2l2LGOqtro/dzJDl0QY68bFmb4dIl6vRK00XyRwqA4NhFYPHabJckmhGHYtmPNdkqrjwLaWj9hQmHrEbtWD6xNMWMJ6zsQp/9sm2LGOnPtF96gyuX+Tc6Cz2GirZHtejXyEXqSG4ojIYQopMWxvLp+P/6Y9sqX3hxTQQghpcwRv9uWyhyr67fhj3HrdquGhBBSSviZY3Xd37Gtfgkfhq/ZZSq+IoSQkmXS+r2+OJZX1+0oK6+pr8WH/s/v9GabSkIIKVVGr91tM8dNZUYhp+JDpyd3qMaEEFIqXPLc5w2ZY03dqrJDat//OT788KFtqjEhhJQKpz76cUPmWFU3uAwF+2scGLpmlzfLGBBCSKkxfcNX3uG1Da/xfLe27ihfHM2H+TjQ0WyttUaEENLaGfjCztSWun6DL4woFbV1p+EgVHPMuj1qQ0IIaa0ga8SjRV8cq+pHpqSxoVTU1C1FxemPfezNNIaEEFIqXPTMZw3CWF2/JSWJjQV7bLz4CIOhL+1SHRBCSGtj/LovvaN/t+0f0L6Kqvo+KUnMLKbSf/aIn8+MMw1uNg0JIaS1MvWVr7yfrvxT8FmjVoyR/4uZNis+8t8W1xwSQkhrAI8RfWHEGzu1Ww5LyaBeYGB/bw1FRQY5wzghhJDWwhSTMbZ//BNfGPE4Ee97pyQwe6mo3dbGvvuILfawNbvVExBCSEsDCZ/dSkMYy5fVdUtJX7TSkEHWbYKDw2vr/3HeU3/xbjLbbO1khBDSEuj1zGeNr+z4W+m601KSF7PU7jjYvuJjs8huqz71bnx5rzfdpKWEENIS6P/cTu+Y5R82ZIsQxpr6DTmfMUYph9Z+cI7vLOUYnPzox15Po8IjzJZbC4YQQr4pxq790uv77E7/uaL9n9f6oohsMex1nUIK9ubmBP632RpSmQkhpCnBGzbacYCXuyuqt05ISVnxCtLR8qqtA81JH/EzytTL44QQ0ixo+L7kJfwUEF8wp6SLhYWFhYWFhYWFhYWFhYWFhYWFhYWFhYWFhYWFhYWFhYWFhYWFhYWFhYWFhYWFhYWFhYWFhYWFhYWFhYWFJaOUlf0/3/bUaByRFhcAAAAASUVORK5CYII=;" vertex="1" parent="1">
          <mxGeometry x="1621" y="465.75" width="265.2" height="103" as="geometry" />
        </mxCell>
        <mxCell id="8LlulcfHmFQd0nab0qFh-70" value="" style="shape=image;verticalLabelPosition=bottom;labelBackgroundColor=default;verticalAlign=top;aspect=fixed;imageAspect=0;image=data:image/png,iVBORw0KGgoAAAANSUhEUgAAASoAAAAcCAMAAADhsAIZAAAAAXNSR0IArs4c6QAAAARnQU1BAACxjwv8YQUAAABRUExURQAAAAAAAAAAAAAAAAAAAAAAAAAAAAAAAAAAAAAAAAAAAAAAAAAAAAAAAAAAAAAAAAAAAAAAAAAAAAAAAAAAAAAAAAAAAAAAAAAAAAAAAAAAAFypFUIAAAAadFJOUwAIECAoMDhASFBYYGhwgI+fp6+3v8fP19/nZfMCsQAAAAlwSFlzAAAXEQAAFxEByibzPwAAANpJREFUaEPt1dsOgjAQRVG0AiIiWgFx/v9D5XKIGsO0+IKmZz2NpjFxT9JGRERERN+JtxhIl1gxGEmTViKBpoqLDSYfQ6hQU6VyP2J0yuohVLipRNocH1RZM3bq1NWb68mtSN1+fAN9Kp9Y5hlqVTesR1NiPRpsR5Pgr0/GVCJNhi/mmDNO0pJYB3SHPTalKbFxTYuf/wMWTWaZy3hwxUtlh/VoCqxHg+1opkfsk9flHtv+aJgvYD5k8n0FO32skFM576lXsQ031aJQ4cqlYig/SYqBiIiIOlH0AOGrXD9rhA4pAAAAAElFTkSuQmCC;" vertex="1" parent="1">
          <mxGeometry x="1428" y="510.25" width="193" height="18.13" as="geometry" />
        </mxCell>
        <mxCell id="8LlulcfHmFQd0nab0qFh-71" value="" style="shape=image;verticalLabelPosition=bottom;labelBackgroundColor=default;verticalAlign=top;aspect=fixed;imageAspect=0;image=data:image/png,iVBORw0KGgoAAAANSUhEUgAAAFsAAAA6CAMAAADoQNVUAAAAAXNSR0IArs4c6QAAAARnQU1BAACxjwv8YQUAAAEdUExURQAAAAAgQAAgMAAgNQgoMAYmMwUlNQUkMgQkNAQjMgMjMwMjNAUlMgUlMwUkMgQkMwQkNAQkMwQkNAMjMwUlMwUlMgQkMwQkNAQkMwQkMwQkMwQkMwUlMwQkMwQkMwQkMwQkMwUlMwYnNQgoNwoqOQ0tPA4vPhAwPxAwQBExQBM0QxQ1QxU2RRY3RRw9TB0+TCBATyFCUSVGVidIVy1OXjBRYTNUYzNUZDlbakBhcENkc0RmdkVmdUZndkprekxtfE9xgFBxgFFygld5h1d5iVh6iVp8jF1/jl5/jl+BkWKElGiKmmuNnGyOnG6Qn3SXpnqdrICjsoGksoWouIyuvpK1xZi7yp7B0Z/C0aTH16rN3K/S47XZ6bvf78Hl9Q0RzGIAAAAgdFJOUwAIEBggKDA4QEhQWGBocHiAh4+Xn6evt7/Hz9ff5+/3v+H4wgAAAAlwSFlzAAAXEQAAFxEByibzPwAAA+lJREFUWEetmGtD2kgUhsF4iQgaXEFWQU5betl2tWWhlO7W0lpa2rRVWqVWSPj/P2PfM3NCBkEFkucLmczkdTw5t0liASzbcfKOnZThctpxtuw1GUXC2i6TZncFo1xRRnsbsmAu1vOFA6Ly7hbvbStQBuVMGhMjiim9fnbSe/IoKKUy/FN13bOTqroDKk3X7TQqfJmWZ2ZjeV89b1I7Hyqu6jyqXuiR5x5idJf4UipbYHIbyYTF1nzc6XnDYb/b4qep7mux4fAbRp9Go6FXw3hVRKZi74QGLedgj8rp6HHvJdFT/BnBa9EHuVSw+I7ITMHaFdmAew/kf1b03z78LpeKnvwKPWznxveZVnuuds574JT/R6ITeXAWnmN9cXNJ1MbYVFpXshDb/HyfyNz3XfzLAlRcFj2DNO5Xf8kyjdc6lquZGPxuP54qvgyD1MI3tSD+GTx9QjxPdBRZGlxAfE80hVW427hBFoXFx90lR9SWyai0ifKiqkHWiWfb8C/4eZCBGQsmkanoIDmYb9NGppCZ6BwR2aILLCTPqsxEB/seJa2VHY6nRzITmUuiA1FO2FI9LmUuKv+EfqIyVPXVfz9kKipnSJ8HlpLmMnUUl/uBrrKB2niyFEcaCfGbRC8gzk6YIjoMC1MM+M2a95ooC22kqLhiXfA9rkCcrlBt4/KPEB9GQfkpEF0re3GAyITBUX3nKVszorWzRA25sTj+ybVaiNIGe1uInK7cWpivRMemH59L6dmG3SN6is8V2AwS+OA2aye5L3vy5rwXwcsHEDPEkawkES7BVRQysxAc6UEB8NE1BckqaNRkajFYXHe4HPVlyd+I+spPt9GYq82ZBBW4xr997vUyWjquqB+gdegPB23u8h2R5gofS9Sj13//mpXLwa4TiaiWDmBfYfaMOoxhX6Yj8VErj7VUcBNXpiPRISpkcC402UB1iKPwwN4TZ8yYqhqCsTx5ZFBNvc5X3sKBz8GYE0ETFqfDpvvl7zn6zf7YNlQwXjO2Jjw7n8rau2lRPSwqVw08O4qYcZYy6sx/b46G8y+ioFvyEO+3ni3X7E1EP3Vk/Qg/PLiZDB5gcd097V24TQ5GnbBvgTNifSBPay6OprcvaqshhVtP20ySxSttQ917RvROrk3QgVCQm2f9vOHw0spxV2eBy7NjHk7W0z5a7HzCWnf+KOSd9PUj303YwfcSZUThq0gGdFEgS7pVnY+U8TUG/MnDpun3Xgt3yka2m4eVzQLyACjmnRX9EqgWGOayzd9R9u98d7exNoqypDqywIMaQF9mzTNeNFZFXSity/14sLJBWijtxKussZmpX16mkEj8D3ZCyPYYFA6aAAAAAElFTkSuQmCC;" vertex="1" parent="1">
          <mxGeometry x="1848" y="454.25" width="69.82" height="44.5" as="geometry" />
        </mxCell>
        <mxCell id="8LlulcfHmFQd0nab0qFh-72" value="" style="shape=image;verticalLabelPosition=bottom;labelBackgroundColor=default;verticalAlign=top;aspect=fixed;imageAspect=0;image=data:image/png,iVBORw0KGgoAAAANSUhEUgAAAHAAAABJCAMAAADSS1IcAAAAAXNSR0IArs4c6QAAAARnQU1BAACxjwv8YQUAAAFWUExURQAAAAAgQAAgMAAgNQgoMAYmMwUlNQQkNAQjMgMjMwMjNAUlMgUlMwUkMgQkMwQkNAQkMwQkNAMjMwUlMwQkMwQkNAQkMwQkMwQkMwQkMwUlMwQkMwQkMwQkMwQkMwUlNAUmNQUnNwUoOAYoOAYqOgYrPQcsPQctPwcuQAgzRwk0SAo3TAo4Tgo5Tgs7UQs+Vgw9UwxAWAxCWw0+VA1AWA1BWQ1EXQ5GXw5IYg9HYQ9KZA9LZw9NaRBKZRFNaRFRbhFTcBNZeBNaexRegBVgghtkhR9nhyVrijFzkTp5lj58mEN/m0SAm0qEnk+HoVCIoVaMpVyQqF6SqWeXrmqasG6csnmkt36nuoSrvYatvoqvwJW3x5u7yqXCz6rF0a7I1LLL1r7T3MLW38ja4s3d5dTi6Njk6trm697p7eHq7+Tt8ejv8+zy9fL2+Pb5+vj6+/v9/f///w0A234AAAAedFJOUwAIEBggKDBASFBYYGhweICHj5efr7e/x8/X3+fv9/ZdDxcAAAAJcEhZcwAAFxEAABcRAcom8z8AAAJ8SURBVGhD7ZnpUxMxFMBToeKBR1EXCvo4BKWiIh5YLyolC1hYkIpYqrYq9cLasv//F1+yz+muRV1qkmHG/GaaSdI3+eV6/dCwML3nBkEf6b4T5CGS/fSNPi50kUuQSFOvTgYSZEPOYns693AcYDzPNbCQu4GGM2RD8Piy87O3p7H3McWo5j4ukWyMdaMogx/BDAWoZgHHJh1jPYFLYlA4eX0Ky0cUoJos5gbpfgpv3bsqhDkdPJ0dAUiRLrql+hhspQUKMSM0kz5KNgSFmfmZKxkdjGE6OI5z/lQo7aWQzlY5mG49pGlhhf+CFSrHCpVjhcqxQuVYoXIOrdCt+YK31OycuMLFesnz1uomha9EYU648n2DhG6l4fvvlziv7oj+Bk7klxrnxeYy59sNf6+CcVHiCuUQUlhurvOCqPxFKOM+Be0QcYXlrzhXKdx+g80qNqs7nudtBppWTUajUJ5BMM8IcYVypOAMN999/OILoby3vtBEat9KwrOCG490KgxUonRru1vearBC7NpnS8t7G1IoVthOTKG8M1IYDPQnIVbkloopFj93tsJn1eZzPKa1emV1sV5Zwov6e6H7Wq4QF1rihRrGRYklpJ8ZQXO5iLe9JO7QvkIM2d0K7gqmhf+hs7Rwa2J7BOW2S3BQDqeQv1inSuFl2x4dkHhChVihcqxQOVaoHCtUzv8n7DqecpwBc8KTF+kfaUPC06QzJUxeArg8NWFOmAKYePJAPI8YEvYDXJM6U8LQM6UZ4RDA6CQyCnCTvldNfgygm3SM9QIM352buzMMkKUAxeRxgUNkQxKY8VoZEUX4fTuJm6qb1iOe4EifZqVzjEyMMfYDP9SruTGUEnoAAAAASUVORK5CYII=;" vertex="1" parent="1">
          <mxGeometry x="1468.5" y="482.81" width="112" height="73" as="geometry" />
        </mxCell>
      </root>
    </mxGraphModel>
  </diagram>
</mxfile>
